/* XPM */
static char *_74fc5f9f74c470fd53f0aa14f1f2fdeL0hNYZWulbz5wrbc[] = {
/* columns rows colors chars-per-pixel */
"60 60 256 2 ",
"   c #321915",
".  c #382718",
"X  c #3A311D",
"o  c #3A2C25",
"O  c #383226",
"+  c #4F1E17",
"@  c #4B2B1C",
"#  c #462818",
"$  c #5C2D1D",
"%  c #562819",
"&  c #49331B",
"*  c #5A331C",
"=  c #56361A",
"-  c #662B17",
";  c #752C16",
":  c #69371A",
">  c #75361A",
",  c #6A2F0C",
"<  c #4B2C24",
"1  c #472925",
"2  c #542B23",
"3  c #5B2D24",
"4  c #562C28",
"5  c #4B3424",
"6  c #493829",
"7  c #543223",
"8  c #5B3423",
"9  c #5B3B24",
"0  c #54352B",
"q  c #543B2A",
"w  c #5B3B2C",
"e  c #59362C",
"r  c #4A3935",
"t  c #543B33",
"y  c #5C3D33",
"u  c #593735",
"i  c #4C2E33",
"p  c #662D23",
"a  c #762D26",
"s  c #633425",
"d  c #653B25",
"f  c #6B3B24",
"g  c #63332B",
"h  c #6C342B",
"j  c #643C2B",
"k  c #6B3C2B",
"l  c #6C3324",
"z  c #753B24",
"x  c #7B3C23",
"c  c #733B2B",
"v  c #7A3829",
"b  c #643C33",
"n  c #6C3D33",
"m  c #673835",
"M  c #7C3C33",
"N  c #753A35",
"B  c #662E31",
"V  c #4C421E",
"C  c #68451E",
"Z  c #78411A",
"A  c #59432A",
"S  c #5C4334",
"D  c #594738",
"F  c #4E4B33",
"G  c #64422C",
"H  c #6C432C",
"J  c #694828",
"K  c #734325",
"L  c #7B4324",
"P  c #72422D",
"I  c #7C442B",
"U  c #734B2B",
"Y  c #7A4A28",
"T  c #634433",
"R  c #6C4333",
"E  c #644C34",
"W  c #6B4B35",
"Q  c #64433B",
"!  c #6B4B3B",
"~  c #68473C",
"^  c #734334",
"/  c #7C4432",
"(  c #734B33",
")  c #7B4B34",
"_  c #73443B",
"`  c #7C443B",
"'  c #744B3A",
"]  c #7C4C3B",
"[  c #6A533A",
"{  c #7D523C",
"}  c #785638",
"|  c #7B532A",
" . c #6F3D41",
".. c #5C4842",
"X. c #5F4F50",
"o. c #6A4A44",
"O. c #734B43",
"+. c #784844",
"@. c #6A5746",
"#. c #7C5443",
"$. c #775747",
"%. c #6D5654",
"&. c #7B5B52",
"*. c #796455",
"=. c #756350",
"-. c #3C492B",
";. c #86381B",
":. c #953A1B",
">. c #852F16",
",. c #843D24",
"<. c #873A29",
"1. c #953A29",
"2. c #873C34",
"3. c #953C33",
"4. c #892A26",
"5. c #A93C2D",
"6. c #AC391E",
"7. c #8B451D",
"8. c #844325",
"9. c #82432B",
"0. c #8B432B",
"q. c #844C2D",
"w. c #894927",
"e. c #97492A",
"r. c #86522A",
"t. c #98522A",
"y. c #844534",
"u. c #8C4434",
"i. c #834A33",
"p. c #8B4C33",
"a. c #844C3C",
"s. c #8C4C3B",
"d. c #87443A",
"f. c #944C34",
"g. c #9A4C34",
"h. c #974838",
"j. c #8C5434",
"k. c #83533B",
"l. c #8B533C",
"z. c #8D5A3C",
"x. c #865735",
"c. c #935234",
"v. c #9C5335",
"b. c #935A36",
"n. c #94543B",
"m. c #9B543B",
"M. c #955A3D",
"N. c #9C5A3B",
"B. c #9B5A35",
"V. c #A5472A",
"C. c #A7522B",
"Z. c #A74A37",
"A. c #B44B36",
"S. c #A35334",
"D. c #A3553B",
"F. c #AB543C",
"G. c #A95A39",
"H. c #B45639",
"J. c #B4492C",
"K. c #8A623C",
"L. c #96633A",
"P. c #A5633D",
"I. c #B7693F",
"U. c #C45A38",
"Y. c #C1502C",
"T. c #C3673E",
"R. c #874C44",
"E. c #964C44",
"W. c #845443",
"Q. c #8B5444",
"!. c #835B4B",
"~. c #8C5C4C",
"^. c #885846",
"/. c #935343",
"(. c #9B5343",
"). c #935B44",
"_. c #9C5C44",
"`. c #9B5549",
"'. c #925D4A",
"]. c #9B5D4B",
"[. c #93554B",
"{. c #865A54",
"}. c #965C55",
"|. c #A45C44",
" X c #AB5C43",
".X c #A75747",
"XX c #B55C46",
"oX c #A35E52",
"OX c #B65E54",
"+X c #A84E44",
"@X c #886449",
"#X c #9A6444",
"$X c #9D644B",
"%X c #966647",
"&X c #886656",
"*X c #946455",
"=X c #9B6A54",
"-X c #986759",
";X c #957259",
":X c #877357",
">X c #A3634C",
",X c #AB634C",
"<X c #A86748",
"1X c #B6674A",
"2X c #AD6A53",
"3X c #A76857",
"4X c #BB6C53",
"5X c #B66956",
"6X c #AC7353",
"7X c #A77459",
"8X c #B87658",
"9X c #B2744C",
"0X c #966C63",
"qX c #897766",
"wX c #9B7665",
"eX c #91706E",
"rX c #A66C63",
"tX c #B76D63",
"yX c #A87767",
"uX c #B77867",
"iX c #A97D76",
"pX c #B67A72",
"aX c #9B5B61",
"sX c #C6594E",
"dX c #C56749",
"fX c #C46754",
"gX c #C7765C",
"hX c #D26F50",
"jX c #C87966",
"kX c #D67A63",
"lX c #C47B73",
"zX c #E27C63",
"xX c #9A816C",
"cX c #AA8268",
"vX c #B7836C",
"bX c #AA8275",
"nX c #B88678",
"mX c #B89374",
"MX c #D1845B",
"NX c #C98869",
"BX c #D5896A",
"VX c #C58577",
"CX c #D78977",
"ZX c #D29474",
"AX c #E88E74",
"SX c #D8A27D",
"DX c #BA9586",
"FX c #B38F86",
"GX c #BBA895",
"HX c #C79587",
"JX c #D89787",
"KX c #C38780",
"LX c #CDA390",
"PX c #D5B2A7",
"IX c #EBA490",
"UX c #ECC19F",
/* pixels */
"= * 7 # 7 e 2 _ A 9 j j ( H W & i b $ k e y e 7 l d d 8 8 T H d = 9.y.w & s $ = X h * # g D F k g 9 # G 8 k d A . q 6 X ",
"' *XW.3 n _ 2 g {.+.3 h m g 0XiXS ' %X^.k !.W.j o.&.%...%.=.y 0 [.c g R.+.g +.[.~ w ` m 4 Q R 8 ..*.D 1 1 i o . o.u i i ",
"0.|.v.0.|.m.; u.p.u.<.1X1X;.|.2XQ.>XAXNXp.tX5X0.vXJX;X' *X;XW.^.kXt.w.CXkXq.<XgX,Xj.jXOXK j.h./ !.DXwXk N ~.N R W._ h +.",
"2.y.<.9.m.y.; y.c.w., w.g.; q.j.] j.uX8X9.a.'.L 0.6X6X#X7X$Xw.8.P.j.K.8X2XY b.G.c.q.9X1X: K 9.U i.yX=Xl M /.z - } U P ) ",
"t u _ m m #.&.o.0 T R ^ #.$.j e E J U @X} 7 $.@XW.#.#.' G _ *X7X;XwX-XS ~ n 3 T T ] S @.b e ~ O.S t D u b +.Q < X r S q ",
"$ % p.G.v.9X2Xn.d.-XrX(./.3Xd.` yX3Xf.8XuX] pXLXuX7XvXiXW.k.3X7XVXCXlXQ &XaXh.[.rXtXj &XtXrXwXpX&X@ W $.~.-X-X&Xy !.-X*X",
"K , v.1XH.C.C.t.f.4X4X1XXX1Xe.p.jXfXXXgXlX/.tXCXBX8XBXNXN.w.D.e.XXXX4Xu.8XjXgXgXtX5XY 2XgXjXgXNX7X: x.n.v.h.c.j.l /.>Xn.",
"r t b - - h h e = } K ( k.k.( ' l.c.L.L.K.A } } ].^.&XW.j k d.v 2.} $.j #.@.&XQ.R.D q $.$.~.9.} W.# _ +.M N h n o D ~ b ",
"+.=.9 d ).$.* }.{.e H #.!.* =X;XR #.cXrXk 7XyXc _ ^.] 8 -X0Xo.0 n.} w uX}.o.~ yX&XA Q.u.j #.3X~ 0 R.+.1 0  .B 1 * % 5 5 ",
"4.d.>  XkX2X> 2Xn.c.v.gXBXD.4XkXz.7XZXZXn.8X8Xn.v.gX,Xu.NXCX2Xs.8XZXz.5XjX7X%XNXCX#X+XZ.e.XXkX7XU >X/.R '.tXOXW XXD.,.s.",
"v W U  X4X%XC ).6Xr.b.cXz.r.7X3XY #XuX6X9.>X].9.j.6X#XK 7XvX3Xk.8X7XU N.uXx.) 8XNXz.e.Z.8.m.4X$X| =X=X{ l.>XB.: N.).l l.",
"1 . t c / #.@.[ A $.W } W 9 & q O.j _ #._ 3 3 _ W T 9 # 5 S o.[ $ * g @ 2 9 R j w 5 # 8 9 G 7 q 7 e b 0 2 s $ # # 6 5 t ",
"O.u wX5XOXjXJX2Xl.VXuXtXuXrXR.+.uX7XnXyXyXW.Q.-X3X[.}.}.N Q.pXKX-XrXHX&X*XbXyX*X&XwX!.&XnXHX0XrXnX;X&.-XyXrX*X!.< m 0XO.",
"k.C 7X4XsXXXgXF.j.2X<X<Xv.2X|.l.1XgXBX<X<Xc.N.v.g.g.>X>X9.(.5XjX8X5XjX^.7XjXF.<X8XkX(.p.jXCX8X4XBX$Xk._.5X$XQ.|.8 ] ZXyX",
") 7 G ) p.K U z.= K K L p.z.U U G.c.B.b.#Xj.I p.> 7.z { } ( H k.Y |._.K %X5X1X<X>XXXn.z h.2X>XF.|.).| 9.s.{ { /.# q &X;X",
"oX0Xo.b  .u . O.&.@ O.-X` '.yX~.j W.' 7 E bXeXy /.l.g {.wX+.# ] $.` _ =.D $ ) W q e @.F q S =.^ /.:X@.< B ..r 1 %.o.1 S ",
":.3X].1XG.R.$XMXdXx.mXUXmXG.zX8X7.hXdXr.cXZXBXP.MXMXj.jXAX6XJ I.dX>X(.XXG.M NXBX$Xj.ZXrX].2X8Xp.|.JXCXM ;XDX}.h +X.Xc ] ",
"0.i.] N.n.c a.jXh.J xXcX@Xm.4XNX8.1XI.b.%XuXvXL.8XNXz u.5X3X| fXG.B.N.G.S.r.NXBXP.P.jXNX0.g.,XG.x.NXNXM.cXmXcXH m.w.: q.",
"o &.nX0X&.W.e     i O O e 8 y ~ _ 9 ( yXeXD D !.[.&.%.{.1 D &X*X!.~.W.6 & d k.#._ _ { *XR ^.wX!.} [ 8 & X F ..t @.. . w ",
"%.yXJXbXcXVXnX%.xXpXFXeXKXHXE wXJXmXvXJXnX$.:XJXlXmXmXFX*.iXlXFXiXVXuX .o.pXVXeXiXLX0X# eXFXnXHXiX*X' 0X0X0XFXDXFX . .}.",
"P 4XMXI.1XT.MX{ mXIXSXSXAXMXx.9XAXNXMXMXAXj.L.1XdX<X4X4Xx.B.dX8X5XH.C.I I 1XT.uX4XMXVX> 2X<X9XP.4X4Xe.,X,X X X2XcX: ,.v.",
"# / p.p.).).=XE $.^ !.) N / @ W.7Xz.K c a.j ' a.k.I >X=X9 h /.W.L <X#X* = #Xb.I c.j.>XL z.M.c.2X#Xj.f ) a.s.'.=X].c <.2.",
"wX&.< n n < D ;Xo.F Q o.F t {.%.6 O.#.o.1 eXeX6 6 R._ 6 $.R.< 1 / e < ! W 0 # ^ ) % ~.nX-X-X7XuX{.S D ~ 0 2 2 o 6 S 6 . ",
"dX_.d.C.G.=X=XSXjX=XBXBX%X#XCX6X| 4XkXNX: VXJXM.| sXfXq. XgXN.Y A.`.` D.<X}.R.J.2X#X7XZXvX|.5XCXpX-XmX;Xa.oX3X^ s.3X^.7 ",
"4XL.Z e.C.Y K.MXjXK.NXgXt.t. X#X[  XdX9Xx.p.4Xt.r.<X6XZ B.A.Z.Y .Xi.> Z.V.v.8.A.S.Z F.sX6XK.8XBX7X2XNX7Xb.fX4Xw.0.P.P.- ",
"< Q o.h N &.*...=.@.#.{ wX:X_ :XqX} ) wXGXD 9 cX3X].#X^.^ 2.+.[ &XqX~ #.P ' ] c ) k p a Q.] / p.6 9 o.[ @ s k T m f W.j ",
"' [.tX,X#XuXFX~ vXJXnXcXIXHX#.nXLXnXVXuXPX&.O.pXuXgXjXJX@X&XFXPXDXPXDX$.S wXKX;X;XwX*.[ bXbX;X;X0X[ 6 &X{.$.O.$.D 1 &XwX",
"p.1.J.t.t.J.fXz.4XkXMXMXkX8Xi.oXfXv.1XXXjX%X%XjXcXT.dXBXL.$XyXyX7XXXlX#Xj.5X+XN.h.sXh.J 5XhXdXfXfX>Xz h.Z..X#X|.].,.5X1X",
"T d.<.L j.f.`.} I.9XL.%XN.%X} I m.z.x.L M.:XV : , t.J.t.K.6X5X]._.<.h.G c (.e.>Xh.5.z A v.A.XXS.fX>Xz +XZ.m.n..X$.) D.7.",
"*X}.h 8 ^ ) [.;XcX8X#Xz.l.~.} #.f $.$.8 8 xXwXR [ vXVX) } '.E.M H j 2 o.%.b 4 2 S # X -.q @ G H N 9 @ R 3 8 % 2 ..@.D   ",
":.e.a .X2X<Xt.T.1X1X4XOXoXm.1X5X].`.aX}.y.8XJXrXbXmXHXW.$X5Xd.N 7X!.q DXLX%.w ~.s.H ^.(.#.h E..Xd *XcX} % R.^.e {.rX'.e ",
"6.e.; E.h.v.e.Y.Y.t.dXhXG.:.H.G.M.5X(.I P.H.XXI f.f.<X8.,.A.>.q.J.B.z _.tXyXv A.H.w.5.A.D.I V.J.c.:.F.c.,.Z.A.0.1.XXm.c ",
"3.R.Q < 0 @ a.+XXXB.r.8.x.H : 2.E y.x.U ) } G s.L q.N.f.R.^ z L S.U U -X:X@X> P ;.> K ) K : c.g.J x Y } > 5.e.J ,.n.) $ ",
"q.j.#Xz.).M.9XL.`.=X}.OX5X0Xo.+.eXoXyXDXDX~ o &X}.0XrX{.{.1 &XbXlXiXyX}.t O.d.R.d.0X!.< &.0XQ./.O.O.1 S {.}.[.! Q Q o.$.",
"= ,.F.F.Z.A. XC l.$X XhXsX5X] ^ .XkX8X<XtX-X$.8XE._.,X].*X% }.uX1X,XtXoX% j.OX,X1Xe.n.M Q.]./.m.oX3X9 ^ E.u.u.(.W.k { 3X",
"# c 3.3.1.<.2.q r.| w.A.5.r.U : C.:.7.G.2Xb.Y <Xm.1.1.I z.M _.f.e.c.N.>X> N.B.B.e.H.D.<.(.m.h.N.1X=X* z h.M > 1.p.K 8.j.",
"j E J x n.} E !.k.E G ^ ] G $.^.( U k./ ~ -X*Xc u p p 5 F {.+.# K y.k R g ^ $ N P ^ R !.{.2 R R h D ..b 2 T e N ] *X#.4 ",
"Z.b.Z 0.<X$Xq.1XOX/.) y.].c >XsX=XU j.j.G '.5X,Xe 2.>X} ~ yX[.9 f.fX Xp..X,Xs..XuXk ' DXwX$ '.y.3 R yX@X% ' / s.n.uX$X3 ",
"J.Z.<.0.v.>X,.G.XXG.0.0.D.;.Z.U. X8.C.S.K 0.J.H.K e.H.7.: Z.+XY S.hXfXe.sXH.0.A.N.n.Y @X7Xx e.V.q.B.dXG.7.G.S.w.>. Xm.> ",
"* > l e < n 8 D G $.5 p c * G <.2.^ u.a 7 / h.8.F 4.Z.I P 3.E.9 ^ h.i.= <.c = c ` 2 r D o.$ v Z.7 h..Xm.x e.(.k.c ` ] e ",
"@.< e n j %X=X) 5 &.*X^.'.'.O.6 @X;X_ &XrX{.O.&.:X&X&XyXyX@X@X^.d d f R . &.:X=XqX&Xo.O F &.!.=.{.0 1 F D ..o.@.%.u o.O.",
"].x ,.g.S.4XdXG.) h.H.1X4XXX+Xk.j.2Xn.|.>X/.y.7XgX4X<X2X2XS.H.H.T.U.H.S.x pXZXSX8XgX5Xk W.oX X8X$X^.} wXwXR ( %X$Xs.n.N.",
"s.v v u.(.>X].>XJ g.C.L.L.H. XC N.m.w.0._.N.,.n.Z.e.w.j.B.g.J.J.Y.U.Y.J.0.2X3X2X1XF.5X> >X4XD.<X|.D.x 2XuXp.p.|.%Xq.e.f.",
"{ { ( d R j $ W :X) l ( #.c f R k g ^ c k / h c P ^ j j H U M ; , ; , - % R G #.U d ~.] #.^ c i.H ' s R { ' ] ] T 6 & # ",
"e.G.v.7.f.w.> q.tX].l 3.5Xs.v .X] f *X-Xa.Q.*XQ.q ! ^ h d.*X=Xk.'.*X#X).] ^ f %X).H W.yX@Xd ) Q.A S @X$.A [ S q Q Q t 6 ",
"1.Z.f.<.(.`.y.2.:.j.z 1.sX#X8.5.z ; n.M.9.8.f.,.) _.v.5.5.F.D.> 2.<.g.Z.D.f.:.H.gX0.8.jXOX0.<X1XN.9.8X5Xe.v.8.; u.(.a.` ",
"N h m g e B 2 1 , : = c ) J : ; ; K x.i.Y , x 0.- c v <.8.0.p.> R.v > ;.I 9.z 0.g.z I (.h.: j.,X(.<.+XF.1.3.<.<.; p.c c ",
"c * G 9 & 7 w [ ~.-X{.u 1 O.wX] Q o.@ 7 &XO._ ' u u 5 6 6 6 S A ..w G Q %.%...o # . 6 @ O.F 6 e r F S w 7 7 D D = E 5 X ",
":.e.e.0.; ; b.j.n.>X>Xl.I 2X1XhXe.V.:.- z.f.D.j./ E.l -XlX3X7XgXwX^ >XuXjXuX0Xu j.).f.,.).).d W z.%X>Xq.^ e T =.!.!.!.&X",
"a a <.d.a h s.` e.N.].s.v 0.; :.g.<.; % =X>X3X).x.c.: $XL.<XL.P.K., r.w.<XN.M.* :.V.g.e.D.g.,.v.1.e.V.e.m.; > F.N.m.b._.",
"2 2 3 j e j _ 3 8 T T S T T = ( / k 2 % _ 0 m _ * A G #.A } z.} / l d.> +Xh.u.k 8.L % < g % p Q.2.<.y.y.R.h M +X`.(.E.E.",
"* H ^ d f ).z.: u.h.d.s.-X`.u.5X X'.^.l.s.@ d s.n S 0X[.w ^ .X^.D &.&.] a.W.( $.@X$.u %.eX%.n ^ R.N { R 5 < 3 - & q q 5 ",
"$ k c ; x (.(.x e.e.;.b.6XL.w.N.U.t.w.F.H.Z 7.C.0.> 8X+XL ,.A.D.J =Xz.> ;.0.8.j.I.P.x.7XnX].e.7.v.;.<XP.L > G.>.: J U G ",
"o 1 4 < 2 4 2 0 N v h M }.N c N p.f * n ' 8 d x f = { #.d ] l.l.h W.a.; f.3.p.> D.f.M N M a e.XX.X> v._.x a v.:.N N v h ",
"F 1 r 6 0 6 o 6 r t o o r   o o i u i o o   1 6 5 4 5 o < 0 6 7 o o o o S 0 S X b 4 4 # @ 4 h ` o.2 s 8 2   @ +         ",
": : ,.x M / s R j.j.j.| k.U %X%Xk.3X3X} A s.>X^.) |.'.d _.Q.%X X%Xk.f [.Q.'.3X7X:X=.@.[ &XxX&X=.X G ' k !.$.E w ~ ~ @.&X",
"3 8 z <.H j h c '.3.h.x 9.4.f.b.m.F._.j.1.4X8XfXXXF.|.0.f.XXA.A.g.e.x f.g.e.Z. XyXW } N.|.K.x.F.k x F.J.6.0.p.- a x ) j.",
"# . $ - X # $ % 9 s c G H P ^ G H / ( [ y.#Xk.k.x.x.} ( U I 8.Z >.v : M v u.<.2.E.n a.u.f.l./ h.% % <.1.1.<.M + a l l l ",
"+.H u.h.k b 2.y.# g n ! ~ !.' & 7 8 & A ^ ' & 8 9 J d H H * J H & V V F X D E -.< 6 A # # A . < F V & . #   X . . .   . ",
"h s 3.3.3 3 4.a 4 d.d.^.R.3X[.g s.h.^ #.].].H Q.l.~.a.OXOXs.>X2X/./.rX}.d.uXpXQ.+.&X*Xs m #.Q o.DXwXO.1 u < 0 _ m u 0 u "
};
