/* XPM */
static char *_1a079c28595452cdc5031e57fd0dd15wa24wy7FEEjcwc6B[] = {
/* columns rows colors chars-per-pixel */
"60 60 184 2 ",
"   c #DB7E04",
".  c #DD8106",
"X  c #DE850A",
"o  c #E0860C",
"O  c #E2890E",
"+  c #E48316",
"@  c #E48D13",
"#  c #E48518",
"$  c #E58B1A",
"%  c #E59115",
"&  c #E6931B",
"*  c #E8951D",
"=  c #EB9A1E",
"-  c #DE9F35",
";  c #E48B21",
":  c #E69322",
">  c #E99521",
",  c #EC9C23",
"<  c #E6972C",
"1  c #E69A2B",
"2  c #EA9D2C",
"3  c #F09F25",
"4  c #E79B31",
"5  c #EC9D30",
"6  c #DFA038",
"7  c #EEA125",
"8  c #EEA32B",
"9  c #F1A326",
"0  c #F1A52B",
"q  c #F4AA2D",
"w  c #F9AC2E",
"e  c #F8B02F",
"r  c #EBA434",
"t  c #EEA936",
"y  c #E1A53B",
"u  c #ECA539",
"i  c #ECAB3C",
"p  c #F3AC32",
"a  c #F8AB32",
"s  c #F3AE3B",
"d  c #EFB538",
"f  c #F6B134",
"g  c #FAB435",
"h  c #FDB936",
"j  c #F6B23B",
"k  c #FDB53B",
"l  c #FEBC3C",
"z  c #FFC03E",
"x  c #DFA748",
"c  c #E6AD43",
"v  c #EAAD41",
"b  c #F1AD42",
"n  c #EAB145",
"m  c #EBB54B",
"M  c #EEB94E",
"N  c #F5B543",
"B  c #FEB742",
"V  c #F5BA42",
"C  c #FCBA45",
"Z  c #F2B54B",
"A  c #F6BB4D",
"S  c #FDBB4A",
"D  c #E5AF53",
"F  c #E7B352",
"G  c #E9B553",
"H  c #EEBB52",
"J  c #E7B659",
"K  c #E8B759",
"L  c #EDBD5A",
"P  c #F2B151",
"I  c #F1BD54",
"U  c #FEBF53",
"Y  c #F3BC5C",
"T  c #FCBE5B",
"R  c #E5B460",
"E  c #E6B963",
"W  c #EABE62",
"Q  c #E2B66B",
"!  c #F3BF60",
"~  c #E7BE70",
"^  c #EBBF70",
"/  c #E7BF7D",
"(  c #FFC246",
")  c #FDC44C",
"_  c #FFC84F",
"`  c #F3C254",
"'  c #FCC353",
"]  c #FFC953",
"[  c #F4C35B",
"{  c #FEC45C",
"}  c #F6C85D",
"|  c #FCCA5D",
" . c #EDC36B",
".. c #F4C462",
"X. c #FCC363",
"o. c #F6CA62",
"O. c #FCCC65",
"+. c #F6C66C",
"@. c #F9C36B",
"#. c #F5CA6B",
"$. c #FCCD6A",
"%. c #FCD26D",
"&. c #ECC174",
"*. c #E6C27C",
"=. c #E8C37A",
"-. c #F7CC72",
";. c #FACE73",
":. c #F7C77A",
">. c #F0CD7F",
",. c #FACE7B",
"<. c #FDD473",
"1. c #FFDA76",
"2. c #F5D17B",
"3. c #FCD57C",
"4. c #FFDB7C",
"5. c #E5C381",
"6. c #ECCB83",
"7. c #E4C78F",
"8. c #E7C98F",
"9. c #E9CA8A",
"0. c #F7CB80",
"q. c #F1D183",
"w. c #FCD483",
"e. c #FEDD84",
"r. c #F5D38E",
"t. c #FEDE8B",
"y. c #E4C994",
"u. c #E8CE96",
"i. c #E0CA9F",
"p. c #EACF9F",
"a. c #F3CF93",
"s. c #EDD394",
"d. c #EDD89F",
"f. c #F3D395",
"g. c #FBDE93",
"h. c #F5D69B",
"j. c #F8D598",
"k. c #F4DA9A",
"l. c #FADE9D",
"z. c #FFE08C",
"x. c #FFE294",
"c. c #FFE399",
"v. c #DDCAA7",
"b. c #DACCB3",
"n. c #DFD3BB",
"m. c #E2CCA3",
"M. c #E1CFAF",
"N. c #E6D2AC",
"B. c #E8D7AD",
"V. c #F0D4A3",
"C. c #E3D3B4",
"Z. c #EED7B1",
"A. c #EDDCB4",
"S. c #E2D4BA",
"D. c #E7DBB9",
"F. c #EBDCBB",
"G. c #F1DAB5",
"H. c #F0DDBE",
"J. c #FCE5B3",
"K. c #FFE8B6",
"L. c #FFE8B8",
"P. c #CECECE",
"I. c #DED6C3",
"U. c #DAD5CD",
"Y. c #DED9CE",
"T. c #D4D4D4",
"R. c #D8D7D5",
"E. c #DDDAD4",
"W. c #DCDCDB",
"Q. c #E1D6C1",
"!. c #E4DAC2",
"~. c #ECDCC3",
"^. c #E3DCCC",
"/. c #ECDFCA",
"(. c #E3DED4",
"). c #E0DFDC",
"_. c #EEE3CB",
"`. c #F1E3C4",
"'. c #EBE1D2",
"]. c #E3E1DE",
"[. c #E9E3D9",
"{. c #E3E3E3",
"}. c #EBEBEB",
"|. c #F1F1F1",
/* pixels */
"{.}.}.{.{.{.}.}.{.{.{.{.{.{.{.{.{.{.}.{.}.}.|.|.}.|.|.}.}.{.{.{.{.{.{.{.{.{.{.{.}.{.}.}.}.}.{.}.}.|.|.|.}.}.}.}.}.|.|.|.",
"}.{.{.{.{.{.}.{.{.{.{.{.{.{.{.{.}.{.{.}.}.}.}.}.}.}.}.|.{.}.{.{.{.{.{.{.{.{.{.{.{.}.}.}.}.}.{.{.}.}.}.|.}.|.}.}.|.|.|.|.",
"{.{.{.{.{.{.{.{.{.{.{.{.{.{.}.{.}.{.}.{.}.}.}.}.}.}.|.}.}.}.}.{.{.{.{.{.{.}.{.{.{.}.}.{.{.{.{.{.}.}.|.|.|.}.}.}.}.|.|.}.",
"{.W.{.{.{.}.{.{.{.{.{.W.{.{.{.}.{.}.{.}.{.}.}.}.}.}.}.{.{.{.{.{.{.{.{.}.{.{.{.{.{.{.}.}.}.{.{.{.}.}.}.|.}.}.}.}.}.|.|.|.",
"W.{.{.{.{.{.{.{.{.{.{.{.{.{.}.{.}.{.}.}.}.{.}.{.}.}.}.}.}.{.{.{.{.{.{.{.{.{.W.{.{.{.{.}.{.{.{.{.}.}.|.}.}.}.}.}.{.|.|.|.",
"{.).).).{.{.{.{.{.{.{.{.{.{.{.{.{.}.{.}.}.}.{.}.{.}.{.}.{.}.{.}.{.{.{.{.{.{.{.{.{.{.{.{.{.{.{.{.}.|.}.}.}.}.}.}.}.|.|.|.",
"{.{.{.{.W.{.{.{.{.{.{.{.{.{.}.}.}.}.{.{.{.}.{.{.}.}.}.{.}.{.}.{.{.{.{.{.W.{.{.W.{.W.{.{.{.{.{.{.}.|.|.}.{.}.}.{.}.}.}.|.",
"{.W.W.{.{.{.{.{.{.{.{.{.{.{.{.{.}.{.{.}.}.{.{.}.{.{.}.{.{.{.{.{.{.{.{.{.{.W.).W.W.W.W.{.{.{.W.{.}.}.|.}.}.}.}.{.{.}.|.|.",
"{.{.W.W.{.{.W.{.{.{.{.{.{.{.{.{.{.{.{.{.}.}.}.{.}.{.(.S.S.S.S.Q.E.{.{.{.).).).).W.W.W.{.{.{.W.{.{.}.|.|.}.}.}.{.{.}.|.|.",
"{.{.W.{.W.{.W.{.W.{.{.W.W.{.{.W.{.{.{.{.{.{.(.v.Q x - - y c m H H  .>.s.C.E.).W.W.W.W.W.W.).W.{.{.}.|.}.}.}.}.{.{.{.}.}.",
"W.{.{.W.{.W.W.W.W.{.{.W.{.W.W.{.{.{.{.{.].N./ J D F G [ o.o.o.o.o.[ [ [ .. .9.C.R.W.W.W.W.W.W.W.{.}.}.|.|.|.}.{.{.{.}.}.",
"{.{.{.{.{.W.W.W.W.{.W.{.W.{.{.W.W.W.).^.p.&.&.&.&.#.<.%.#.$.O.o.o.[ [ [ ` H H L 5.n.{.W.W.R.W.W.{.}.|.}.|.|.}.{.{.{.}.|.",
"{.{.{.{.W.{.W.W.{.{.{.{.W.{.{.{.W.).F.h.s.f.r.3.1.<.<.<.O.L i r r 8 r r v m I I M M 8.Y.W.W.W.W.W.{.}.}.}.|.}.}.}.}.|.|.",
"W.{.{.{.{.{.{.{.{.{.W.W.{.{.W.{.]._.J.J.J.x.e.1.1.<.O.n 8 & @ % @ & & & : : 4 c M m M *.Q.W.W.W.{.}.}.|.|.|.|.|.}.}.|.|.",
"{.{.{.W.W.{.{.{.{.{.W.W.{.W.{.).`.L.J.L.J.z.4.4.1.[ 4 o @ @ @ & & & * * > > & ; u m m m ~ W.W.W.{.}.|.|.|.|.|.|.}.}.}.}.",
"}.{.{.{.W.{.{.{.W.W.W.{.{.{.{.h.w.w.w.t.z.4.4.<.7 X o o @ @ & & & * = * , , , , $ ; n m n *.(.W.{.}.|.|.|.|.|.|.}.{.}.{.",
"}.{.}.W.W.W.W.{.W.{.{.W.{.].Z.{ { X.$.w.e.4.O.r X X O @ @ $ % * * * = * , , 7 7 , $ < n n m y.W.{.{.}.|.|.|.|.|.}.{.}.{.",
"}.}.}.{.W.W.{.W.{.{.).{.{.~.T k k B <.e.e.<.r . o O @ @ $ % % * * * , , , 7 7 7 7 , + 1 m n J S.W.{.}.}.|.|.|.|.}.}.{.}.",
"}.}.{.{.W.W.W.W.W.{.{.{.).@.a k h { z.e.e.&   X o O @ % & 2 T -.w.3.;.Y r 7 7 7 9 2 > # 1 n n E {.{.}.}.|.}.}.}.}.{.{.{.",
"}.{.{.{.{.W.W.W.{.{.{.{.V.B k k S 4.z.4.P     o O O @ , Y w.c.c.c.c.x.x.j 7 7 0 9 0 , & $ n c n Y.{.{.}.}.}.}.}.}.{.{.{.",
"}.{.{.{.).W.W.{.{.{.{.{.! k k k O.z.z.o.@   X o O @ * ,.c.c.g.t.4.e.t.x.0 9 9 0 0 9 7 , + u n c y.].{.}.}.{.}.}.}.{.{.W.",
"}.{.{.{.{.W.{.{.{.{.{./.k k k U e.z.3.1   X X O @ 5 w.c.t...0 , = 7 8 p 9 q 0 9 0 0 8 , & ; i n F I.{.{.{.}.}.}.{.{.W.W.",
"|.{.{.{.{.{.{.}.}.{.{.a.k B k ;.z.z.I X   X X O & @.c.w.Z , , , 3 9 9 9 0 q q 0 0 9 8 8 , $ r c n m.).{.{.{.}.}.{.{.W.T.",
"|.}.}.{.].].}.}.}.}.'.@.k B k e.z.z.<   . X @ O P g.x.s = = , , 3 9 0 0 0 q q 0 0 8 8 , 2 $ 2 n c 5.).{.{.}.{.}.{.W.T.T.",
"|.|.}.{.{.{.}.}.}.}.G.B B k ' x.z.3.  . o o O $ t.x.[ = = 3 3 9 9 9 q q q q q 0 0 0 0 8 8 & : c n E E.{.{.}.{.).{.W.T.T.",
"|.}.}.}.}.}.}.}.}.}.j.B B B O.z.z.Y   . o o O u x.3.0 = 3 = 3 9 0 9 q f f w q q 0 0 8 8 2 > : i n J n.{.{.{.W.W.W.W.T.T.",
"}.}.}.}.}.}.}.}.}.}.:.B B S 3.x.z.v   . o o @ Y x.[ = = = 3 9 9 0 s [ 3.{ q q q p 0 8 8 0 > & i i F M.{.{.{.W.W.{.W.W.W.",
"|.}.}.}.}.}.{.{.{.[.@.B B U t.g.2.: . o o O > ,.x.s = 3 9 9 0 C $.z.z.z.%.f q q q 8 0 0 8 , : r n F i.).{.{.W.W.W.W.W.W.",
"|.}.}.|.}.}.{.{.{./.T B B { x.x.;.X X X o % 2 t.w.p = 3 q N <.e.z.z.4.O.k p p q p r 0 8 8 2 * r n F i.).{.{.W.).W.{.{.{.",
"}.{.}.}.}.}.}.{.{.~.T C B { c.x.+.. X X O @ r t.<.0 = A %.e.t.t.e.| k e f e p q q q q q 8 , : r n m i.).{.{.{.{.}.{.{.{.",
"}.{.}.}.|.}.}.{.{.H.T S S O.x.x.[ . X O O % u z.w.#.e.z.z.z.$.S f e a C %.$.p p p q r q 0 7 = y m m v.W.{.{.{.{.{.{.{.{.",
"{.{.{.}.}.}.}.}.}.H.T B S @.c.c.[ X X O @ & Z z.z.z.z.4.O.A f e f S O.4.e.1.V p q q t q r 7 , i n F b.W.).{.W.).{.{.}.}.",
"{.{.{.{.{.}.|.}.{.~.! S S $.x.x.[ X X @ @ n w.z.z.e.-.V q q w C | z.e.z.4.O.j p p q q q r , 2 i n J b.W.W.{.{.).{.{.}.{.",
"{.{.{.{.}.}.|.}.}./.X.S S @.c.c.#.X @ @ % r 3.z.z.) 9 9 f ' 4.z.z.4.%._ j e g e f t t q q , 8 m m E U.R.W.{.).W.).).W.{.",
"W.{.W.{.}.}.}.|.{.[.@.S S O.c.c.%.X @ @ % , i ..z.O.f } <.e.e.4.<._ l g g f f j f t p t q , r m m *.R.R.W.{.W.W.W.W.W.W.",
"W.W.{.{.{.}.}.{.{.{.0.T U X.x.c.2.* O % % = = s z.w.4.e.e.z.%._ l g g g g g f ' ' j f q 0 , i M m i.W.W.W.W.W.T.T.W.T.).",
"W.W.W.{.}.{.{.{.{.{.V.{ { O.t.g.t.y % % & = 8 #.z.4.z.%.| l e h h h g h g f k 4.4.I s p 0 5 N M ` n.T.R.W.W.T.T.T.T.T.W.",
"T.W.W.{.{.{.{.{.{.{.F.@.O.O.w.c.c.H % % = = 8 %.z.4.e.O.g g h h h h g h j B O.1.O.j p q 2 s M H *.U.W.R.W.W.T.T.T.T.T.W.",
"T.T.{.{.{.{.{.{.{.).(.w.$.$.w.c.c.2.% & & = 7 ` ) %.e.4.| h h h h l h h k O.4.1.C f p 0 7 Z H M v.W.W.W.W.T.T.T.T.T.T.T.",
"R.W.W.W.{.W.W.{.W.).).G.;.<.3.c.c.x.7 = = = 7 9 9 p O.4.4.4.| _ ( C ) | 4.4.1.V j f p 8 p I I L W.W.W.W.W.W.T.T.P.T.T.W.",
"T.T.T.W.W.W.W.W.{.W.{.(.3.3.<.x.c.c.H = = 7 7 9 0 e f O.1.4.4.1.%.1.1.4.1.%.' f f j 0 0 Z I I 9.W.W.W.W.W.W.T.T.T.T.T.W.",
"T.T.T.W.W.R.{.{.W.{.{.{.l.4.w.t.c.c.e.t = 7 9 9 q q f h ] 1.4.1.1.4.4.1.| C h j j p 0 N [ I  .!.W.W.W.W.W.W.T.T.T.T.T.W.",
"T.T.T.T.T.T.W.{.W.W.W.W.^.x.e.t.z.c.c.-.8 7 9 q q e e g h l ( _ ] _ ( j l l h j p 0 N [ [ [ C.W.W.W.W.W.W.W.T.T.T.T.T.W.",
"T.T.T.T.T.T.W.W.{.W.W.W.W.A.e.4.z.x.c.z.o.8 0 q e e g g l l l z z z l l l j l a 0 p [ [ [ u.E.W.W.W.W.T.W.T.W.T.T.T.T.W.",
"W.T.R.W.T.T.W.{.{.W.W.W.).).d.%.<.z.x.x.x.N q q e f g h l l l l z z l l l h j 0 s ' } [ #.E.W.R.W.W.T.W.T.W.T.W.T.T.W.W.",
"W.W.W.W.W.T.{.W.{.W.W.{.W.).].q.} } z.z.x.t.o.f f g h l l z z z z z l l l q 0 A o.O.o.>.^.W.W.W.W.W.T.W.W.W.W.T.W.W.W.W.",
"W.W.R.W.W.W.W.{.W.{.W.W.).).].^.6.` } 3.x.x.z.<.V j h l l z z z z l l g q j ' O.o.o.q.!.W.W.W.W.W.W.W.W.W.W.W.W.W.W.W.W.",
"W.T.W.T.T.W.W.W.{.W.{.W.{.).{.).Y.6.( ` 3.x.z.z.4.} ( l z z z z l g w q ' O.%.%.#.2.(.W.{.W.W.W.W.W.W.T.W.W.W.W.W.W.W.W.",
"T.T.W.T.W.W.W.W.{.{.{.{.W.{.{.{.{.W.C. .d o.t.z.z.z.z.1.$.} ) A ' O.1.<.1.%.%.2.B.W.W.W.W.W.W.W.{.W.T.W.W.W.W.W.T.W.W.T.",
"T.T.T.T.W.T.W.W.W.{.W.{.W.{.W.{.{.{.W.R.m. .[ 2.t.z.z.e.z.e.z.4.4.1.1.1.%.4.s.I.T.W.W.W.).).).).W.W.W.W.W.W.W.T.W.W.W.W.",
"P.P.P.P.T.T.W.W.W.W.W.{.{.{.W.W.W.{.W.{.).W.n.8.s.x.z.z.4.e.e.4.4.4.4.3.d.n.R.R.T.W.W.W.W.W.W.W.W.W.W.W.W.W.W.W.T.W.W.W.",
"P.P.P.P.P.T.T.T.W.W.W.W.W.W.{.{.{.W.W.W.).).W.W.W.W.W.R.`.D.D.D.D.!.Y.W.W.T.T.R.T.T.W.R.W.W.T.T.T.T.W.W.W.W.T.T.W.W.W.W.",
"P.P.P.P.P.T.T.T.W.W.W.W.W.W.{.W.W.{.W.W.).).W.W.W.W.{.W.W.W.W.W.W.W.W.W.R.T.T.T.T.T.W.T.T.W.T.W.T.T.W.W.W.T.T.T.W.W.W.W.",
"P.P.P.P.P.T.T.T.W.W.W.T.W.W.W.W.W.W.W.W.W.W.W.W.W.W.W.W.W.T.W.W.T.W.R.R.T.T.T.T.P.P.T.T.T.T.P.T.T.T.W.T.T.T.T.T.T.W.W.W.",
"P.P.P.P.P.P.T.W.W.T.T.T.W.W.W.W.W.W.W.W.W.W.W.W.W.W.W.W.T.W.W.T.T.T.T.T.T.P.T.P.P.P.T.T.T.P.T.P.T.T.T.T.T.T.W.T.T.T.T.W.",
"P.P.P.P.P.T.T.T.T.W.T.T.W.T.W.W.W.W.R.W.W.W.W.W.W.W.W.T.T.W.W.W.W.P.T.P.T.T.T.T.P.P.W.T.T.T.T.P.T.T.T.T.T.T.T.T.T.T.T.T.",
"T.T.P.P.P.T.T.T.T.T.W.T.T.W.W.W.W.W.W.W.W.W.W.W.W.W.W.T.W.W.W.T.T.P.T.P.T.T.P.P.P.T.T.T.T.T.P.P.T.T.T.T.T.T.T.T.T.P.T.T.",
"T.T.T.T.P.P.T.W.W.T.W.W.W.W.W.W.W.W.W.W.W.W.T.W.T.W.W.W.T.W.T.T.T.T.T.T.T.T.T.T.P.P.P.T.T.P.P.P.P.T.T.T.T.T.T.T.T.T.T.T.",
"T.T.T.T.P.T.W.W.W.T.T.T.W.W.W.W.W.R.W.W.W.W.W.W.T.T.T.T.W.W.T.T.T.W.W.P.P.T.T.P.P.P.T.T.T.T.P.T.T.T.T.T.T.T.P.T.T.T.T.T.",
"T.T.T.T.T.T.W.W.W.W.W.W.W.W.W.W.T.R.R.R.T.W.W.W.T.T.T.T.T.T.W.W.T.T.W.T.T.T.P.T.P.P.T.T.T.T.T.T.W.T.W.T.T.P.P.T.T.T.T.T."
};
