/* XPM */
static char *_5964556cd4e4af6ede720e45c8e5c527EyewccdV1HIEG2x[] = {
/* columns rows colors chars-per-pixel */
"60 60 158 2 ",
"   c #000000",
".  c #0B0000",
"X  c #0B0B0B",
"o  c #140000",
"O  c #1B0000",
"+  c #101010",
"@  c gray10",
"#  c #240000",
"$  c #2B0000",
"%  c #340000",
"&  c #3C0000",
"*  c #202020",
"=  c #2D2D2D",
"-  c #3A3A3A",
";  c #440000",
":  c #4C0000",
">  c #540000",
",  c #5B0000",
"<  c #630000",
"1  c #6D0000",
"2  c #730000",
"3  c #7C0000",
"4  c #474747",
"5  c #4E4E4E",
"6  c gray35",
"7  c #626262",
"8  c #727272",
"9  c #830000",
"0  c #8D0000",
"q  c #940000",
"w  c #9B0000",
"e  c #A30000",
"r  c #AB0000",
"t  c #B40000",
"y  c #BB0000",
"u  c #B21313",
"i  c #B81414",
"p  c #B61818",
"a  c #C40000",
"s  c #CC0000",
"d  c #CD0B0B",
"f  c #CE1515",
"g  c #C71D1D",
"h  c #CE1B1B",
"j  c #D01C1C",
"k  c #CE2525",
"l  c #CE2C2C",
"z  c #D02424",
"x  c #D02D2D",
"c  c #CF3232",
"v  c #CF3C3C",
"b  c #D13333",
"n  c #D23B3B",
"m  c #D34343",
"M  c #D44C4C",
"N  c #CF5B5B",
"B  c #D45252",
"V  c #D35B5B",
"C  c #D26262",
"Z  c #DC6060",
"A  c #D56C6C",
"S  c #D96C6C",
"D  c #CF7272",
"F  c #D57474",
"G  c #DB7171",
"H  c #D67A7A",
"J  c #DE7B7B",
"K  c #8B8B8B",
"L  c #9B9B9B",
"P  c gray64",
"I  c #ACACAC",
"U  c #B7B7B7",
"Y  c gray",
"T  c #D58383",
"R  c #DA8484",
"E  c #D58E8E",
"W  c #DA8B8B",
"Q  c #D79494",
"!  c #DB9393",
"~  c #DB9C9C",
"^  c #D7A2A2",
"/  c #DAA3A3",
"(  c #D6ACAC",
")  c #DBAAAA",
"_  c #CFB1B1",
"`  c #D4B6B6",
"'  c #DAB4B4",
"]  c #D4BABA",
"[  c #DABCBC",
"{  c #E3A6A6",
"}  c #E2AAAA",
"|  c #E2B5B5",
" . c #E2BEBE",
".. c #C3C3C3",
"X. c #CECECE",
"o. c #D6C4C4",
"O. c #DBC3C3",
"+. c #D0CCCC",
"@. c #DCCBCB",
"#. c #D4D4D4",
"$. c #DCD4D4",
"%. c #DDDBDB",
"&. c #DDD9D9",
"*. c gainsboro",
"=. c #DDDDDD",
"-. c #DDDCDC",
";. c gray87",
":. c #DFDFDF",
">. c #DBDBDB",
",. c #E2C2C2",
"<. c #E2C9C9",
"1. c #E1CBCB",
"2. c #E1CECE",
"3. c #EBCFCF",
"4. c #E1D0D0",
"5. c #E7D4D4",
"6. c #E2D3D3",
"7. c #E9D6D6",
"8. c #E3D9D9",
"9. c #E1DADA",
"0. c #E0DDDD",
"q. c #E2DFDF",
"w. c #E3DCDC",
"e. c #E8DADA",
"r. c #EED8D8",
"t. c #EDDCDC",
"y. c gray88",
"u. c #E1E1E1",
"i. c #E1E0E0",
"p. c #E2E2E2",
"a. c gray89",
"s. c #E2E0E0",
"d. c #E4E4E4",
"f. c gray90",
"g. c #E6E6E6",
"h. c #E7E6E6",
"j. c #E7E7E7",
"k. c #E3E3E3",
"l. c #ECE2E2",
"z. c #E8E7E7",
"x. c gray91",
"c. c #E9E9E9",
"v. c #EAEAEA",
"b. c gray92",
"n. c #EDE8E8",
"m. c #ECECEC",
"M. c gray93",
"N. c #EEEDED",
"B. c #EEEEEE",
"V. c #EFEFEF",
"C. c #EAEAEA",
"Z. c gray94",
"A. c #F1F1F1",
"S. c gray95",
"D. c #F3F3F3",
"F. c #F4F0F0",
"G. c gray96",
"H. c #F1F1F1",
/* pixels */
"j.x.j.p.j.j.j.j.j.p.p.d.j.p.d.p.j.d.j.j.m.m.m.V.m.V.m.m.m.x.j.p.p.p.p.d.d.j.j.p.j.j.j.x.n.x.x.x.m.m.V.V.V.m.x.m.V.H.H.H.",
"j.j.j.p.p.p.j.j.j.d.p.p.d.p.p.p.d.j.j.j.x.m.m.m.m.m.m.m.x.x.j.d.p.p.j.p.d.p.p.p.j.j.x.x.x.j.j.d.m.m.m.H.m.m.x.m.m.H.H.V.",
"p.p.p.p.p.p.j.p.d.d.p.:.p.p.j.d.j.j.j.j.x.m.x.x.m.m.m.m.j.j.d.p.p.p.j.d.d.j.p.j.x.x.m.x.x.k.p.p.x.m.m.V.V.m.m.m.m.D.H.H.",
";.p.p.j.j.j.j.p.p.p.p.p.d.j.j.j.j.j.j.j.x.m.x.x.x.m.m.x.j.j.j.p.p.d.d.p.j.d.p.p.d.j.x.x.h.p.p.j.m.m.V.H.m.m.m.x.x.H.H.m.",
";.p.p.p.p.p.j.p.p.d.p.p.p.j.d.j.j.j.j.j.x.x.j.j.x.x.x.x.j.j.d.d.p.d.d.j.d.d.;.p.p.j.j.j.j.$.k.j.m.V.V.V.m.m.x.x.x.V.H.V.",
"p.;.p.;.p.p.p.j.d.j.d.p.p.p.d.j.j.j.j.j.x.x.j.j.x.m.x.x.j.j.j.d.d.d.j.d.p.p.:.p.p.p.p.j.k.A @.j.x.m.V.m.m.m.m.x.x.V.H.H.",
"p.;.p.p.p.p.p.p.:.d.d.d.p.p.j.j.j.j.j.j.x.x.j.j.x.x.x.j.j.d.j.d.p.p.d.p.p.;.;.;.;.;.;.p.5.s x ) x.V.H.x.x.x.x.x.j.m.V.H.",
"p.p.p.;.p.p.p.p.p.p.j.p.p.p.p.j.j.j.d.j.x.j.d.j.x.x.j.j.p.d.j.p.p.p.d.j.:.;.*.;.;.;.:.p.6.s d x 5.m.V.m.x.x.j.j.j.m.V.H.",
"p.p.;.p.:.p.:.:.p.d.d.p.:.p.d.d.j.j.d.j.h.j.j.j.j.j.j.d.d.d.p.p.:.p.d.d.p.;.;.;.>.>.;.;.O.s s s V r.H.m.m.x.x.j.d.x.m.V.",
"p.p.;.;.p.:.;.:.:.p.p.:.;.:.p.p.p.p.p.p.j.j.j.k.j.j.d.p.p.p.:.:.p.p.p.p.;.;.;.;.>.>.;.%./ s s s s M t.m.V.m.x.x.p.j.m.m.",
"p.p.p.;.:.;.>.;.:.:.:.p.;.q.p.;.;.;.p.p.p.k.k.j.d.j.j.p.p.:.;.:.p.:.:.q.;.;.;.>.#.>.q.%.T s a a s d J H.V.V.x.j.p.p.m.m.",
"p.p.;.p.;.;.>.*.:.:.;.p.;.p.p.p.;.;.p.:.q.p.p.k.d.j.d.p.p.;.;.;.;.;.;.;.;.;.;.;.>.>.p.$.V s q 3 s s j l.m.V.m.j.p.j.m.H.",
"p.p.p.p.p.;.*.;.p.p.;.p.p.p.p.;.;.*.;.;.;.;.p.k.p.p.p.<.' / ^ ^ / ( [ $.:.:.;.;.>.;.;.' k s <   r s s R n.F.n.x.j.x.V.H.",
"p.p.p.p.p.p.p.p.p.) O.;.p.;.;.p.p.;.;.;.*.;.;.@.~ H B x k h h h h h l m H ~ [ ;.>.#.>.Q d s >   , a s n 3.F.m.n.m.x.V.V.",
"j.p.p.p.p.j.p.d.p.b E ;.p.p.;.p.;.;.;.;.>.O.W m d s s s s s s s s s s s s d c E O.#.$.B s a %   O w s d { G.G.V.m.x.m.m.",
"j.p.j.;.;.;.p.q.! s n $.p.j.p.p.%.%.;.` C d s s s y w 3 2 < < 1 3 q r s s s s s d v v d s 9 .     > s s V G.G.F.m.x.j.x.",
"x.x.j.p.;.;.q.@.m s f ~ p.p.d.:.;.>.T c d s t q : $ O .         . o # & 9 e a s s s s s s &       % a s m D.D.H.x.j.j.j.",
"m.x.x.;.>.>.;.^ d y s M d.d.d.j.9.! d s s 0 ; .                           # , a s s s s t .       # r s x r.H.m.x.j.j.x.",
"m.x.j.p.>.>.>.V t ; y s | x.h.<.B s s q %                                     . , t s t ;         O w s j { m.m.x.j.j.d.",
"m.x.j.p.;.>.@.c 9 O w s V 5.e.M d s 2 O                                         . & w , .         O w s d ! m.m.x.j.p.p.",
"x.p.p.p.p.*.( g ,   < s d G S s a 0 .                                               .             O w s j { x.x.x.d.:.;.",
"m.j.p.p.:.;./ i %   o q s s s a < .                                                               $ t s x <.x.x.x.p.>.>.",
"m.j.j.p.q.:.E i $     % a s s 2 o                                                                 & a s n 8.x.j.j.p.>.#.",
"H.m.x.p.p.j.R u $       2 a t .                                                                   < s s B j.x.j.p.;.#.#.",
"H.m.m.x.j.j.! i &         & $                                                                   O e s d W j.p.;.;.>.#.#.",
"H.m.m.x.j.x.} g ,                                                                               , a s k  .j.;.%.;.>.#.#.",
"V.m.x.m.x.x.| j 3                                                                               r s s V 9.p.>.>.;.*.>.>.",
"m.m.m.m.m.n.q.n y                                                                             o s s s W k.q.>.>.;.;.*.;.",
"m.m.x.m.m.x.x.G s %                                                                             r s s F q.p.q.;.p.:.p.:.",
"m.x.x.m.m.x.j./ d 0 o                                                                           9 s s M 6.k.k.k.j.d.d.d.",
"x.x.x.m.m.m.x.q.S s <                                                                           , a s x [ p.p.k.j.d.d.j.",
"j.j.x.x.m.m.n.n.,.d r $                                                                         ; y s h ' p.q.p.p.d.j.x.",
"p.p.p.j.x.m.m.m.j.m s <                                                         . O O           % t s d ) p.p.;.p.j.j.j.",
":.p.p.d.x.m.m.m.x.W d 1                                                     o 1 q w w 9 >       # r s s ) p.;.;.;.;.q.p.",
":.;.;.j.x.m.m.x.h.~ f 1                                                   $ 9 e e w w w q %     # r s d / ;.;.>.>.*.>.;.",
";.*.;.d.x.x.x.j.j.) j 3                                                 O 0 s s a t w w w :     $ r s d ( ;.>.#.#.#.#.>.",
"*.>.;.d.j.j.j.d.k.O.x 9                                                 0 s s s s s a r 9 .     & t s k ` >.>.>.#.#.#.#.",
"#.>.;.d.d.d.d.d.k.6.n e                                               # a s s s s s s q $       > a s c [ >.#.#.#.>.>.#.",
"#.>.;.p.p.p.p.p.k.q.M y       . .                                   o 3 s s s s s s 0 #         1 s a M @.>.#.#.X.#.#.>.",
"#.>.>.;.;.;.;.;.;.q.R s $   o q q 2 .                               2 s s s s s w ;             w s s T >.>.#.X.X.X.>.>.",
"#.#.#.>.>.*.;.:.;.;.) h ,   # w e e < O                           > y s d t q > O             o a s d ' ;.>.#.X.X.X.#.>.",
"#.#.#.>.>.>.;.:.;.q.@.M q o . w y a a 3 o                       O y s r 1 & .                 ; s s g $.*.>.#.#.#.#.#.>.",
"#.#.#.#.#.#.;.;.;.*.;.~ s ,   < a s s s t %                   o > ; o                       O w s d F >.>.#.>.#.#.#.#.>.",
"#.#.#.#.#.#.*.;.;.>.;.@.j w O o 9 a s s s t 1 $                                             , a s c ` #.#.>.#.>.#.#.#.>.",
">.#.#.>.#.#.;.:.;.>.>.;.A d <   o < q e r r e 9 .                                         O e d s H >.>.>.#.>.#.>.>.>.>.",
">.>.>.>.>.#.;.:.:.;.;.;.$.M s %                               + 4 I ..4                   r s s V @.#.*.>.>.>.>.>.*.>.>.",
"*.>.>.>.>.>.*.:.:.:.:.;.;.) x e $                   X @ * = 7 L ....P -               . > s s f ] >.#.>.>.>.>.>.>.>.>.>.",
">.>.#.#.>.>.*.;.:.p.:.:.:.q.~ s q O                 5 P I ..:.;.U 8 L 5               : y s d H *.>.>.>.>.>.>.>.>.>.>.>.",
"#.#.#.>.>.>.>.*.:.d.p.p.:.p.p.W f t #               = #.q.p.;.Y P V.K X           . 9 a s f ! :.;.*.>.>.>.>.*.>.>.>.#.>.",
"#.#.#.#.>.#.*.*.;.:.:.p.p.:.:.9.T h w : o             6 P Y X...U 7 @           $ 2 a s d E $.;.*.>.#.>.>.>.>.>.>.>.>.>.",
"X.X.X.X.X.#.>.>.*.*.;.;.:.:.:.:.9.Q d y 2 .             + = - = +             : e s s f H >.>.*.>.>.>.>.>.>.>.#.#.*.>.>.",
"X.X.X.X.X.#.#.#.>.*.*.;.*.:.p.:.;.;.[ V d a 0 : .                       # < r s s s V ` >.$.#.#.#.>.>.>.>.>.>.#.>.>.>.>.",
"X.X.X.X.X.#.#.#.>.*.*.*.*.*.:.:.:.*.*.@.E x d y q 1 ; # # O O # $ % > 3 r a s d l D +.#.>.#.#.#.#.>.>.>.#.#.#.>.>.>.>.*.",
"X.X.X.X.X.#.#.>.>.*.>.#.>.*.;.*.:.*.*.*.q.[ H c s s s t e e e e t s s s s s h F ` X.#.#.X.#.#.#.#.#.#.>.#.#.#.#.#.>.>.*.",
"X.X.X.X.X.X.#.#.>.#.#.#.>.>.>.>.*.*.>.>.*.>.*.*.o.Q A v l l l k k l v N E ] X.#.X.X.#.#.#.#.#.#.X.#.>.#.#.#.#.#.#.#.>.*.",
"X.X.X.X.X.#.#.#.#.#.>.#.>.#.>.>.*.*.>.>.>.>.>.*.*.*.$.o.] ' ( ( ( ` ] X.X.#.#.X.X.X.#.>.X.#.#.X.#.#.#.#.#.#.#.X.#.#.#.>.",
"#.#.X.X.X.#.#.#.#.#.>.#.#.>.>.>.*.>.>.>.>.>.#.>.>.>.>.>.>.*.>.>.#.#.X.X.#.#.X.X.X.#.#.#.X.#.X.X.X.#.#.#.#.#.#.#.#.#.#.>.",
"#.#.#.#.X.X.#.>.>.>.>.#.>.>.>.>.>.>.>.*.>.>.>.>.#.>.>.#.#.>.#.#.#.#.#.#.#.#.#.#.X.X.X.#.#.#.X.X.X.#.#.>.>.#.X.#.#.#.#.#.",
"#.#.#.#.X.#.>.>.>.>.>.#.>.>.>.>.>.#.>.>.>.>.>.>.>.#.X.>.#.>.#.#.#.>.>.X.#.X.#.X.X.X.#.#.>.X.#.#.#.#.#.#.#.X.X.#.#.#.#.#.",
">.#.#.#.#.X.>.*.>.>.>.#.*.*.*.>.#.#.>.#.>.>.>.>.#.#.X.#.#.>.>.>.#.#.>.#.#.#.X.#.#.X.X.#.#.#.X.X.#.>.>.#.#.X.X.X.X.X.#.#."
};
