/* XPM */
static char *d2FsbC4_[] = {
/* columns rows colors chars-per-pixel */
"60 60 256 2 ",
"   c black",
".  c #010101",
"X  c #020202",
"o  c gray1",
"O  c #040404",
"+  c gray2",
"@  c #060606",
"#  c #070707",
"$  c gray3",
"%  c #090909",
"&  c gray4",
"*  c #0B0B0B",
"=  c #0C0C0C",
"-  c gray5",
";  c #0E0E0E",
":  c gray6",
">  c #101010",
",  c #111111",
"<  c gray7",
"1  c #131313",
"2  c gray8",
"3  c #151515",
"4  c #161616",
"5  c gray9",
"6  c #181818",
"7  c #191919",
"8  c gray10",
"9  c #1B1B1B",
"0  c gray11",
"q  c #1D1D1D",
"w  c #1E1E1E",
"e  c gray12",
"r  c #202020",
"t  c gray13",
"y  c #222222",
"u  c #232323",
"i  c gray14",
"p  c #252525",
"a  c gray15",
"s  c #272727",
"d  c #282828",
"f  c gray16",
"g  c #2A2A2A",
"h  c gray17",
"j  c #2C2C2C",
"k  c #2D2D2D",
"l  c gray18",
"z  c #2F2F2F",
"x  c gray19",
"c  c #313131",
"v  c #323232",
"b  c gray20",
"n  c #343434",
"m  c #353535",
"M  c gray21",
"N  c #373737",
"B  c gray22",
"V  c #393939",
"C  c #3A3A3A",
"Z  c gray23",
"A  c #3C3C3C",
"S  c gray24",
"D  c #3E3E3E",
"F  c #3F3F3F",
"G  c gray25",
"H  c #414141",
"J  c gray26",
"K  c #434343",
"L  c #444444",
"P  c gray27",
"I  c #464646",
"U  c gray28",
"Y  c #484848",
"T  c #494949",
"R  c gray29",
"E  c #4B4B4B",
"W  c #4C4C4C",
"Q  c gray30",
"!  c #4E4E4E",
"~  c gray31",
"^  c #505050",
"/  c #515151",
"(  c gray32",
")  c #535353",
"_  c gray33",
"`  c #555555",
"'  c #565656",
"]  c gray34",
"[  c #585858",
"{  c gray35",
"}  c #5A5A5A",
"|  c #5B5B5B",
" . c gray36",
".. c #5D5D5D",
"X. c gray37",
"o. c #5F5F5F",
"O. c #606060",
"+. c gray38",
"@. c #626262",
"#. c gray39",
"$. c #646464",
"%. c #656565",
"&. c gray40",
"*. c #676767",
"=. c #686868",
"-. c DimGray",
";. c #6A6A6A",
":. c gray42",
">. c #6C6C6C",
",. c #6D6D6D",
"<. c gray43",
"1. c #6F6F6F",
"2. c gray44",
"3. c #717171",
"4. c #727272",
"5. c gray45",
"6. c #747474",
"7. c gray46",
"8. c #767676",
"9. c #777777",
"0. c gray47",
"q. c #797979",
"w. c gray48",
"e. c #7B7B7B",
"r. c #7C7C7C",
"t. c gray49",
"y. c #7E7E7E",
"u. c gray50",
"i. c #808080",
"p. c #818181",
"a. c gray51",
"s. c #838383",
"d. c #848484",
"f. c gray52",
"g. c #868686",
"h. c gray53",
"j. c #888888",
"k. c #898989",
"l. c gray54",
"z. c #8B8B8B",
"x. c gray55",
"c. c #8D8D8D",
"v. c #8E8E8E",
"b. c gray56",
"n. c #909090",
"m. c gray57",
"M. c #929292",
"N. c #939393",
"B. c gray58",
"V. c #959595",
"C. c gray59",
"Z. c #979797",
"A. c #989898",
"S. c gray60",
"D. c #9A9A9A",
"F. c #9B9B9B",
"G. c gray61",
"H. c #9D9D9D",
"J. c gray62",
"K. c #9F9F9F",
"L. c #A0A0A0",
"P. c gray63",
"I. c #A2A2A2",
"U. c gray64",
"Y. c #A4A4A4",
"T. c #A5A5A5",
"R. c gray65",
"E. c #A7A7A7",
"W. c gray66",
"Q. c #A9A9A9",
"!. c #AAAAAA",
"~. c gray67",
"^. c #ACACAC",
"/. c gray68",
"(. c #AEAEAE",
"). c #AFAFAF",
"_. c gray69",
"`. c #B1B1B1",
"'. c #B2B2B2",
"]. c gray70",
"[. c #B4B4B4",
"{. c gray71",
"}. c #B6B6B6",
"|. c #B7B7B7",
" X c gray72",
".X c #B9B9B9",
"XX c gray73",
"oX c #BBBBBB",
"OX c #BCBCBC",
"+X c gray74",
"@X c gray",
"#X c gray75",
"$X c #C0C0C0",
"%X c #C1C1C1",
"&X c gray76",
"*X c #C3C3C3",
"=X c gray77",
"-X c #C5C5C5",
";X c #C6C6C6",
":X c gray78",
">X c #C8C8C8",
",X c gray79",
"<X c #CACACA",
"1X c #CBCBCB",
"2X c gray80",
"3X c #CDCDCD",
"4X c #CECECE",
"5X c gray81",
"6X c #D0D0D0",
"7X c gray82",
"8X c #D2D2D2",
"9X c LightGray",
"0X c gray83",
"qX c #D5D5D5",
"wX c gray84",
"eX c #D7D7D7",
"rX c #D8D8D8",
"tX c gray85",
"yX c #DADADA",
"uX c gray86",
"iX c gainsboro",
"pX c #DDDDDD",
"aX c gray87",
"sX c #DFDFDF",
"dX c gray88",
"fX c #E1E1E1",
"gX c #E2E2E2",
"hX c gray89",
"jX c #E4E4E4",
"kX c gray90",
"lX c #E6E6E6",
"zX c #E7E7E7",
"xX c gray91",
"cX c #E9E9E9",
"vX c #EAEAEA",
"bX c gray92",
"nX c #ECECEC",
"mX c gray93",
"MX c #EEEEEE",
"NX c #EFEFEF",
"BX c gray94",
"VX c #F1F1F1",
"CX c gray95",
"ZX c #F3F3F3",
"AX c #F4F4F4",
"SX c gray96",
"DX c #F6F6F6",
"FX c gray97",
"GX c #F8F8F8",
"HX c #F9F9F9",
"JX c gray98",
"KX c #FBFBFB",
"LX c gray99",
"PX c #FDFDFD",
"IX c #FEFEFE",
"UX c white",
/* pixels */
"5 4 9 9 0 6 0 0 0 w 9 q w r q u f s a e t r y i e e e u r u t t p i y y f e p p p u i h h g u d d f d d x z z g h z k f ",
"2 4 5 4 5 3 6 7 6 8 7 9 8 0 8 w y e r w r 0 0 r w 0 q t q w w w r e w w y w r e e r y u u p u u i u y i f s a u a d a y ",
"3 7 5 1 4 6 7 9 0 0 9 0 9 0 8 8 8 9 0 w r 7 8 e r q t i t y y i i u y t y p a a s g a a i g g f g g s f h d d g g g f y ",
"4 7 7 3 9 0 0 0 q w q q w e q q q 0 w 0 w 9 q e w e r y t i p d h f a a g h h f j h l x j z l l j j j x v x z x l x z g ",
"3 5 6 2 6 7 7 9 q q q q 0 q 8 0 q 0 q 0 w 9 0 q 0 w q q q r y i p i y i p p p a g f g h d h g g f s g j j j h h g l k a ",
"5 4 < 1 2 2 4 8 w q 9 7 7 q 8 7 0 w 0 9 w w 9 8 9 e 9 7 8 0 0 q q e r e w e y a i y i p p i i p d a a a d s p s s g a t ",
"3 4 7 8 9 6 q 0 0 q 9 6 7 0 8 9 q q w e r q 0 0 9 0 9 0 w p i a p s d p d p a d d d g z l j g j l k g f z x x l l c z f ",
"4 5 7 7 8 5 0 0 9 0 8 8 8 0 8 9 q q w r r w q 8 8 0 0 0 e i u p u p s a s i s d s a f h h g s h g f d f l k h h k z k s ",
"7 4 3 6 7 5 9 8 7 8 7 8 7 0 8 6 6 7 0 8 5 5 5 6 6 8 8 8 7 7 5 6 8 9 0 q r r e e y e e u t a f d a p i y y t y u t y u e ",
"5 7 7 9 0 0 9 9 8 9 0 q 9 9 q 9 9 9 w w w q e w w w w q 0 q 0 t y y u y y t u i f g h h k c M M b z x x x f g h h d a p ",
"5 6 7 9 0 w q 8 8 w w e 9 8 9 8 8 q r r t w t r r t w e w t i i s i p p p u a a g k l z k x n n c z x c z s h h h h a p ",
"3 3 6 8 7 7 8 9 9 9 8 0 9 7 8 8 8 9 9 9 0 9 w q w 0 0 9 7 0 i t w w r i t e t a s a s d g p a d f d a a p t i y p p t e ",
"6 8 8 7 6 5 6 8 9 9 7 q e q w 0 0 8 8 9 q r t r w w w e w r p u t r y y u p a a d d g f f a p p s s p a a s d d g h s y ",
"8 9 7 8 9 7 8 9 0 q 9 q w r r w r 0 9 8 e w e r r t t i t i p p i i s s s s d g h h k g g g s d s d d f g g h h l k j s ",
"7 7 6 7 8 8 8 9 0 0 7 9 9 w r q q 0 9 9 q 0 q r e r r e w y t r r t r t i i u p a p s p a p r y y u i s a a p p s d s y ",
"5 8 9 w 8 8 8 8 9 q q 9 9 w w r w 8 9 q e 0 q t y y y t r t e 7 9 9 6 7 9 0 q 9 q r y e t e r u u i g g d p a a i y t w ",
"4 6 7 0 6 8 8 7 8 0 q w q r e y y w e q w q q w q w e w w q 9 9 9 q q q u u i t u p p a g h k j j h l l h h k z k g s a ",
"5 6 8 0 7 8 7 7 8 0 0 q w e e e r q w q w r q 0 q w e e w w r w 0 w e t u p i u i p p p g j l k j g h g g j h k h f s p ",
"7 8 0 w 8 7 5 7 0 q 9 q 0 0 q 8 0 w 0 9 9 t r r e w t r e e r 0 8 8 8 e w q q w e w q w y r w y a p t r y i r e w e e 0 ",
"7 8 4 4 3 8 9 7 6 8 q 9 0 0 q 0 0 q 0 q 0 q w w r u y y y q q w e r r r u y i s s a i s f s p j z z h s h h g p a f d u ",
"7 9 3 4 4 0 8 6 7 8 q 9 q q q 0 0 0 0 q 0 0 q w r y y y r w w e q y i p a u p d s i u d d f i h k z j d g h g f s h f u ",
"8 9 7 8 8 q 0 9 7 8 7 8 9 q r q 9 8 9 8 8 8 0 8 9 0 q w r w q w w q q q w e w e t e q w r t e e e r u u u i i i t t r r ",
"4 7 0 y q 0 0 0 0 8 8 9 r w w 0 q e q 0 q 9 e e w q 9 w r y t t y t t r p a a s p a i i p p u y t e y u p i a s p t e t ",
"2 5 8 r 8 6 5 9 q 7 7 8 e 9 9 9 w r q w w 8 w r y r 8 r t u w r y u u y g k j j s d f g f p a a a y i i p p a d s u w e ",
"2 3 6 w 7 6 5 9 9 7 7 9 y 0 9 0 r r 9 8 8 7 9 q w q 8 w e e 9 q e q w r u u i s y y y i a r t t i t t t t u r u u t q 8 ",
"8 9 6 0 9 e w w q w y t y r y y u u w 9 w w w w q 0 e r q u i u e 9 0 0 9 t t p y t r e t r r y p p i i y i u g s d p w ",
"6 9 6 8 9 w 0 0 9 0 r q 0 q w q q w w w r y t t w q e t w a a a t q r e e s a d a s f u u y y y u i p a s s s g a g f y ",
"6 8 5 7 9 q 0 9 8 0 e 9 9 0 q q q w e r e r t e 0 q w r 0 u u y e 8 e w q p u i i a s y t t u t t t y i i i u s p s a r ",
"6 9 9 e u a y q w r r w r y u u u u u t y i p i y i t u u d a y p u u 0 9 w e i p p y e y u i u a a p d a s y i p i u 0 ",
", < 1 6 4 6 6 9 q 6 8 8 w 8 8 8 0 w 9 0 0 r w w e e 8 e w e q q w w w 8 0 q 0 y r r t t y t w e i i t y y h a a s a u e ",
", < 1 0 4 7 7 9 9 7 9 9 w 8 0 q w w 9 0 0 q q q e w 7 e w w 9 q q q q 4 9 0 9 t r q e e 9 w q q y i t t r d a a s d u w ",
"2 5 6 q q 0 0 q q e r w e 0 q t e w w q 0 q w t t e e i r i t e e t e w u i u i w 8 0 q w q q q i p p i d g a i i s p 7 ",
"6 8 1 3 3 6 0 9 8 q q 6 7 7 5 9 9 0 0 8 9 q 0 q w w e e 0 t u y u t y r y u u y r t t r r e e t u i u u p u y u p p i q ",
"7 5 < 1 1 2 6 5 5 7 7 5 5 7 6 8 8 9 0 q 8 9 0 7 7 q 0 0 8 r t y e q r r e y e w w e e r r w q e e y r r r e w y y i y q ",
"3 2 1 1 2 4 0 9 7 7 6 8 9 9 w q 9 9 9 9 8 9 0 7 7 0 0 q q e t y 0 5 0 9 9 q 8 8 0 0 w q 0 8 7 8 8 0 q q q w e t t t i q ",
", < 2 7 4 7 9 9 8 7 0 q t 0 0 9 8 8 q w q q e e q q q r t r i y e q w 9 0 0 8 e u e t y p e w w e y y t y y s d a y a u ",
": > , 7 2 2 1 3 5 6 8 8 w 5 6 7 6 8 q w w w q w q 9 9 w r w t w q w w 0 0 0 0 y y w e e i r e r p p u y y e r y r r r 0 ",
"> : < 9 2 1 1 2 5 3 6 6 8 3 4 5 6 9 0 q w q 9 0 9 7 7 q q 0 t 0 9 9 7 7 8 8 6 e 0 7 8 9 e 0 0 9 y r w w w q w e e w q 6 ",
"2 3 4 7 4 5 5 6 7 6 9 9 6 4 6 6 9 w 9 w e 0 7 q 0 8 9 e t e e e 8 5 6 8 e q 9 9 7 7 q 0 0 8 w q w q w r y y t r r t e 8 ",
", 4 1 1 3 7 3 2 3 4 6 3 4 6 9 7 4 5 5 7 8 9 9 w e w e q r r y y e 0 q q q 9 q q 0 w w q q w u w w e r y y u u y w e w 8 ",
"2 5 , 2 3 w 5 1 2 3 6 1 3 5 8 5 3 5 4 4 5 7 8 9 9 9 0 9 r w e e 0 7 8 9 9 8 9 9 9 w e 9 8 8 u 0 0 0 w t w r e r 0 0 0 7 ",
"8 8 7 9 0 u e 7 4 7 0 0 7 5 7 9 9 8 q q r y i i q 0 8 6 6 4 6 7 6 6 8 9 9 w e r e y y 0 8 9 e q e e e e 9 w u i r w w 9 ",
"4 4 5 9 4 3 3 3 5 4 8 7 8 4 4 6 8 9 7 8 8 e q w q q q q 0 9 e q 0 0 q t w e r i q 9 9 7 q w e e p i e e e r u u y p e 6 ",
"4 5 5 0 3 2 2 3 6 6 6 6 8 4 4 5 6 7 5 6 6 0 8 9 0 w w e w q w 0 9 9 9 q 0 0 q u 0 6 7 7 q q w q u r q w w e r r r y 0 4 ",
"3 3 6 e 5 3 2 3 3 1 4 4 9 6 6 7 5 4 4 9 8 9 8 7 8 9 8 q w 0 r q 0 6 6 5 6 6 9 y e 8 8 9 0 8 8 7 q 9 7 9 9 w 0 q 0 q 7 2 ",
"2 5 3 5 3 4 5 5 5 3 6 6 7 8 w 0 5 5 6 9 q 0 0 7 8 9 9 0 e w e w q 6 7 6 7 0 0 w e e w r e e 9 0 w w e w w q q y t w w 6 ",
"1 3 2 2 < 3 5 6 6 4 5 6 8 9 0 7 6 7 6 5 9 q q 0 8 9 0 0 0 w w e w 0 0 9 8 w 0 w w e r t y t w q w e e q q q q y r w w 6 ",
"< 3 1 1 , 1 2 2 2 2 4 4 5 7 q 7 4 5 4 2 7 8 8 9 7 8 9 9 8 8 8 q e 9 7 7 7 8 7 8 8 q w w q q 0 7 8 0 q 9 7 8 9 t q 9 7 3 ",
": < 1 8 5 3 3 4 5 3 4 5 8 9 9 8 7 8 8 6 0 q 9 0 0 e t e q q w w e q 9 8 7 6 7 8 0 r w 0 w q w 9 q w r w q y r y r e r q ",
": , 1 7 3 3 3 5 6 5 5 4 9 7 6 5 6 7 7 7 9 r 0 0 w 0 w r t e y r e t t t 9 9 9 r t w w e p e e w i u e r w y r t r t y q ",
"> , , 8 2 2 2 5 6 4 4 2 8 4 4 3 5 5 6 5 8 w 8 0 w 0 w 0 q q e q q w w e 6 7 6 e e 0 0 q y 0 0 0 p u q q 0 t q r w e e 8 ",
"4 3 5 5 1 2 4 7 8 8 7 7 q 7 0 0 9 8 7 5 6 0 0 e e r w 9 e q 0 8 7 9 9 w 9 8 6 q 0 9 8 9 q 9 9 9 t e w w q y w e e w 9 4 ",
"1 3 > , , 2 2 2 1 1 6 4 6 5 7 7 6 6 6 8 5 6 7 9 9 6 5 7 w 8 9 9 8 9 9 8 7 e 8 7 8 0 7 7 7 8 e 9 9 0 q q 7 7 7 w 0 7 5 < ",
"3 4 > , : 1 1 1 2 1 6 7 7 5 8 7 5 5 6 8 5 5 7 0 9 6 6 7 q 9 9 q 9 9 9 8 8 w 7 7 8 9 8 7 7 9 w 9 9 9 q w 7 8 8 w 9 7 6 1 ",
"6 9 5 6 2 4 3 4 7 9 e r w w r 4 4 8 7 7 8 7 8 t e 9 5 8 r r w q t 7 5 4 6 q 5 5 6 9 0 7 8 7 0 9 9 9 0 r 9 9 0 u e 0 7 3 ",
"< 1 1 q 6 8 8 8 9 5 6 8 e 8 8 6 9 e 0 w 0 w 9 7 7 7 q e t r y t y e e w 7 9 8 r q 0 0 q p w e e y q 8 9 0 e 0 q 0 y t 4 ",
", < 2 8 7 8 6 0 7 2 4 4 e 5 6 6 8 e r t 0 y e 8 4 4 0 w r q r e r r e e 8 9 0 y q 0 0 q p e w q u q 8 9 9 r q 0 9 y t 5 ",
"2 3 < 8 9 7 8 w 9 6 7 8 e 5 5 6 8 0 7 7 9 r q 7 7 6 8 8 8 9 q 0 9 9 9 q 7 7 8 r 0 7 8 0 t 8 7 7 w 0 7 8 9 e 9 9 8 q 9 3 ",
"4 q 4 6 8 0 e t w t r q 9 5 8 q q 9 7 8 7 e w 0 w w 9 8 w 8 w q 0 5 4 7 6 q 8 8 8 w w 8 8 5 q 7 8 9 0 r q w w 0 0 0 8 3 ",
"< 8 4 4 5 7 0 w 9 q 0 7 7 5 0 e w w w t 9 q 0 0 9 5 5 7 0 8 0 0 w 0 8 9 0 t 9 8 9 r r 8 7 8 y 9 8 8 0 e 9 8 8 9 9 9 6 1 "
};
