/* XPM */
static char *_d3f76228b864a53ca406c20ed2b02333O9tlis2PWI07OhW[] = {
/* columns rows colors chars-per-pixel */
"60 60 60 1 ",
"  c #FF8700",
". c #FF8800",
"X c DarkOrange",
"o c #FF9000",
"O c #FF9500",
"+ c #FF9A00",
"@ c #FF9E00",
"# c #FFA300",
"$ c orange",
"% c #FFAA00",
"& c #FFAE00",
"* c #FFB300",
"= c #FFB502",
"- c #FEB405",
"; c #FFB900",
": c #FFBD00",
"> c #FEB608",
", c #FDB70F",
"< c #FDB710",
"1 c #FCB814",
"2 c #FCB918",
"3 c #FBBA1D",
"4 c #FBBB22",
"5 c #FABC26",
"6 c #FABC28",
"7 c #FABD2A",
"8 c #F9BD2C",
"9 c #F9BE30",
"0 c #F8BE33",
"q c #F8BF35",
"w c #F8BF37",
"e c #FFC100",
"r c #FFC500",
"t c #FFC800",
"y c #FFCF00",
"u c #FFD300",
"i c gold",
"p c #FFDB00",
"a c #FFDF00",
"s c #FFE000",
"d c #F7C03B",
"f c #F7C03D",
"g c #F8C038",
"h c #F7C141",
"j c #F6C246",
"k c #F6C34A",
"l c #F5C44E",
"z c #F5C552",
"x c #F4C554",
"c c #F3C65B",
"v c #F3C75E",
"b c #F3C861",
"n c #F2C864",
"m c #F1C96A",
"M c #EFCE7E",
"N c #EED087",
"B c #EDD08C",
"V c #D1CFCA",
"C c gray88",
"Z c #E2E2E2",
/* pixels */
"ZZZZZZZZZZZZZZZZZZZZZZZZ=*=*=*=*=*=*ZZZZZZZZZZZZZZZZZZZZZZZZ",
"ZZZZZZZZZZZZZZZZZZZZ5-=**=*=*=*=*=*===>4ZZZZZZZZZZZZZZZZZZZZ",
"ZZZZZZZZZZZZZZZZZ6*=*=*==*=*=*=*=*=**=*=-18ZZZZZZZZZZZZZZZZZ",
"ZZZZZZZZZZZZZZZ5=*=*=*=**=*=*=*=*=*==*=*=*=1qZZZZZZZZZZZZZZZ",
"ZZZZZZZZZZZZZ5=**=*=*=*==*=*=*=*=*=*=*=*=*=*=16ZZZZZZZZZZZZZ",
"ZZZZZZZZZZZZ,=*==*=*=*=**=*=*=*=*=*=*=*=*=*=*==3ZZZZZZZZZZZZ",
"ZZZZZZZZZZ6=*==**=*=*=*==*==*==*=**==*=*=*=*=*=*24ZZZZZZZZZZ",
"ZZZZZZZZZ4=*=**==*=*=*=***===;;===***=*=*=*=*=*=*=2ZZZZZZZZZ",
"ZZZZZZZZ6*=*=*=**=*==*==etyuiiiiuyte;***=*=*=*=**==3ZZZZZZZZ",
"ZZZZZZZ9*=*=*=*==*===eyiasaaaaaaaasaiye=*=*=*=*==**=4ZZZZZZZ",
"ZZZZZZq==*=*=*=**==euaaaapappaaaapaaaapue====*=*=*=*=5ZZZZZZ",
"ZZZZZZ8=*=*=*=*==;ypaaapaaaaaaaaaapaaaaaau;=*=*=*=*=*4ZZZZZZ",
"ZZZZZg=*=*=*=**=riaaaapaaapp=&&&:aapaaaaaaie===*=*=*==4ZZZZZ",
"ZZZZh==**=*=*==taaaaapaapaaiO.. $aaapapapaaat===*=*==*=4ZZZZ",
"ZZZZg=*==*=*==taaapaaaaaaaai+...$aapaaapaaaapt===*=**=*3ZZZZ",
"ZZZf>*=**=*==taaapaaapapaaai+.X.#ppaaaaapapaaat=*=*==*==3ZZZ",
"ZZZq*=*==*==epaapapapaaaaue&XX.Xo@$&=tpaapaaaape=*=**=*=2ZZZ",
"ZZf-=*=**=*;ppapaaaaaaai=OX.X.X.X....otsaapaapai;=*==*=**2ZZ",
"ZZ5=*=*==*=uaaaaaapaaau#..X..X.XX.X..Xrsaaaaaaaau==**=*==<ZZ",
"ZZ3*=*=*=*epaaapapaaai@..X.XX.X..X.XXXrspapaapaaae**=*=*=-ZZ",
"Z6==*=*=*=iaaapapaapa&.XX.X..X...X.X.Xraaaapaaapau=**=*=*=*Z",
"Z5*==*=**epaapaaaaaayo...X.XX.oOoX..XXrapaaapaaaaae*=*=*=*=Z",
"Z5=**=*=*yaaaaaapapa:..XX.X.X&uuyr=@oXrsapapapapaay**=*=*=*Z",
"Z3*==*===iaaapapaaaa*.X..X..+iaaaasat%raaaaaaaaaaai;=*=*=*=Z",
"3-=*=*=*eaaapaaaapap&XX.X.X.Ouaaaaaaappaaaaaaaaaaaae**=**=*=",
"*=*=*=**taaaaaapaaaa*..X.X.XX$yaaaapaaaapapapapaapat***==*=*",
"=*=*=*=*yaaapapaapaa;.X.X.X.X.o*ypaaaaaaaaapaaapaaay=*=**=*=",
"*=*=*===uapaaaaaaaaauO...X.X....X%raapappaaapaaaapau==*==*=*",
"=*=*=*==iaapapapaaapp&...X.XX.X.X.o*uaaaapaaapapaaai==*=*=*=",
"*=*=*==;ipaaaaaapaaaau# X.X..X.X.XX.@yaaaapaaaaapaai;==*=*=*",
"=*=*=**;iaapapaaapapaau#..XXX.X.X.X..+uaaaaaapaaaaai==*=*=*=",
"*=*=*===iaaaaapaaaaaaaap=O...X.X.X.X..%ppapaaapapaai;*=*=*=*",
"=*=*=*==iapaaaaaapapaapaay*+X..X.X.XX.oyaaapapaaaaau=**=*=*=",
"*=*=*=*=yaaaapapaaaapaaaaaai:@X.X.X..X.:aaaaaapaapay=*=*=*=*",
"*==*=*=*rsaapaaaapaappaaaaaaai%..X.XX..*apapaaaaaasr*=*=*=*=",
"4>*=*=**esapaaapaapar$taapaaasrXX.X....&aaaapapaaase**=*=*=*",
"Z8=*=*=*=iaaaaaaaaparXo&tpaass:X.X.X.X.=aaaaapaaaai=*=*=*==Z",
"Zq*=*=*==yaaapapapaarX..X@*:e=O.X.X.X..raapaaapaaay*=*=*=**Z",
"Zf-==*=**epapaaaaaasrX.X..X....X.X.X..#papapaaaaape**=*=*=*Z",
"Zw-=*=*===uaaaapaaasrXX.X..X.XX.X.X..oesaaaapapaai=*=*=*=*=Z",
"ZZ9**=*=**eaaaapapaaeX.X.X.XX.X.XX..X;paapaaaaapae*=*=*==*ZZ",
"ZZh==*=**==uaaaaaaaarX..X.X..X.X...Oepaaaapapaaau=**=*=**-ZZ",
"ZZn>*=*==*=;iaapapaap;@oX...X.X.X@=uaaapaaaaaaai;=*=*=*==1ZZ",
"ZZZq=*=**=*=epaaaapaaapur;*%oXX.#paaaaaapapapaae=*=*=*=*3ZZZ",
"ZZZc-===*=*==taaapapapaasaaiO...$apaapappapaaat=*=*==*==3ZZZ",
"ZZZZj==*=*=*==taaaaaaaapaaai+.X.%aaaaaaaaaaapt===*=**=*4ZZZZ",
"ZZZZc-*=*=*=*==taaapapaaaaaiO.. $apaapaaaaapt==**=*==*=4ZZZZ",
"ZZZZZz-*=*=*=*==eiaaaaapapap=&&%:paaaapapapr==*==*=*==5ZZZZZ",
"ZZZZZZl=*=*=*=*=*:uaaaaapaaaaaaaaaaapaaaau;=*=*=*=*=*5ZZZZZZ",
"ZZZZZZn==*=*=*=*=*=eupaaaaapaaaapaaaaapue==*=*=*=*=*=3ZZZZZZ",
"ZZZZZZZM-=*=*=*=*=**=eyiaaaapaaaaaaapy:=***=*=*=*=*=5ZZZZZZZ",
"ZZZZZZZZN====*=*=*=*=*==etyiiiiiuyte=*===*=*=*=*=*=4ZZZZZZZZ",
"ZZZZZZZZZB=-*=*=*=*=*=*=**===;;===**==*=*=*==*=***5ZZZZZZZZZ",
"ZZZZZZZZZZcm-*=*=*=*=*=**=*==*===*=*=*=*=*=**=*=53ZZZZZZZZZZ",
"ZZZZZZZZZZZZM=*=*=*=*=*==*=*=*=**=*=*=*=*=*==*=4ZZZZZZZZZZZZ",
"ZZZZZZZZZZZZZbx==*=*=*=**=*=*=*==*=*=*=*=*=*=22ZZZZZZZZZZZZZ",
"ZZZZZZZZZZZZZZZk9=*=*=*=*=*==*=**=*=*=*=**=>1ZZZZZZZZZZZZZZZ",
"ZZZZZZZZZZZZZZZZZq83=*=*=*=**=*==*=*=*=*==<ZZZZZZZZZZZZZZZZZ",
"ZZZZZZZZZZZZZZZZZZZZ52<>*=*==*=**=*=*==*VZZZZZZZZZZZZZZZZZZZ",
"ZZZZZZZZZZZZZZZZZZZZZZZZ-*=**=*==*=*ZZZZZZZZZZZZZZZZZZZZZZZZ"
};
