/* XPM */
static char *Y29sLg__[] = {
/* columns rows colors chars-per-pixel */
"60 60 248 2 ",
"   c #020207",
".  c #303137",
"X  c #4F3E34",
"o  c #76532D",
"O  c #4A4937",
"+  c #3A3A46",
"@  c #3F4044",
"#  c #454549",
"$  c #59584B",
"%  c #494A55",
"&  c #4C535B",
"*  c #53535D",
"=  c #595658",
"-  c #564A4A",
";  c #665B4B",
":  c #645D56",
">  c #725F4E",
",  c #596252",
"<  c #676858",
"1  c #766455",
"2  c #726C55",
"3  c #5A5A62",
"4  c #575966",
"5  c #4E4E63",
"6  c #635D68",
"7  c #5C6269",
"8  c #57646A",
"9  c #64646D",
"0  c #666968",
"q  c #736C67",
"w  c #6C746B",
"e  c #787667",
"r  c #656672",
"t  c #6B6B74",
"y  c #686978",
"u  c #726E7A",
"i  c #6C7278",
"p  c #727475",
"a  c #74757D",
"s  c #7A7A7C",
"d  c #787B7A",
"f  c #867058",
"g  c #837765",
"h  c #837D77",
"j  c #856F63",
"k  c #7C8377",
"l  c #7D806D",
"z  c #868479",
"x  c #968A7D",
"c  c #97947B",
"v  c #AB9576",
"b  c #9F815F",
"n  c #737581",
"m  c #757B84",
"M  c #7B7C84",
"N  c #7D7D8B",
"B  c #767A8A",
"V  c #717487",
"C  c #827E89",
"Z  c #857E99",
"A  c #7E828B",
"S  c #7C8383",
"D  c #7D8592",
"F  c #7F83A6",
"G  c #838383",
"H  c #8A8B84",
"J  c #83838C",
"K  c #848A8B",
"L  c #8A8B8D",
"P  c #898687",
"I  c #938C88",
"U  c #8C938A",
"Y  c #92938C",
"T  c #979889",
"R  c #848592",
"E  c #848A93",
"W  c #8B8B94",
"Q  c #8B8D9A",
"!  c #868A9A",
"~  c #938D96",
"^  c #8D9294",
"/  c #8D939C",
"(  c #88939B",
")  c #929395",
"_  c #9C9C94",
"`  c #93949B",
"'  c #959A9C",
"]  c #9A9C9C",
"[  c #989896",
"{  c #A39A96",
"}  c #A69986",
"|  c #9DA29C",
" . c #99A496",
".. c #9FA08E",
"X. c #A3A49D",
"o. c #A8A798",
"O. c #B5AA98",
"+. c #B4B29A",
"@. c #B0AD93",
"#. c #8C8DA2",
"$. c #8E94A2",
"%. c #9394A2",
"&. c #959BA3",
"*. c #9B9BA4",
"=. c #9C9DAA",
"-. c #9797A7",
";. c #989AB4",
":. c #A29CA6",
">. c #9CA3A4",
",. c #9CA3AC",
"<. c #9AA7A7",
"1. c #9CA3B2",
"2. c #9CA8B5",
"3. c #A3A4A4",
"4. c #A5AAA4",
"5. c #AAAAA4",
"6. c #A3A4AB",
"7. c #A5AAAC",
"8. c #AAABAC",
"9. c #ABA4A6",
"0. c #B3ACAB",
"q. c #B4ACA4",
"w. c #ADB2AC",
"e. c #A9B2A6",
"r. c #B3B2A5",
"t. c #B3B3AB",
"y. c #BDB5AC",
"u. c #BABBAD",
"i. c #B9B7A6",
"p. c #A3A5B3",
"a. c #A5ABB4",
"s. c #ABACB4",
"d. c #A5ACBA",
"f. c #ABACBB",
"g. c #A7A5B6",
"h. c #B1ADB5",
"j. c #B2AEBD",
"k. c #ADB2B4",
"l. c #ACB2BC",
"z. c #A8B4B6",
"x. c #B3B3B4",
"c. c #BBBCB4",
"v. c #B3B4BC",
"b. c #B4BABD",
"n. c #BBBCBC",
"m. c #B7B7B7",
"M. c #C4B79C",
"N. c #D1BC9D",
"B. c #C5BBA9",
"V. c #C2BDB3",
"C. c #C4BCB8",
"Z. c #D7BDAE",
"A. c #BCC2BC",
"S. c #B8C2BC",
"D. c #BDC2AD",
"F. c #C9C4AB",
"G. c #C3C5B3",
"H. c #C3C4BB",
"J. c #CACBBC",
"K. c #C8C8BB",
"L. c #D2CBBB",
"P. c #D7D4BC",
"I. c #D0CBB3",
"U. c #ACADC4",
"Y. c #ADB4C2",
"T. c #AEB8C6",
"R. c #B4B5C3",
"E. c #B5BBC4",
"W. c #BABCC4",
"Q. c #B4BCCA",
"!. c #BBBDCB",
"~. c #B8B4C8",
"^. c #B9B6CE",
"/. c #A29EC3",
"(. c #C1BDC8",
"). c #C3BCDB",
"_. c #C3BFE0",
"`. c #BCC2C4",
"'. c #BCC2CB",
"]. c #BAC6C6",
"[. c #BCC4D3",
"{. c #BDC7D5",
"}. c #BED1CB",
"|. c #C2C4C4",
" X c #C4CAC4",
".X c #CBCCC3",
"XX c #C3C4CB",
"oX c #C4CACC",
"OX c #CBCCCB",
"+X c #C9C5CA",
"@X c #D2CCC6",
"#X c #CCD2CC",
"$X c #CBD2C4",
"%X c #D3D3CC",
"&X c #D6D8C9",
"*X c #C3C5D3",
"=X c #CAC6D4",
"-X c #C4CAD4",
";X c #CACCD4",
":X c #C6CADA",
">X c #CBCDDA",
",X c #C4C6DA",
"<X c #D2CDD7",
"1X c #CDD3D4",
"2X c #CCD2DC",
"3X c #C9D4D8",
"4X c #D3D4D4",
"5X c #D5DBD4",
"6X c #D3D4DC",
"7X c #D3DADD",
"8X c #DADCDB",
"9X c #DADAD5",
"0X c #E2D6CF",
"qX c #DDE4DC",
"wX c #DCE2D6",
"eX c #DCE0CF",
"rX c #E2E4DD",
"tX c #EAEADD",
"yX c #E4E7D9",
"uX c #CDD3E3",
"iX c #D2D5E4",
"pX c #D5DCE5",
"aX c #DBDCE3",
"sX c #D5DBEA",
"dX c #DBDCEA",
"fX c #D7D6E5",
"gX c #DBDCF4",
"hX c #C9C8E7",
"jX c #E1DEF0",
"kX c #DCE3E3",
"lX c #DBE1EB",
"zX c #D7E8F2",
"xX c #E1E5E2",
"cX c #E5EAE3",
"vX c #EAEBE4",
"bX c #E3E4EB",
"nX c #EAEDEA",
"mX c #E5E9EB",
"MX c #ECF2E9",
"NX c #F4F6E8",
"BX c #E6EAF5",
"VX c #EEF4F8",
"CX c #F3F5F3",
"ZX c #F6FDF4",
"AX c #FBFEF5",
"SX c #FCFEFB",
"DX c #F5F8FA",
"FX c #F0ECEC",
/* pixels */
"F #.i.B.@.M.B.+XhXhXzX}.{.uXh.:.W.2.1.V <.].].].3Xb.4XW.b.v.n.n.8.6.lX'.9 D [.Y.D 2.<.<.b.S K kX`.,.S i J Y d h e { c.&X",
";.p.K.F.B.P.P.<XgXzXhX{.pXuXj.m.j.[.:X2.z.<.D <.z.oXmX7X;X7Xs.6.>.7.W.iX2.].lXT.].d.{.{.#X0 ) | &.m S J 3.4.H U { J.tXtX",
"U.{.8XF.M.I.Z.(.hX,XD D }.`.5.n.pX3X2.( &.D  .S.7.w.>.b.-XbXJ ^ k.k.* y ,.Q.2X[.T.'.<.lXl.p ) 7.&.i / f.8X|.0.5.[ r.0XtX",
"#.hXxXL.v j { fXpXBXT.2.7. .H.DXSXkX .<.S.<.<. . .z.>.7.8.k.0 f.8.3.7 * E &.T.d.d.].&.<.k.= ] 8Xk.i 0 x.4XC.t.T 1 < o.yX",
";.jX4XyX@.; o.<X2X`.( ( o.D.FXCXCXMXS.#XqXA.e. .S.MXMX3X].^ t b.6.) &.7 & 8 ,.,.}.pXb.E.L 0 p OX(.u . ~ C.:.q.I ; ; _ yX",
";.:.p u.P.@.j.:.8.>.-.<.o.u.NXSXCXNXJ.J.5XeXS.e.cXMXZXVXkX8 i ].6.|.pX6.'.,.&.z.}.2.DX].].7 X.>.h.h . I C.[ V.O.h T J.tX",
"Z 4 # I I.F.(.:.k.7.<.4.+. .X.u.AXNX&XD.G.&Xc l e.wXDXDXS.+ ( 7Xl.XX&.,.1Xb.] b.7.8.1XcX1X6.|.6.C : 6 I 0.q { y.O.u.@X&X",
"U.;.n.K.+.o.h.(.K w.5XJ.+.l < $XNXNXP.@.o.G.c k l cXZXcX2.k 3X2.7.M S mX7.8.`.) k.kXb.kXxX XOXb.6 - { C 9.- q y.q.r.q.G.",
").j.:.< G.AX8.] f.8XtXG.+.e U tXtXeXyX .T &XG.l  .ZXZXwX<.<.7.}.E @ m ) b.3.w.w.CXMX4X X#X1X' x.:.= q 9.{ - h y.K.{ z o.",
"Z g.X.T $Xz. .d ).aXB.O.&Xu.G.wXeXG.D.o.l G.G.eXtXcXcXqX4.S.qXkXE N # E 7.c.H cXAXyXqX#XA.3.6.`.a ~ u ~ h.e 6 1 { { G H ",
"U.W.c.k b.b. .i V =XP.@.L.G.H.A.r.i.J.u.e G.$XJ.tXcXcXA.H A.kX}.Q ( E 7.] Y w.SXNXFXAXrXb.) b.v.9.W.~ 0.(.I H 0.t.|.c.c.",
"<X<X#X< z.7XS.8 + 9.B.g o.OXb.) ' wXJ.7 U J.5.e.$X$X$XS. .^ | 1X=.6.' a x.z r.D.u.NXSXyXOXk.].*.XX<X=Xj.[ x.x.t.{ 8X4X{ ",
").FXH.0 <.].zXm 5 :.Z.; j m.XX>XaXW.6X8.K x.x.H U c..XY H 5.5.5.7.=./ [ s  .u.2 e &XtXyX5XoXb.7.'.E.3Xk.L 7.p 0 = m.8.. ",
"-.(.x.0  .z.2.V ~ ~ Z.h 0.0X-X!.2.` l.-X) 1X4X5X XY 5._ 3.c.m.5.n '.,.3.u.D.z e e P.eXwX.Xn.,.'.2XQ.{.z.*.^ = 3.) ) 0   ",
"t Z B.=  .}.V 5 ~ :.0X0XL.u.[.d.uXd.R.p.% / m.m.%XH..Xz o.wX%X5.*.A *.n.4XK.T 2 o.L.9XG.w.8.7.'.[.3XpX2./ ] a.XXaX) =   ",
"Z (.g.# S }.{.d.9.C.9.C.B.y.bX! uXiX*XE L E z n.X.H.0.$ Y r.T m.-XN k.mX|.c.u.u.V.c.&X_ ) v.'.l.[.<.Y.3X<.m s.A ;Xf.S   ",
"[.bXhX( -.-X:X=.6.C.OX[ .XNXqXn.W.W.8X4Xt._ i.< q @XC.z 4.Y 9X.XK <.].`.#Xl.XX`.8.n.M [ XXOXv.6X*.% M =X6.W g.*.v.-.#.y ",
"uXsXiX!.$.1.,.! '.s.3.m.SXAXAX&X|.bXrXt.i.NXo.$ h 9XC.:.w c.ZXu.7 y 2.T.&.].W.oX<Xv.=.R.W.*XR.W.[ % s *XW.*.*.%.9 d.d.r ",
">XsX2.,.a.'.a.E.s.>.s.vXSXyXNXcXb.oXDXt.C.u.q.[ 8.C.L 9.P w.m.K }.8 ( {.l.`.a M s.W.dX8X=.:.(.bX=X` x.aXfXh.N N 6 Z n y ",
"! a.E.'.A s.f.' >.] x.vXAXZXAXZXdXs.E.(.OX0.vXc.OXL :.6X) r #X7Xz.d S.7.].BX'./ a n M n.*X` *.<Xh.` :.=.g.:.n %.!.D y p.",
"7XVXz.' ' oX&.^ *.*.8.4.5.MXAXnX>X*X=.*X&.4XmX(.` 6.R.(.*Xr -.pXoXb.|.7.7XVXpX7.W.E.t t *.6.=X:.. 3 J t 9 y t ` j.*.W %.",
"A.}.#X5X4.v.k.' 6.k.7.p p 5XvXxXBX>X=.,.R.SXW.*.R.j.XXbX:X,.2.2.`.7.L qXSXSXkX7Xv.p M mX<Xn -.u Q W 9 4 N s.a.L R.=X:.M ",
"qXqXoX#XkXcX1X7X X`.) P 7.CXCX8XoX'.3XY.R.!.g.f.*.h.*.a.1.-.1.>X^ 8.n.ZXVXCXVXkXl.0 / aX6Xj.(.J B >.z.oX*XOX6X*.W.XX,.s ",
"ZXZXZXZXxX#XA.k.6.W.) 7.3.] Y L / >./ a.B Q s.s ) :.a.7.1.!.{.( m.H n.CXZXxXSXVX1X*.k.E *.g.%.M 8.^ 9 K ] v.kX*.[ 6.R.] ",
"MXZXZXcXMXqX].S.) J ) 3.^ 3.h.p <.MX7.-Xg.R.:.] ) H K #XbXVX#.D _ d &XX.| rXVXMX7X`.>X6.j.5 ~ 6 S W L M ] ^ >.|.k.W.x.] ",
"ZXqXZXZX1X].`.#Xv.>.s.k.h.|.x.S qXqX}.k.N M h.{ 4._ c.5XkX( ! 2.I V.I z k  XZX5X1X-Xk.<Xj.6 (.:.n.G H K ) ] 8.G 8.v.m.v.",
"tX .J.MX$XA. XoXk.x.+XW.>XaX] w J. .Y 9 E.v.<X(.e.G.e.c.K 2X$.#.9.V.h ; q J.wX1X5X7.*.v.n r ;.fXOXu.8.H H Y 8.3.| ] ' >.",
"e.w  .5X Xb.b.`.v.6XaXv.6XnX` d D.e.4.t 6XbXaX<XH.o.o.5.) N p.R.%Xi.+.e o.$XoX1X<.<.W.W.r 6 6 0XwX%XV.Y X.c.8XqX1X X7. .",
"k w 4.#X].8.&.b.|.>X6.3 ) W.M s wXA.w.k C fXfXh.u.J.T t.' 4 hX*X@XB.B.i.S.D.S. .K 5Xb./ r + r 0XC.o.V.o.H t.SXnXZXmX`.^ ",
"k U S. X1Xv.' b.iX7XQ & Q s.p k $X$XL & 5 _.).C.%XI 5.5.OX-._.BXC.O.I.L.r.J. .k S.3X' . 4 6 Z ).O.@.B.z ; e .XyXcXkXk.A ",
"z.z.A.`.oXb.,.W.(.>X%.N f.L = p o.9X6.4 r ^.(.(.C V.0Xy.6 gX/.gX9XO.B.+.D.eXU S.].b.>.% Z :.:.:.X.V.O.e e e 5.vXnXkX].,.",
"$XJ.5X X6.' >.*X!.dX'.=X6Xa % ^ x.5.L * C )._.C q rX<X0.t V Z #.L.@.> z L.o.u.eX) S.,.a C u U.] : v &X+.2 < u.AXMX5X`.].",
"F.+.} o.H ) 9.XX!.,X^.hXgXV 5 v.;Xd # %.j.v.R W L =X8.] x.a + 9 V.} > > x j Z.{ 9.<Xa.Y.y %.(.6 $ c M.+.G.eXeXMXCX1X7.k.",
"N.v 1 f { H C !.^.d.^.sX~.-.:.~ =Xs.+ W v.~ :.XXt ` =X(.(.C % s I q.j 1 j M.1 9.{ (.*.=.R g.C.C O c P.D.e.P.eXyXqX;X,.^ ",
"N.M.@.} OX) ' uX,X{.^.1.#.g.~.-.=X` %.n.) ~ v.'.W 9 W.6XXX6.* s I q.} ; O.j X ; 9.|.=.%.g.g.h.j.r...r.i.D.D.A.4XwX X7.' ",
"c g } I t.) <.D #.1.2.#.%.:.-.:.9.g.XX6.*.f.v.6Xs.6 L 6X=XXXt [ 9.{ x O.Z.q - - +XXXv.=.g.:.C.aXc.H..X3.U u..XA.|.] ]  .",
"x c G. .4.) l.d.;.$.U.U.~.<X(.j.j.v.W W p.f.dXbXW.M t *.6.a . % C - 6 L.{ h : P oXE.*Xl.g.` <XDXFX|.|.OX5.) L 4. Xw.A.| ",
"z &XNX X8.K $.sX:XsX=Xp.=X<X~ I 6X*.R s.v.XXv.*.s.M 9 J bX=.W N [ ) { C.@Xh { n.OX'.7X{.8.] FXCXSXCXmXC.m.n.4.P _ w.5X_ ",
"z &XA.w.<.z.&.].T.sX*X:.6Xh.. + f.v.R.k.bXaX# r R.J * a ;XQ.v.` v.>X[ m.C.h :.n.>XpX:XQ.6.3.FXvXFXnXCXrXOXc.w.%XY 5.AX%X",
"w e.) K * ].[.T.uX[.fXfXaX(.C C J -XW.*XE.W.i 3 f.! & a M v.f.l.-XQ $.*.:.0.:.=X*XBXl.>.%.h.AXtXcXCXCX8X9X X| ) n.4.nX8X",
"K }.3X<.y T.2.{.,X{.!.,X6X8.j.:.E ,.*XE.>X6XQ ! pX>X! *.=.,.a.{./ Q.>Xv.j.+X*.=X2XuX&.<.( ] vXyXD.wXyXeX$X .|  X8.|.bXCX",
" .kX}.( 8 Y.uXQ.Q.:X!.!.g.` 9.h.J E !.'.iXpX>X-X-XlXa.,.6.&.>Xl.$.D / / W.W.XX*X3XlX2.(  .] &X..< e.MX$XA.U w. Xk >.XXbX",
"<.E.z.D & D R.uX{.iX!.!.%.` :.R.>Xf.W.>X*X>XiX-X-X!.R %.d.BXl.Q.d.Y.,.A M M W.<XQ.'.l./ <.z o.; 2 c $XD.D.k A.$Xa s ( 6.",
">.T.BXS + 2.!.iXU.d.%.-.-.!.>XfXf./ B R.E.2X*X'.!.p.B l.Q.R pX[.Y.<./ -X(.] r m '.'.2.S H H @.l < U $Xu.e. .J.<.) J S U ",
"z.' E.7 % -.~.,XN ! g.^.jXjX(.=.1.$.n 2.3X:XY.l.*X,./ sXa ( 2X'.uXzX}.$.f.OXC M A $./ s K +.o.: , X.#Xe.d 4.OX] *.W L *.",
"pXM & 9 Q W ,XiXfX*X,Xp.W.^.,X!.d.$.$.B *XE.{.:XE.( uXD ! dXQ.2XzXz.7XzXbXL t fXBXd.D A Y V.B.i.4.x.w.w.K 8.#XA.x.] W Y ",
"6Xv.M J ^.j.BX).).~.~.g.p.~.~.,XVX2X:X$.l.!.Q.E.N '.,.=.2.2X{.VXD 8 &.3XOXs J iXBX=.` ) t.V.+.y.OXb.s.-X].W.|.v.4XA.9.Y ",
"R.,.p.` g.N ~ Q N C #.1.#.;.B N $.A A R n './ B [.D B :XQ.T.zX].S & k 3X) t ` E.=./ W.J 8.@XL.o.y.+X.X9.9.c.7Xm.n.c.u.r.",
",.R %.$.` -.~ 6.C M =X(.-.U.U.l.&.A A f.*.R.:Xd.;.B 1.8 [.[.uXlXD 8 J 6.) 3 v.R.* / 6.` XX4X4XO.O.f v Z.1 (.q.q.D.D. .c ",
"[.1.=.p.p.f.R.(.C R.jX!.1.!.4 -.Q ^ C J =.W.:Xf.$.T.2.1.[.{.T.sX].&.:X) n C R.aX:.P 3 W bX6XR.q.v o o f j 0XZ.9.e.D.c , ",
"[.d.d.Q.R.~.=Xv.9 <X=X!.%.,X5 / ' 7.) m v.!.iX,X{.hX2.Q.sX{.T.uX{.2X'.y 4 M =X>X*.>X~ J m.6XxXC.v o f > { q.:.(.e.S. .$ ",
"~.[.:XdX<X6XbX%.* v.m *.% %.U.E.v.W.6.p.-X*XuXiXsXhXT.U.T.Q.Q.Q.3XlX` % % W (.*.W 6.W W.>Xs ~ @XN.f > o C.:.~ `  .S.k , ",
"Y.uXiX*Xf.=XfXC M =X:.!.r 1.BXdX1X`.k.;XXX2X:Xp.4 ;.sXhX#.iX[.Y.iX(.:.% 9 (.*.Q 8.f.p # 0 # p s B.L.x 0 <XjXjXf.z.S.<. .",
"T.uX!.A y 6.W.u M (.,Xp.V N 2.:X6X`.x.;XR.aX:Xy 5 B sXT.B 2.Q.:Xp.p.=.N L :Xp.:.=Xj.W d a + @ = q y.~ ) <XfXBXaXS.z.<.z.",
",XsX!.n r :.:.u ` =X=XN 4 5 ! zX|.m.b.oXb.iX2Xn V D :X[.Q.;.( N R *.W p.%.R.g.*.BXW.s.b.S = # P P M t =.BXVXzXBX}.z.4.z.",
"{.:X*XR Z f.W 4 M R.Y.$.4 . ! [.k.<.`.XX'.E.2Xa.y Y.! D ! uX!.!.%.! g.f.W '.M ~ bX] M XX^ ) % p s.= % 9 [.SXlXBX].7.z. X",
"[.uXuXd.W.~.9 3 ~ :.*X=.% 5 -.:X`.S.].E.s.3XR.-XsXd.n a n [.E.:XdXg.g.%.:.=.r M W.XXXX(.XXOXp # # C W :.n.VXBXbXk.3.w.[ ",
"[.!.>X:XaXf.* * <X-.B 6 r =.T.Q.' b.K E.'.d.-XiX*Xr y % s.R.7Xk.R >XdXj.%.` Q a 6 :.XX|.x.m.t # t ` s.n.OXFXFXrXb.8.W.] ",
"[.Y.Q.:XfXg.9 R aXg.W n =.Y.#.y &.oXD l.3Xa.{.uX2.% & 7 k.W.;X` 5 Q #.=X~.a -.h.& t ) x.*.Y t d W 9.|.+XrXvXvX4X+X*.OX(.",
"T.Y.~.W.=XW.-.R.(.!.:.n $.%.D R &.oXz.D d.}.2.l.=.& % ,.' `.7.S u p.Q ~.R.R R.R.J 0 t 6.3.) _ |.` 3.<X@XFXwXvXOX[ # 9.%X"
};
