/* XPM */
static char *Y2xvc2VkLWRvb3IrJTI4MSUyOS4_[] = {
/* columns rows colors chars-per-pixel */
"60 60 138 2 ",
"   c #0C0C0E",
".  c #121115",
"X  c #15151A",
"o  c #18171D",
"O  c #1A1A1D",
"+  c #1D1D22",
"@  c #201F25",
"#  c #212125",
"$  c #25242A",
"%  c #28272D",
"&  c #29282E",
"*  c #2D2C32",
"=  c #302F35",
"-  c #313036",
";  c #35343A",
":  c #38373D",
">  c #39383E",
",  c #3D3C42",
"<  c #403F45",
"1  c #414046",
"2  c #45444A",
"3  c #48474D",
"4  c #4A494F",
"5  c #4B4A50",
"6  c #56555B",
"7  c #5E5D63",
"8  c #69686E",
"9  c #807F85",
"0  c #88878D",
"q  c #8A898E",
"w  c #8D8C92",
"e  c #949397",
"r  c #97969C",
"t  c #98979D",
"y  c #9A9A9E",
"u  c #9D9CA2",
"i  c #A3A3A5",
"p  c #A6A5AB",
"a  c #A8A7AD",
"s  c #A9A9AD",
"d  c #ADACB2",
"f  c #B0AFB4",
"g  c #B3B2B6",
"h  c #B6B5BA",
"j  c #B8B7BC",
"k  c #B9B8BD",
"l  c #BDBDC2",
"z  c #C0BFC5",
"x  c #C2C2C6",
"c  c #C5C4CA",
"v  c #C8C7CC",
"b  c #CAC9CC",
"n  c #CECED1",
"m  c #D4D4D5",
"M  c #D6D6D8",
"N  c #DBDBDC",
"B  c #DFDFE1",
"V  c gray90",
"C  c #E4E4E4",
"Z  c #E5E5E7",
"A  c #E7E7E7",
"S  c #E3E3E4",
"D  c #E8E8E6",
"F  c #E9E9E7",
"G  c #E6E6E8",
"H  c #E6E5EA",
"J  c #E6E6E8",
"K  c gray91",
"L  c #E9E9E9",
"P  c #E8E8EA",
"I  c #E9E9EB",
"U  c gray92",
"Y  c #ECECEC",
"T  c gray93",
"R  c #EEEEEE",
"E  c #EFEFEF",
"W  c #ECECEC",
"Q  c #F0F0EE",
"!  c #F2F3EE",
"~  c #EEEEF0",
"^  c gray94",
"/  c #F1F1F1",
"(  c #F3F3F1",
")  c #F0F0F2",
"_  c gray95",
"`  c #F3F3F3",
"'  c #F4F4F2",
"]  c #F6F7F2",
"[  c #F4F4F4",
"{  c gray96",
"}  c #F6F6F4",
"|  c #F7F7F5",
" . c #F5F5F7",
".. c #F6F6F6",
"X. c gray97",
"o. c #F4F4F4",
"O. c #F8F9F4",
"+. c #F9F9F7",
"@. c #FAFBF6",
"#. c #F3F2F8",
"$. c #F4F3F8",
"%. c #F5F4F9",
"&. c #F6F6F8",
"*. c #F7F6FB",
"=. c #F8F7FC",
"-. c #F8F8F8",
";. c #F9F9F9",
":. c #FAFAF8",
">. c #FBFBF9",
",. c #F8F8FA",
"<. c #F9F9FB",
"1. c gray98",
"2. c #FBFBFB",
"3. c #FCFDF8",
"4. c #FDFEF9",
"5. c #FCFCFA",
"6. c #FDFDFB",
"7. c #FEFFFA",
"8. c #FFFFFB",
"9. c #FAFAFC",
"0. c #FBFBFD",
"q. c #FAF9FE",
"w. c #FAF9FF",
"e. c #FBFAFF",
"r. c #FCFBFF",
"t. c gray99",
"y. c #FDFDFD",
"u. c #FEFEFC",
"i. c #FFFFFD",
"p. c #FCFCFE",
"a. c #FDFCFF",
"s. c #FDFDFF",
"d. c #FEFDFF",
"f. c #FEFEFE",
"g. c #FEFEFF",
"h. c #FFFEFF",
"j. c white",
"k. c #F8F8F8",
/* pixels */
"j.j.j.j.j.j.j.j.O.! j.j.j.j.j.&.j.6.6.2.@.3.4.6.6.6.4.4.6.6.6.6.3.4.4.2.6.6.4.4.4.6.+.' Q 6.6.j.j.j.j.j.j.j.j.6.j.j.j.j.",
"j.j.j.j.j.j.j.j.6.6.6.+.( | $.j.r.2.2.2.@.@.4.4.2.2.4.4.2.2.2.2.3.3.3.2.2.2.4.3.} j.6.j.j.6.6.( j.6.j.j.j.j.j.j.j.j.j.j.",
"j.j.j.j.j.j.j.j.4.! <.j.j.0.n S N N N N N N N N N N N N N N N N M N N N N N N N B B M N M b ) j.<.6.j.j.j.j.0.6.j.j.j.j.",
"j.j.j.j.j.j.j.j.6.6.6.| &.y O @ + + # # # # # # + # # + # + # + # # + + + + + + . O O # # $ i j.j.j.j.j.j.j.j.j.j.j.j.j.",
"j.j.j.j.j.j.j.j.6.6.6.+.6.s o = % % & & % % $ $ $ # $ # $ $ $ $ # $ $ # # $ $ # $ & $ & $ . u j.<.j.j.j.j.j.0.6.j.j.j.j.",
"j.j.j.j.j.j.j.j.6.6.6.Q j.s . = + + # # # # + # # # # # # + # # + O + + @ O @ O O O O % : # f j.j.0.j.j.j.j.j.j.j.j.j.j.",
"j.j.j.j.j.j.j.j.@.@.j.( j.g X * - - ; ; ; ; - = = = = = = = * = = = = = = * = = : ; # % : . p { 6.j.j.j.j.j.0.6.j.j.j.j.",
"j.j.j.j.j.j.j.j.6.4.6.Q 6.g o = & & * * = * & & & % & % & % & & % $ $ $ $ $ $ $ # - & & : . g j.<.j.j.j.j.j.j.j.j.j.j.j.",
"j.j.j.j.j.j.j.j.j.j.j.0.r.g o ; & - ; - * * = = & & & % % $ & $ & & $ $ $ & & & = & & = & @ p j.6.0.j.j.j.j.j.j.j.j.j.j.",
"j.j.j.j.j.j.j.j.6.j.j.j.r.g o ; & - ; - = * * = & = * & & * * & & & & & & & & & & & ; < ; $ a r.6.j.j.j.j.j.j.j.j.j.j.j.",
"j.j.j.j.j.j.j.j.<.j.j.<.r.h o : & - ; ; = = - - - - = = = * = = * * * & * * * * $ & > 2 ; @ p j.<.j.j.j.j.j.j.6.j.j.j.j.",
"j.j.j.j.j.j.j.j.6.j.j.j.r.g + ; & ; ; - = = - - - - - - = = = = = = = * = * = = * * * ; * @ p j.6.0.6.j.j.j.j.j.j.j.j.j.",
"j.j.j.j.j.j.j.j.6.j.j.j.j.h o : & ; : ; - ; ; ; - ; - - - = = = = = = = * * = = ; * $ * & # a j.<.j.6.j.j.j.j.j.j.j.j.j.",
"j.j.j.j.j.j.j.j.6.j.j.0.r.h + > * ; > ; ; ; ; : ; - ; - - - - - = = * * * = = = = & $ ; - % s 0.6.6.j.j.j.j.j.0.j.j.j.j.",
"j.j.j.j.j.j.j.j.6.j.j.j.j.h + , * ; > : ; ; > ; ; ; ; ; - - - - = = = = = = = - = & * > = & a j.0.0.j.j.j.j.j.j.j.j.j.j.",
"j.j.j.j.j.j.j.j.6.j.j.j.j.h + > = ; > : ; ; > > ; ; ; ; ; ; ; - = = = = = = = = = & * ; * # s j.6.j.j.j.j.j.j.j.j.j.j.j.",
"j.j.j.j.j.j.j.j.j.j.j.2.r.h + > * : , ; ; > , ; : : ; ; ; ; ; ; ; - - - - - - - = * = * > # s 6.t.t.t.j.j.j.j.t.j.j.j.j.",
"j.j.j.j.j.j.j.j.6.j.2.r.r.g + > * : , > ; > , > > ; : ; ; ; - - - ; - - = = = - ; * = * : # s 4.t.t.j.j.j.j.j.j.j.j.j.j.",
"j.j.j.j.j.j.j.j.j.j.j.<.r.h + , = > , > ; > , : : : ; : ; ; ; ; - - - - = = - - = = - * : # s j.t.j.j.j.j.j.j.j.j.j.j.j.",
"j.j.j.j.j.j.j.j.6.j.6.r.r.h + , = > , > ; > , : : : : ; ; ; - ; ; ; - - = = - = - & = * : # s j.t.t.j.j.j.j.j.t.j.j.j.j.",
"j.j.j.j.j.j.j.j.6.j.j.j.j.h @ , * > < > ; > , > > > : : ; ; ; ; ; - - - = = - = = * % * , + a j.t.j.j.j.j.j.j.j.j.j.j.j.",
"j.j.j.j.j.j.j.j.j.j.j.<.j.j @ , = > < > ; , , > : > : ; : ; ; ; - ; - - = = - - , * , * , + p j.t.t.t.j.j.j.j.j.j.j.j.j.",
"j.j.j.j.j.j.j.j.6.j.j.0.j.j @ < = > < > : , , > > > > : : : ; ; ; - - - = = = - * * , * , + p j.t.t.j.j.j.j.j.t.j.j.j.j.",
"j.j.j.j.j.j.j.j.6.j.j.0.j.k @ < = > < > : , , > > > > : : ; ; ; - - - = = = = = * * & % , + p 0.t.t.j.j.j.j.j.j.j.j.j.j.",
"j.j.j.j.j.j.j.j.6.j.j.0.j.j @ < $ 4 > 1 = > - : ; ; ; ; - - - - - * & = * & & = ; & $ ; = $ a r.t.t.t.j.j.j.j.j.j.j.j.j.",
"j.j.j.j.j.j.j.j.6.j.6.0.j.j $ 1 & 4 , 1 ; < ; > , > > > : ; ; ; ; - - ; - = = ; = & $ ; * # p j.<.j.j.j.j.j.j.j.j.j.j.j.",
"j.j.j.j.j.j.j.j.j.j.j.0.j.j # 1 - 2 1 2 , 2 ; < ; : ; ; - - ; - - = = = = * * = ; & & > = $ a j.t.t.j.j.j.j.j.t.j.j.j.j.",
"j.j.j.j.j.j.j.j.6.j.<.0.j.j # 1 $ > 1 : ; > & - - - - - - = = = = & & * & & & * * & & > = @ i j.t.j.j.j.j.j.j.j.j.j.j.j.",
"j.j.j.j.j.j.j.j.6.j.j.0.6.k # 1 = 2 7 1 , 2 - , ; : ; ; - ; ; - - = = = = * * = & $ $ ; * + i =.<.j.j.j.j.j.j.j.j.j.j.j.",
"j.j.j.j.j.j.j.j.6.j.6.0.6.k # 1 - 6 9 4 < 4 , 2 > > > > ; ; ; ; ; = = = = * = = * & = < ; # p j.6.t.t.j.j.j.j.t.j.j.j.j.",
"j.j.j.j.j.j.j.j.j.j.j.2.j.k # 2 # 6 w , = > - ; > : ; ; ; ; ; - = * & = = & & = = * ; 2 : $ a j.6.t.j.j.j.j.j.j.j.j.j.j.",
"j.j.j.j.j.j.j.j.6.j.6.2.j.k # 1 & 8 s 4 ; 2 , 1 > > > : : ; ; ; - = * = = * * = & $ * < ; # i j.<.j.t.j.j.j.j.j.j.j.j.j.",
"j.j.6.j.6.j.j.j.+.j.6.<.j.j @ < % , < , , = = = = = = = = = * = * & * * & $ % = * @ & & , o i w.<.t.j.j.t.j.j.6.t.t.j.j.",
"j.j.0.j.j.j.0.j.<.j.r.0.j.j # , * , < < , , , = , = = , ; = = = = * * * * % & = * $ & & , X i r.0.t.t.j.t.j.j.t.j.j.j.t.",
"j.0.j.j.j.0.j.0.4.j.6.0.j.j # < = , < , = , , , = , , = ; = = = * * * * * % % = * @ & & > O i j.t.t.t.j.j.j.j.j.j.j.j.t.",
"j.j.j.6.j.6.j.j.<.6.6.0.j.j # , * , , , = , = = = = = * = * = * % $ % % & @ @ & % $ & & ; O i j.t.t.t.t.j.t.t.t.t.t.j.j.",
"6.j.j.0.j.j.6.j.<.j.6.r.j.j @ < * , , , = = , * = = = = * * * % % % % % % @ @ * * # & % ; O i j.6.t.t.j.t.j.j.j.j.j.t.j.",
"0.j.j.6.j.6.j.j.6.j.6.<.j.j @ , % , < , = * , * = ; = = = * = = * * % * * @ % * & # $ % ; O i j.<.t.t.j.j.j.t.t.j.t.j.j.",
"j.j.j.j.j.j.6.0.3.j.2.r.j.j @ < % , , , , , , , , ; ; ; = = = = * * & * * % % * & @ & $ - O i j.6.t.t.j.j.t.j.t.j.j.t.t.",
"j.6.0.j.0.j.j.j.+.j.r.0.j.j @ < % = , , * = , , = ; - - ; = = = % % % & % @ $ * * @ $ % - O i r.t.t.t.t.j.j.j.t.t.j.j.j.",
"2.j.2.j.2.j.2.j.<.6.2.0.r.h @ , % , , = $ , , * , * * , * * * * & * & $ & $ + = % + $ $ , + u 0.-.6.<.t.t.j.t.t.j.t.t.j.",
"j.j.j.j.j.j.j.j.2.6.2.2.j.j @ , $ , , , $ , = , & , * * , * * & & * $ $ & $ $ = & + $ $ * X i j.<.<.6.t.t.t.t.t.j.j.j.j.",
"2.j.2.j.2.j.2.j.3.j.2.<.r.j @ < $ , * , $ , , = , & & * $ & * * & * $ $ & + + = % @ $ $ - O i j.0.6.t.j.j.t.j.j.t.t.t.t.",
"2.2.j.2.2.2.j.2.<.6.2.<.j.j @ < + , , , % , = = , * , * * * & & & & $ $ & $ + * $ @ @ $ = o i j.-.t.t.t.j.t.t.t.t.t.t.6.",
"2.2.2.2.2.2.2.2.3.2.<.r.r.j @ , @ , , = @ , , = & * = * * & & & $ & $ $ & $ + * $ + # # - O i 6.-.0.6.t.t.t.t.6.t.6.6.<.",
"2.<.<.2.<.2.3.&.X.2.+.&.r.g + , + , * , @ , * = * * * * & & & & $ & $ + & + + * $ + # # * X i j.-.-.-.-.t.t.-.6.<.<.<.<.",
"2.2.3.<.2.<.<.2.X.+.X.&.=.h O > @ , = * $ , * * * = * * * & & & $ & $ + $ + + & $ + @ # * O u 6.| [ -.<.-.-.<.X.-.6.6.-.",
"X.+.<.X.+.<.+.+.X.X.X.$.=.g o > + , , , + , , * = * * * & & $ $ $ & + $ $ + + & + + # # * X u t.| [ X.-.-.-.X.X.-.+.<.-.",
"X.+.&.&.&.X.' ' | T j.L $.f @ ; $ > , * $ = > = * * & * & & $ & $ $ $ $ + + + $ @ + X $ % + u p.U E ( ( ` `  . .-.-.,.,.",
"X.X.&.&.X.| _ ( D V ' H r.f + ; @ = > * $ = ; * & & & $ $ $ $ $ $ $ $ $ + + + * + + @ * @ . r t.W ~ ( ( ( ` { ,.{ { X.,.",
"X.| { | { _ ( ) X.' { L j.s o ; @ ; , * * = ; * $ & & & $ $ $ $ + + + + + + + $ + @ $ , & . e p.A U ~ Q E ( ` { ] [ -.-.",
"X.| | { { { ( ) R T S N =.u . : # - ; * $ & & @ $ $ $ @ @ @ @ @ + + + + + + + & + X + = = X w ~ S A U ~ E E ( ` { ] -.,.",
"+.X.&.<.&.{ { ' D Y S B &.u # , $ = ; = * * * $ & & & & & $ $ @ $ $ @ $ + + + % + + + $ % O e { S D ~ ( ( ` { { -.O.,.,.",
"X.<.2.&.&.X.{ ( ' X.Y V H w + $ + $ & & $ * * $ $ $ @ $ @ @ + + + X X . + .   + . o X + O   q V A D ~ {  . .,.,.{ ,.,.,.",
"X.X.&.&.{ { ( ) T T S M b 0 , , > , < , , < , , , , , , , , , , , , , , , , , , - , : > , * w x B V U ( { { { ,.{ -. .p.",
"X.X.| { { { ( ) K V B B N x p s e r r e w w w w w w 9 w w 9 w 9 0 9 0 w w w 0 0 r r w y f y b n M B A U ~ ~ Q ( { { -. .",
"' ' ) R T Y L F H V N M n v z k f a a p i u u u u u r r r r r r r r u r t u u u u p d l l c b n M N B B Z P ~ ~ E E ` ` ",
"R R R T Y F K V V B B M m n v x l l h h f d d d a a p p p u p p p a a a a l l a l d h l c b n m N N N S Z P U ~ U E E E ",
"T T T U L K C C S B N N M M m n v v c z z l l l l l l l l l l l l l l l l l l l x c c v n n M M N N B S Z G P U U U U E ",
"Y Y U U K V C C S B B B B M M m n n v v c c c c l l l l l l l l l z l l v v v v n n n n m M M M N B B S Z G P P G U U T "
};
