/* XPM */
static char *result[] = {
/* columns rows colors chars-per-pixel */
"60 60 193 2 ",
"   c #0B0C0D",
".  c #080604",
"X  c #180902",
"o  c #0B1513",
"O  c #0A1B1B",
"+  c #0D1718",
"@  c #131A1C",
"#  c #141615",
"$  c #11100D",
"%  c #220C01",
"&  c #2F1002",
"*  c #24140B",
"=  c #341201",
"-  c #3B1401",
";  c #251B15",
":  c #17221B",
">  c #1B251C",
",  c #2B251D",
"<  c #352D1C",
"1  c #3F301C",
"2  c #0B2525",
"3  c #092B2A",
"4  c #1A2528",
"5  c #182623",
"6  c #0F3E3E",
"7  c #183735",
"8  c #2B2D2C",
"9  c #302A27",
"0  c #3C2D27",
"q  c #3E3E2F",
"w  c #212F31",
"e  c #29393D",
"r  c #263B36",
"t  c #373B3B",
"y  c #421600",
"u  c #461904",
"i  c #4C1C05",
"p  c #531E06",
"a  c #592007",
"s  c #56230E",
"d  c #5A2008",
"f  c #4C2B1B",
"g  c #5E2A14",
"h  c #582A16",
"j  c #4C341B",
"k  c #6A260C",
"l  c #74290E",
"z  c #78290E",
"x  c #71270D",
"c  c #622C17",
"v  c #6B2E17",
"b  c #662E19",
"n  c #692F1A",
"m  c #712F17",
"M  c #6B321E",
"N  c #67301B",
"B  c #743119",
"V  c #7C341B",
"C  c #412F21",
"Z  c #473125",
"A  c #443D36",
"S  c #5E3729",
"D  c #733722",
"F  c #763924",
"G  c #7A3C27",
"H  c #723B28",
"J  c #7C3D28",
"K  c #6C3927",
"L  c #2E4637",
"P  c #78412E",
"I  c #774333",
"U  c #283C41",
"Y  c #0E4040",
"T  c #135251",
"R  c #145E5B",
"E  c #1B5E5B",
"W  c #194A4A",
"Q  c #2A4549",
"!  c #32474C",
"~  c #2B554A",
"^  c #3A5C46",
"/  c #345343",
"(  c #23595B",
")  c #3B5355",
"_  c #3D545A",
"`  c #3E5A5B",
"'  c #354C51",
"]  c #19605F",
"[  c #286056",
"{  c #376454",
"}  c #3F5A61",
"|  c #1B6664",
" . c #177271",
".. c #1D7979",
"X. c #246B6B",
"o. c #3E6067",
"O. c #3D646A",
"+. c #3D686E",
"@. c #3C6C72",
"#. c #3B7176",
"$. c #3B747A",
"%. c #3B797D",
"&. c #367877",
"*. c #227571",
"=. c #444949",
"-. c #404F50",
";. c #525758",
":. c #725146",
">. c #70544A",
",. c #715248",
"<. c #476E55",
"1. c #4B755B",
"2. c #46725A",
"3. c #405B61",
"4. c #4D7C62",
"5. c #517E61",
"6. c #893316",
"7. c #943415",
"8. c #9F3819",
"9. c #94391C",
"0. c #823D27",
"q. c #8C3F27",
"w. c #823D28",
"e. c #8A3F28",
"r. c #923F26",
"t. c #8F4027",
"y. c #924027",
"u. c #9B4126",
"i. c #A24328",
"p. c #AA4224",
"a. c #B44526",
"s. c #BB4728",
"d. c #BE4320",
"f. c #CA4522",
"g. c #CA4926",
"h. c #CF4A29",
"j. c #C44724",
"k. c #D54A25",
"l. c #DC4B26",
"z. c #D64B28",
"x. c #DE4C28",
"c. c #D24722",
"v. c #D1502F",
"b. c #CA5133",
"n. c #D05131",
"m. c #E14C26",
"M. c #E24D28",
"N. c #1D807F",
"B. c #37827B",
"V. c #538365",
"C. c #578A6A",
"Z. c #E6E6E6",
"A. c #649E7A",
"S. c #65A27B",
"D. c #68A67F",
"F. c #217F80",
"G. c #3A7E83",
"H. c #1B8787",
"J. c #28888A",
"K. c #358A8D",
"L. c #388A8D",
"P. c #368487",
"I. c #378E92",
"U. c #388E92",
"Y. c #239B9B",
"T. c #369495",
"R. c #359699",
"E. c #369B9E",
"W. c #20A19F",
"Q. c #359EA1",
"!. c #22A4A3",
"~. c #34AAAD",
"^. c #35A2A5",
"/. c #33AEB1",
"(. c #2AB5B6",
"). c #32BCBC",
"_. c #33B4B5",
"`. c #6DAE85",
"'. c #6FB187",
"]. c #6FB288",
"[. c #72B78C",
"{. c #E6E6E6",
"}. c #2FBEC0",
"|. c #31BFC0",
" X c #31C4C3",
".X c #30C8CA",
"XX c #2FCFD0",
"oX c #2ED6D4",
"OX c #2DDAD6",
"+X c #2ED6D8",
"@X c #2DDCDA",
"#X c #2CE3E3",
"$X c #2CEAEA",
/* pixels */
"{.{.{.{.{.{.{.{.{.{.{.{.{.{.{.{.{.{.{.{.[.[.[.[.[.{.[.[.[.{.{.{.[.[.{.{.{.{.{.{.{.{.{.{.{.{.{.{.{.{.{.{.{.{.{.{.{.{.{.{.",
"{.{.{.{.{.{.{.{.{.{.{.{.{.{.{.{.{.{.{.{.[.].[.[.`.S.`.Z.A.S.A.`.[.[.{.{.{.{.{.{.{.{.{.{.{.{.{.{.{.{.{.{.{.{.{.{.{.{.{.{.",
"{.{.{.{.{.{.{.{.{.{.{.{.{.{.{.{.{.{.{.{.[.`.Z.Z.7 3 3 3 3 3 3 { Z.Z.'.[.{.{.{.{.{.{.{.{.{.{.{.{.{.{.{.{.{.{.{.{.{.{.{.{.",
"{.{.{.{.{.{.{.{.{.{.{.{.{.{.{.{.{.{.{.D.C.~ Y Y oX}.).}.}.|.oXH.Y 6 4.C.[.{.{.{.{.{.{.{.{.{.{.{.{.{.{.{.{.{.{.{.{.{.{.{.",
"{.{.{.{.{.{.{.{.{.{.{.{.{.{.{.{.{.`.1.{ T J./././.L.3.3.} +.R./././.] T 1.5.{.{.{.{.{.{.{.{.{.{.{.{.{.{.{.{.{.{.{.{.{.{.",
"{.{.{.{.{.{.{.{.{.{.{.{.{.{.{.'.^ ~  .!. X@.3.3.} @X} _ } P./.3.} } I.@X . .^ 1.{.{.{.{.{.{.{.{.{.{.{.{.{.{.{.{.{.{.{.{.",
"{.{.{.{.{.{.{.{.{.{.{.{.{.{.[./ H.N.U.T.E.%.} 3.} T 4 4 4 7 ( } } } R.T.U.L... .1.[.{.{.{.{.{.{.{.{.{.{.{.{.{.{.{.{.{.{.",
"{.{.{.{.{.{.{.{.{.{.{.{.{.{.L W.@X$.3.3.@.Q.Y @ @ & & & & & * @ @ J.L.} 3.3.I.@X..1.{.{.{.{.{.{.{.{.{.{.{.{.{.{.{.{.{.{.",
"{.{.{.{.{.{.{.{.{.{.{.{.[.L Y.%.P.~.3.3.e 2 * = = y y y y y - = = 5 + ) } O.).%.P. .1.{.{.{.{.{.{.{.{.{.{.{.{.{.{.{.{.{.",
"{.{.{.{.{.{.{.{.{.{.{.{.r !.+.` } P.J.  % - y y y j.D D D D c y y - -     ).O.} } P.| V.{.{.{.{.{.{.{.{.{.{.{.{.{.{.{.{.",
"{.{.{.{.{.{.{.{.[.[.{.L !.@.3.3.} ! X - - u N e.i l.G G G G c 6.i.d u y - o } } ` } R.T C.{.{.{.{.{.{.{.{.{.{.{.{.{.{.{.",
"{.{.{.{.{.{.{.{.[.[.'.r (.@XO.3.! X u u c G G t.i l.G G G G c 7.s.r.G i u - $ _ } T.#XT V.[.{.{.{.{.{.{.{.{.{.{.{.{.{.{.",
"{.{.{.{.{.{.{.{.[.[.L W.$.3.).! X - z j.0.J J y.i l.J J G G c 7.i.q.0.y.r.y - # &.R.} /.6 Z.{.[.{.{.{.{.{.{.{.{.{.{.{.{.",
"{.{.{.{.{.{.{.{.{.D.~ J.@.3.3.. y i m g.e.J q.r.i l.J J G G c 7.i.e.r.r.r.i p = @ } } Q.T V.[.[.{.{.{.{.{.{.{.{.{.{.{.{.",
"{.{.{.{.{.{.{.{.{.^ H.P.3.3.Q X i M z j.t.0.t.J i l.J 0.r.G c 7.i.G r.r.q.i c.= # ' } } (.3 S.{.{.{.{.{.{.{.{.{.{.{.{.{.",
"{.{.{.{.{.{.{.{.S.[ J.T.U.o.. y c M z s.t.0.q.0.i l.0.r.q.G c 7.i.J r.r.G i z.s = 4 @.I.E.| 2.[.{.{.{.{.{.{.{.{.{.{.{.{.",
"{.{.{.{.{.{.{.{.<. .L.L.Q.U % u G M z s.e.e.y.0.i l.J y.y.J c 7.i.G 0.y.G i x.M - ; X.^.@..XO `.{.{.{.{.{.{.{.{.{.{.{.{.",
"{.{.{.{.{.{.{.{.<. .L.} }   - b G M z s.w.t.e.G i l.w.y.t.J c 7.i.J G y.J i x.F s % w 3.} .XO `.{.{.{.{.{.{.{.{.{.{.{.{.",
"{.{.{.{.{.{.{.{.<. .L.3.}   y G J M z s.G e.J J u l.J y.t.H c 7.i.J J y.e.p l.G N & w 3.} .XO '.{.{.{.{.{.{.{.{.{.{.{.{.",
"{.{.{.{.{.{.{.Z.( J.O.3.4 * y G J M z s.G q.0.F i l.J y.0.t.c 7.u.G G t.r.i x.G N y * U ` #.Y.r [.{.{.{.{.{.{.{.{.{.{.{.",
"{.{.{.{.{.{.{.V.R #XoXoX2 - d.G G M z s.G G J J u m.y.y.J t.c 7.i.G G y.r.i x.G G g % F.+X+X#Xo {.{.{.{.{.{.{.{.{.{.{.{.",
"{.{.{.{.{.{.{.V.R ^.3.3.+ - l.G J M z s.G G J J i m.y.G 0.t.c 7.i.G G r.y.i x.G G c % U O.} oXo [.{.{.{.{.{.{.{.{.{.{.{.",
"{.{.{.{.{.{.{.V.R Q.3.3.$ - g.G F M x a.F F F F u k.r.F G e.g 6.u.F F G G i h.F F c % U } 3.+Xo [.{.{.{.{.{.{.{.{.{.{.{.",
"{.{.{.{.{.{.{.V.R ^.} } f p p p p p p p p p p p p p p p p p p p p p p p p p p p p p p A } } +Xo [.{.{.{.{.{.{.{.{.{.{.{.",
"{.{.{.{.{.{.{.V.R ~.#.C f.z.z.z.b.l.z.l.z.n.z.z.l.z.z.z.b.l.z.z.z.l.b.z.z.z.l.z.n.z.z.z ) #.OXo [.{.{.{.{.{.{.{.{.{.{.{.",
"{.{.{.{.{.{.{.V.R XX).q f.w.G J >.H J G G ,.I J G G G P >.J G G G G >.J J J G I :.G G s B.).#Xo [.{.{.{.{.{.{.{.{.{.{.{.",
"{.{.{.{.{.{.{.V.R Q.} A 9.m n b M b b b b b b N N b b N N b b b b N b b b N N N N N N j -.3.oXo {.{.{.{.{.{.{.{.{.{.{.{.",
"{.{.{.{.{.{.{.V.R Q.} } ; y y y y y y y y y y y y y y y y y y y y y y y - y y y y y = t 3.3.OXo [.{.{.{.{.{.{.{.{.{.{.{.",
"{.{.{.{.{.{.{.V.R Q.3.} o - 7.c c h p 6.v c c c i 7.v c c b d x B c c c c u 7.b v s % e 3.3.XXo [.{.{.{.{.{.{.{.{.{.{.{.",
"{.{.{.{.{.{.{.V.] XX_._.2 - l.G G M z h.t.0.J F i m.y.J G w.B 7.i.G G G G i x.w.q.c % X.).).#Xo [.{.{.{.{.{.{.{.{.{.{.{.",
"{.{.{.{.{.{.{.V.R ~.$.G.+ - l.G G M z j.e.0.G G i l.y.q.G 0.B 7.i.G G G G i M.q.y.v % Q %.%.OXo [.{.{.{.{.{.{.{.{.{.{.{.",
"{.{.{.{.{.{.{.V.R Q.3.3.  - l.F 0 M m s.e.w.G G i l.0.t.J y.m 7.i.G G G G i M.y.0.B X U 3.3.OXo [.{.{.{.{.{.{.{.{.{.{.{.",
"{.{.{.{.{.{.{.V.R Q.3.} + - z.8 ;.9 z s.e.r.G G i l.J r.0.q.c 7.i.G t.G G i M.q.0.m % e 3.3.oXo [.{.{.{.{.{.{.{.{.{.{.{.",
"{.{.{.{.{.{.{.V.R Q.3.3.+ - z.8 ;., z s.G q.0.G i l.J r.y.t.c 7.i.G y.J G i M.r.0.m % e O.} OXo [.{.{.{.{.{.{.{.{.{.{.{.",
"{.{.{.{.{.{.{.V.R #X+X@X2 - l.H 9 M z s.G e.r.0.i l.J w.y.t.c 7.i.G t.J G i m.r.0.m % N.oX@X$Xo [.{.{.{.{.{.{.{.{.{.{.{.",
"{.{.{.{.{.{.{.V.R Q.3.3.o - l.H 9 M z s.G G q.0.i l.J J y.y.c 7.i.G y.J J i M.y.y.v % e } } oXo [.{.{.{.{.{.{.{.{.{.{.{.",
"{.{.{.{.{.{.{.V.R Q.3.3.  - x.H 9 M z s.G J q.w.i l.J P u.q.c 7.i.G t.J G i M.r.t.c % e } } oXo [.{.{.{.{.{.{.{.{.{.{.{.",
"{.{.{.{.{.{.{.5.R Q.3.3.+ - l.H 9 M z s.G J q.0.i l.J J y.q.c 7.i.G y.J G i l.J t.c % e } } oXo {.{.{.{.{.{.{.{.{.{.{.{.",
"{.{.{.{.{.{.{.V.R |.Q.R.O - l.H 9 N z s.G G 0.y.i l.J J y.t.c 7.i.G y.q.G i m.0.t.c % ( R.R.@Xo {.{.{.{.{.{.{.{.{.{.{.{.",
"{.{.{.{.{.{.{.V.R }.R.R.O - l.Z =.f z s.G G G t.i x.J J y.q.c 7.i.t.y.y.G i l.0.y.M % ( R.R.@Xo {.{.{.{.{.{.{.{.{.{.{.{.",
"{.{.{.{.{.{.[.V.R Q.} }   - z.8 ;.9 z s.G G G t.i l.G J y.t.c 7.i.q.y.y.J i l.J y.b % e } } OXo {.{.{.{.{.{.{.{.{.{.{.{.",
"{.{.{.{.{.{.[.V.E R.} } + - l.S q h z s.G G J t.i m.G G 0.G c 7.i.q.0.y.J i M.0.q.c % e } } oXo {.{.{.{.{.{.{.{.{.{.{.{.",
"{.{.{.{.{.{.[.V.R Q.3.}   - l.F K M z s.J G F t.p l.G G G G c 7.a.y.0.r.G i x.J J c % e } ` oXo {.{.{.{.{.{.{.{.{.{.{.{.",
"{.{.{.{.{.{.[.V.R #XXX+X3 - l.G G M z s.G G J t.i l.J G G G b 7.s.0.J y.J i l.G G c % ..OXOX$Xo {.{.{.{.{.{.{.{.{.{.{.{.",
"{.{.{.{.{.{.{.V.] Q.} } + - l.G P M z s.G G G t.i l.P G G G c 7.a.0.G r.r.i l.G G b % e } o.OXo {.{.{.{.{.{.{.{.{.{.{.{.",
"{.{.{.{.{.{.{.V.R Q.} } # - f.F H N x p.V F 0.F i f.F V F H g 6.p.q.F F q.i f.F F c % e } } OXo [.{.{.{.{.{.{.{.{.{.{.{.",
"{.{.{.{.{.{.[.V.R Q.} -.h p p p d a a d d d a a a a a d a a a a a a a a a a d d a a a A ` 3.oXo [.{.{.{.{.{.{.{.{.{.{.{.",
"{.{.{.{.{.[.[.5.R /.G.C f.h.z.z.b.h.h.h.g.b.n.h.h.h.h.h.b.h.h.h.h.h.b.h.h.h.h.g.b.h.h.l ` %.OXo {.{.{.{.{.{.{.{.{.{.{.{.",
"{.{.{.{.{.{.{.V.R XX}.t f.w.J J >.G G G G :.H J G G G P ,.G G G G G >.J H G G I :.G G s &._.#Xo [.[.{.{.{.{.{.{.{.{.{.{.",
"{.{.{.{.{.{.{.V.R Q._ A 6.v c c c c c c c c c c c c c c g c c c c c c c b c c c c c c Z -.3.OXo [.{.{.{.{.{.{.{.{.{.{.{.",
"{.{.{.{.{.{.{.V.R Q.} } ; - u y y y y y y y y y y y y y y y y y y y y y y y y y y y & t 3.3.OXo [.{.{.{.{.{.{.{.{.{.{.{.",
"{.{.{.{.{.{.{.V.R Q.} o.  - 8.B m h k 6.b M M b u 8.N n B N s l V B b B b u 8.b N s % e 3.3.oXo [.{.{.{.{.{.{.{.{.{.{.{.",
"{.{.{.{.{.{.{.V.R +X|.}.2 - l.0.q.M z s.J q.w.F i l.J t.t.t.c 7.i.q.w.r.G i m.G H c % .. X X#Xo [.{.{.{.{.{.{.{.{.{.{.{.",
"{.{.{.{.{.{.{.V.R ~.#.4.+ - l.G r.M z s.G e.w.J i l.J y.G t.c 7.i.J e.r.G i x.G J c % Q #.#.OXo [.{.{.{.{.{.{.{.{.{.{.{.",
"{.{.{.{.{.{.{.V.R R.3.3.o - l.G r.F z s.e.w.G F i l.J t.G t.c 7.i.G q.0.G i x.G G c % e } } oXo [.{.{.{.{.{.{.{.{.{.{.{.",
"{.{.{.{.{.{.{.V.R Q.3.3.o - l.G J 6.z s.e.w.G J i m.y.t.0.y.m 7.i.G G G G i x.G G c % e } } oXo [.{.{.{.{.{.{.{.{.{.{.{.",
"{.{.{.{.{.{.{.C.| K.) ) o = j.D F c k a.0.F F F u f.q.D F G v 6.r.G D F F u f.F F g X e ) ) (.5 [.{.{.{.{.{.{.{.{.{.{.{.",
"{.{.{.{.{.{.{.{.4.: : : : : j j Z f , j j j j j > j j j j j < < j j j j j > j j j < : : : : > '.{.{.{.{.{.{.{.{.{.{.{.{.",
"{.{.{.{.{.{.{.{.{.{.[.[.{.{.{.{.{.{.{.{.{.{.{.{.{.{.[.[.{.{.{.{.{.{.[.[.{.{.{.{.{.{.{.{.{.{.{.{.{.{.{.{.{.{.{.{.{.{.{.{.",
"{.{.{.{.{.{.{.{.{.{.[.[.{.{.{.{.{.{.{.{.{.{.{.{.{.[.[.[.{.{.{.{.{.{.{.{.{.{.{.{.{.{.{.{.{.{.{.{.{.{.{.{.{.{.{.{.{.{.{.{."
};