/* XPM */
static char *b3Blbi1ibGFjay1kb29yKyUyODElMjku[] = {
/* columns rows colors chars-per-pixel */
"60 60 145 2 ",
"   c #040404",
".  c #060608",
"X  c #08070C",
"o  c #0A090D",
"O  c #0F0E12",
"+  c #100F14",
"@  c #121215",
"#  c #161519",
"$  c #18171C",
"%  c #1A1A1D",
"&  c #1E1D22",
"*  c #201F24",
"=  c #232225",
"-  c #26252A",
";  c #28272C",
":  c #2A292D",
">  c #2E2D32",
",  c #302F34",
"<  c #323135",
"1  c #35343A",
"2  c #38373D",
"3  c #3A393E",
"4  c #3D3C42",
"5  c #403F45",
"6  c #424146",
"7  c #45444A",
"8  c #48474D",
"9  c #4A494E",
"0  c #4D4C52",
"q  c #504F55",
"w  c #525156",
"e  c #54535A",
"r  c #58575D",
"t  c #59595C",
"y  c #5B5A61",
"u  c #646465",
"i  c #646369",
"p  c #6B6B6D",
"a  c #6E6E72",
"s  c #706F74",
"d  c #737277",
"f  c #767579",
"g  c #78777C",
"h  c #79797C",
"j  c #7E7D82",
"k  c #807F85",
"l  c #828185",
"z  c #858489",
"x  c #88878C",
"c  c #8A898E",
"v  c #8E8D92",
"b  c #908F94",
"n  c #929196",
"m  c #96959A",
"M  c #9A999D",
"N  c #9E9DA2",
"B  c #A09FA4",
"V  c #A2A2A5",
"C  c #A5A4AA",
"Z  c #A8A7AC",
"A  c #AAA9AE",
"S  c #AEADB1",
"D  c #B1B1B4",
"F  c #B6B5B9",
"G  c #B8B7BD",
"H  c #BAB9BE",
"J  c #BEBEC1",
"K  c #C0BFC4",
"L  c #C2C2C4",
"P  c #C3C3C6",
"I  c #C8C8C6",
"U  c #C6C6C8",
"Y  c #C6C6C9",
"T  c #C8C7CC",
"R  c #CACACC",
"E  c #CCCCCE",
"W  c #CDCDCF",
"Q  c gray81",
"!  c #CACACC",
"~  c #D1D1CF",
"^  c #CECED0",
"/  c #CECED0",
"(  c #D0CFD4",
")  c #D5D5D5",
"_  c #D5D5D7",
"`  c #D2D2D4",
"'  c #D7D7D9",
"]  c #D6D6D9",
"[  c #D8D8DA",
"{  c #D9D9DB",
"}  c #DADADA",
"|  c gray86",
" . c #DADADC",
".. c #DBDBDD",
"X. c #DBDADF",
"o. c #DCDCDE",
"O. c #DDDDDF",
"+. c gainsboro",
"@. c #DBDBDD",
"#. c #DCDBE0",
"$. c #DEDEE0",
"%. c #DFDFE1",
"&. c #DEDEE0",
"*. c gray88",
"=. c #E3E3E5",
"-. c #E3E3E4",
";. c #E6E6E8",
":. c #E9E9E9",
">. c #EBEBED",
",. c #ECECEE",
"<. c #EDEDEF",
"1. c #ECECEC",
"2. c #EBEBEC",
"3. c #EEEEF0",
"4. c gray94",
"5. c #F1F1F1",
"6. c gray95",
"7. c gray97",
"8. c #F4F4F6",
"9. c #F4F4F4",
"0. c #F9F9F7",
"q. c #F9F9F7",
"w. c #F6F6F8",
"e. c #F7F7F9",
"r. c #F7F7F9",
"t. c #FBFBF9",
"y. c gray98",
"u. c #FBFBFB",
"i. c #F8F8F8",
"p. c #FCFCFA",
"a. c #FDFDFB",
"s. c #FAFAFC",
"d. c #FBFBFD",
"f. c gray99",
"g. c #FDFDFD",
"h. c #FEFEFC",
"j. c #FFFFFD",
"k. c #FCFCFE",
"l. c #FDFDFF",
"z. c #FEFDFF",
"x. c #FEFEFE",
"c. c #FEFEFF",
"v. c #FFFEFF",
"b. c white",
"n. c #FEFEFE",
/* pixels */
"b.b.b.b.b.b.b.b.b.b.b.b.y.b.p.a.a.b.b.b.b.b.a.b.b.b.a.b.b.b.b.k.y.a.a.a.a.a.a.p.a.b.9.b.b.b.q.b.b.b.b.b.b.b.b.b.b.b.b.b.",
"b.b.b.b.b.b.b.b.b.u.b.b.b.| ) +.*.+.O._ _ | | =.O.{ } } +.$.$.{ | | | | | | } +.~ *.| O.{ +.b.a.b.a.b.b.b.b.b.b.b.b.b.b.",
"b.b.b.b.b.b.b.b.b.b.b.b.6.t = # & # % = - = # @ # $ % & % % % = $ $ % % $ $ $ $ = @ % * @ 2 4.a.b.b.b.b.b.b.b.b.b.b.b.b.",
"b.b.b.b.b.b.b.b.u.u.b.b.b.9 & % @ O # @ o @ # % # # % # @ @ @ @ # # # # # # # # # o o % : < 1.a.b.u.b.b.b.b.b.b.b.b.b.b.",
"b.b.b.b.b.b.b.b.b.b.y.b.b.q ; 4 % @ @ @ $ $ o o X     . O @ O o X o o X o o X o   @ # < : > 9.p.u.b.b.b.b.b.b.b.b.b.b.b.",
"b.b.b.b.b.b.b.b.q.b.a.b.b.q & ; = O o % w c F / [ +._ W L J I ~ W ! E / / W ! E I ~ t = < 3 :.a.b.b.b.b.b.b.b.b.b.b.b.b.",
"b.b.b.b.b.b.b.b.y.b.k.k.b.w ; 1 ; = % @ o @ ; 8 k A *.b.b.b.l.b.b.a.b.b.b.b.b.a.p.a.l - = < 4.a.b.b.b.b.b.b.b.b.b.b.b.b.",
"b.b.b.b.b.b.b.b.b.y.b.k.b.0 - , ; = - - = $ O O o O & 1 t c H { a.a.a.a.b.u.a.y.p.q.h $ < 2 1.p.b.u.b.b.b.b.b.b.b.b.b.b.",
"b.b.b.b.b.b.b.b.b.b.b.b.b.w ; < ; & , ; - - * * = = - & & & ; > 9 h B Q 1.b.b.b.b.b.d & > 2 >.b.b.b.b.b.b.b.b.b.b.b.b.b.",
"b.b.b.b.b.b.b.b.b.b.b.b.b.w ; < * + > ; ; - * & & = - - ; > , 4 : = & = h q.b.b.b.b.d & > 3 >.b.b.u.b.b.b.b.b.b.b.b.b.b.",
"b.b.b.b.b.b.b.b.b.b.b.b.b.q & 4 * # > > > ; - * * & - > , , 4 , 4 2 5 = d b.b.b.y.b.d & > 3 >.b.u.b.b.b.b.b.b.b.b.b.b.b.",
"b.b.b.b.b.b.b.b.b.b.b.b.k.q ; , ; & > 4 , > ; - - - ; ; , , , > < ; 1 : h b.b.b.b.b.d & > 3 >.b.b.b.b.b.b.b.b.b.b.b.b.b.",
"b.b.b.b.b.b.b.b.b.b.b.b.b.0 ; 1 , & 4 > ; ; - ; - - - ; 4 4 , 4 7 1 : : f b.8.b.a.b.s & > 3 >.b.b.b.b.b.b.b.b.b.b.b.b.b.",
"b.b.b.b.b.b.b.b.k.b.b.b.b.w - 1 ; & , 4 4 ; ; ; - ; ; - > 4 4 4 , 3 3 1 f b.b.b.b.b.d & > 2 >.b.b.u.b.b.b.b.b.b.b.b.b.b.",
"b.b.b.b.b.b.b.b.b.b.b.b.b.w ; < - & 4 4 4 > > ; ; ; ; 4 ; 4 4 , 3 3 < , f b.k.u.b.b.d & > 3 >.b.b.b.b.b.b.b.b.b.b.b.b.b.",
"b.b.b.b.b.b.b.b.b.b.b.b.b.w ; < - & 4 > > 4 > > ; ; > ; 4 4 4 4 6 1 < 3 h b.8.b.k.b.d & > 3 >.b.b.u.b.b.b.b.b.b.b.b.b.b.",
"b.b.b.b.b.b.b.b.b.b.a.b.b.0 * 4 ; & 4 4 , , , : ; : : 1 4 4 4 4 4 5 4 1 j k.b.b.y.b.s & > 1 <.b.b.y.b.b.b.b.b.b.b.b.b.b.",
"b.b.b.b.b.b.b.b.b.b.b.a.b.q - 1 ; & 4 4 4 1 , : ; > > , 4 4 4 4 5 5 1 1 j b.b.b.y.b.s & > 1 <.b.b.b.b.b.b.b.b.b.b.b.b.b.",
"b.b.b.b.b.b.b.b.a.b.a.b.b.q - 1 > & 4 4 4 > 1 > > > > , 4 4 4 7 7 5 2 3 k b.b.b.k.b.s & > 1 <.b.b.b.b.b.b.b.b.b.b.b.b.b.",
"b.b.b.b.b.b.b.b.b.b.b.a.b.0 ; 1 > - 4 4 4 1 1 > > > , 4 4 4 7 7 7 6 4 4 z b.b.b.u.b.a & > 1 >.b.b.y.b.b.b.b.b.b.b.b.b.b.",
"b.b.b.b.b.b.b.b.b.b.a.a.b.0 - < ; & 7 4 4 4 , > > > > 1 4 7 7 8 8 7 4 4 l b.b.b.k.b.a & > < >.b.b.y.b.b.b.b.b.b.b.b.b.b.",
"b.b.b.b.b.b.b.b.b.b.a.b.b.9 - < ; - 7 7 4 4 4 > > > , 1 4 8 8 8 9 7 4 4 z k.b.b.u.b.a & ; 1 >.b.b.b.b.b.b.b.b.b.b.b.b.b.",
"b.b.b.b.b.b.b.b.b.b.a.b.b.0 - < : * 8 7 4 , 4 > > , 1 4 4 8 9 0 0 8 4 6 x b.b.b.a.b.a % > 1 >.b.b.b.b.b.b.b.b.b.b.b.b.b.",
"b.b.b.b.b.b.b.b.b.b.a.a.b.0 - < ; * 7 7 4 4 > > , 1 1 4 7 8 0 0 0 9 6 6 x b.b.b.k.b.a % ; 1 >.b.b.b.b.b.b.b.b.b.b.b.b.b.",
"b.b.b.b.b.b.b.b.b.a.b.b.b.8 = , - & 9 6 4 1 1 > > > > 1 4 4 7 7 7 5 7 5 c k.y.b.p.b.d % : < 1.b.y.b.b.b.b.b.b.b.b.b.b.b.",
"b.b.b.b.b.b.b.b.b.a.b.b.b.8 = , : - 0 9 7 4 4 1 , , , 4 6 9 0 q q e 0 5 v b.b.b.a.a.a % : 1 1.a.b.b.b.b.b.b.b.b.b.b.b.b.",
"b.b.b.b.b.b.b.b.a.a.b.b.b.8 = , = & 9 6 6 4 2 , > , 1 4 6 7 9 0 8 e 0 5 v b.r.e.a.b.p % : 1 1.a.b.b.b.b.b.b.b.b.b.b.b.b.",
"b.b.b.b.b.b.b.b.b.a.b.a.b.8 = > = = 0 7 7 4 4 , , , 1 4 6 9 9 0 q 0 5 0 l k.b.b.a.b.p $ : < 1.b.y.b.b.b.b.b.b.b.b.b.b.b.",
"b.b.b.b.b.b.b.b.b.a.b.b.a.7 = , & = w 9 8 4 4 , < < 2 5 7 0 0 q 4 1 9 k C b.b.y.a.b.p # ; < :.a.y.b.b.b.b.b.b.b.b.b.b.b.",
"b.b.b.b.b.b.b.b.b.a.b.a.a.7 = < % % w 9 8 5 5 1 1 1 4 6 9 q q e e 5 9 k N e.b.b.q.b.p % ; < 1.a.b.b.b.b.b.b.b.b.b.b.b.b.",
"b.b.b.b.b.b.b.b.a.a.b.b.b.7 & : = - t w 0 8 9 4 4 5 6 0 q y y y u y w h B b.y.a.9.b.p % - < 1.a.b.b.b.b.b.b.b.b.b.b.b.b.",
"b.b.b.b.b.b.b.b.b.a.b.a.b.7 = : : : t 0 9 7 8 3 3 4 6 8 0 q e e q y 5 y m b.9.y.9.b.p & - < :.b.y.b.b.b.b.b.b.b.b.b.b.b.",
"b.a.b.b.a.b.b.a.b.y.b.y.b.6 & : = = w 0 6 3 < < , , < 3 4 9 0 0 0 q 0 q v b.k.b.y.b.p # ; : 4.b.y.b.b.y.b.b.y.b.b.y.b.b.",
"b.b.b.k.b.k.k.b.a.a.b.b.b.7 & > = = w w 7 7 5 3 2 2 5 6 0 q y e e y e q v b.y.b.y.b.p # ; : <.b.b.y.b.b.b.b.b.b.b.b.b.b.",
"b.a.a.b.b.b.b.b.b.a.b.a.b.7 & ; = = w 0 7 6 3 3 < < 2 3 7 9 q q e q 9 q v b.b.b.u.b.p @ ; : 1.a.b.b.b.b.y.b.b.b.b.y.y.b.",
"b.b.k.b.a.b.k.a.a.a.b.b.b.6 & ; : = w 0 6 6 2 < < < 3 5 8 0 q q q q 7 8 v b.y.b.t.b.p @ ; ; <.b.y.b.y.b.b.b.y.b.b.b.b.b.",
"k.b.b.k.b.a.k.b.a.a.b.k.b.6 % ; = = w w 8 7 4 3 3 3 5 7 9 e y y y e 9 0 v k.y.y.y.b.p + - = 4.p.y.b.b.b.b.b.b.b.b.b.b.b.",
"b.a.b.a.b.b.b.b.a.u.b.b.b.6 & ; = = w w 8 7 4 3 1 1 3 6 9 w e r y q 7 0 v b.k.b.a.a.p @ - ; 4.a.b.b.b.y.b.y.b.b.b.y.b.y.",
"b.a.b.b.k.b.b.a.b.a.b.b.b.6 % - = = w 0 6 6 3 2 2 3 4 7 9 e r r y 0 5 9 v b.b.b.u.b.p O = ; 1.a.b.y.y.b.b.y.b.y.b.y.b.b.",
"k.b.b.k.b.a.k.b.a.a.b.b.b.6 % ; = = w 0 7 6 3 3 1 2 3 7 9 e r y y q 9 q b b.k.b.p.b.u @ = ; 1.a.y.b.b.b.b.b.b.b.b.b.b.b.",
"b.y.y.b.b.y.y.y.b.a.b.u.b.6 # - & = 0 0 7 6 4 1 1 1 3 6 0 e e r e w 7 0 c b.y.y.q.b.u + * ; :.b.b.b.b.b.b.b.b.b.b.b.b.b.",
"a.l.b.a.y.b.b.b.b.a.b.b.b.5 # = = = w 0 7 6 5 1 1 3 3 6 0 w e e r e 7 q v b.y.b.q.b.u + & ; :.b.y.a.y.b.b.b.b.y.b.y.b.b.",
"y.b.y.b.b.l.l.y.y.y.b.u.p.4 # = = = w 0 7 6 6 3 2 2 3 5 8 q e r r w 7 0 c b.y.b.q.b.u O % ; :.a.y.l.y.b.y.b.b.b.y.b.l.y.",
"y.y.y.y.y.y.l.y.y.y.b.y.a.5 # = = = 0 0 7 6 4 1 1 1 3 4 0 q e e r w 6 0 c b.q.b.q.b.u @ = - :.b.y.b.y.b.b.y.y.y.b.b.l.l.",
"i.y.i.y.q.i.i.y.q.q.t.q.a.3 # = = = 0 0 6 6 4 1 1 1 3 6 9 q e r e w 7 0 x b.8.y.8.b.u O % - :.a.y.l.y.y.y.b.b.a.y.b.b.b.",
"y.i.y.i.q.q.i.i.q.6.q.9.y.3 # = = = 0 0 6 6 4 3 2 1 3 5 9 q e e e q 6 0 x b.q.q.9.b.u O % - :.a.y.b.a.b.b.b.y.b.b.y.b.y.",
"q.q.8.q.q.6.6.6.6.4.4.4.9.3 # = = = q q 8 6 6 3 3 3 3 7 9 q e q q 0 6 0 x b.9.9.9.a.u O % = :.a.y.y.y.b.y.l.y.y.l.y.y.b.",
"9.6.6.6.4.6.6.4.4.1.4.1.4.1 @ = & = 0 0 8 7 7 4 4 4 6 6 9 0 q q q 0 4 9 z a.4.4.9.b.u + % - :.b.q.y.y.y.y.y.y.y.y.y.y.y.",
"5.5.4.4.<.1.1.:.-.:.:.;.-.> @ - + # r 0 0 7 7 6 4 4 4 5 7 7 7 5 0 8 0 9 z 8.r.6.6.y.u o % = +.b.7.i.s.s.w.w.w.w.q.q.q.q.",
"5.5.4.1.1.:.:.:.-.=.*.| $.< # - # $ w 8 7 6 5 5 4 4 4 5 8 0 q q q 0 e w g / { %.:.9.u O % = +.7.;.>.3.6.6.6.8.w.9.9.7.7.",
"<.<.1.:.:.:.*.*.O.O.[ E [ 1 # & & & w 0 0 9 8 8 0 0 0 9 8 0 0 q y i d j v S D F J ) t O % = ~ *.=.;.:.;.>.,.3.3.4.4.4.9.",
",.1.:.:.-.-.*.*.[ [ _ Y / > @ = & * q 9 9 8 8 8 7 0 w y i a j j z x c m m M V A D J w O % = I } ] [ #.*.%.=.=.;.:.1.1.1.",
"4.4.1.1.:.;.-.*.{ [ ] Y J > O - + & 5 8 w y y i f g j j z z v v n M m M N M V V N N 6 # $ $ B K Y E ( ' #.%.=.;.:.:.1.1.",
"9.9.6.4.4.4.4.:.3.;.O.R S < & & 8 q a j j z x n b n m M N N N N N N C V A V V m N x 6 @ $ - N Y / ` [ &.%.;.;.;.1.1.1.4.",
"q.q.q.6.9.9.4.4.;.;.;.;.$.S Z C Z A A Z Z Z C C C C C C C S C S F D D V S S D D C C B n N N T _ &.%.;.;.;.>.,.;.1.4.1.4.",
"q.9.9.9.q.9.6.4.5.3.;.>.;.#.#./ T T J J J J G J J F F G F J J H J F L H L J J J J J U F T ! ] ] ..&.;.;.;.,.;.,.1.1.1.4.",
"9.8.q.6.8.6.6.4.4.1.:.-.=.$.+.{ ( / / / / ! T Y Y Y Y U U U P Y L P Y Y T T R R R E E E ( ( ` ] #.&.-.-.;.>.>.>.>.1.<.<.",
"8.q.q.8.9.6.6.6.4.1.:.:.;.=.%.$.#.X._ X.] ` ` ` / / / / / / / / ^ ^ / / / ` ` / / ` ` ` [ [ +.+.&.&.-.;.;.;.>.>.>.>.<.4.",
"8.6.6.8.6.6.4.4.1.1.1.:.:.:.=.-.=.=.$.$.$.$.#.{ [ | | [ [ [ [ [ [ [ X.] [ { +.{ { { +.+.$.%.%.%.&.-.-.=.;.>.>.>.1.1.<.4.",
"q.q.9.9.6.4.4.4.1.1.1.1.,.:.:.:.=.=.%.=.=.%.=.%.$.$.O.O.+.#.$.+.{ { #.{ $.$.$.$.%.$.*.*.%.%.;.;.-.-.;.;.;.:.>.>.1.1.1.4."
};
