/* XPM */
static char *result[] = {
/* columns rows colors chars-per-pixel */
"60 60 200 2 ",
"   c #0A0C0C",
".  c #060708",
"X  c #0D0E10",
"o  c #0E1617",
"O  c #101214",
"+  c #141719",
"@  c #1A1818",
"#  c #2A0C00",
"$  c #2B140A",
"%  c #241813",
"&  c #391406",
"*  c #15231C",
"=  c #1C251C",
"-  c #0C2726",
";  c #1C2C2F",
":  c #182629",
">  c #1A332D",
",  c #1C2D31",
"<  c #1B373A",
"1  c #0D3737",
"2  c #282522",
"3  c #272422",
"4  c #263A2D",
"5  c #233529",
"6  c #333230",
"7  c #451401",
"8  c #4B1703",
"9  c #461806",
"0  c #4D1905",
"q  c #451C0C",
"w  c #531A05",
"e  c #5D1E06",
"r  c #561D09",
"t  c #591F0A",
"y  c #611F08",
"u  c #5D210C",
"i  c #542E16",
"p  c #522818",
"a  c #50331C",
"s  c #492A18",
"d  c #63210B",
"f  c #6E240A",
"g  c #74260B",
"h  c #79270C",
"j  c #7B280C",
"k  c #642610",
"l  c #642914",
"z  c #6A2F19",
"x  c #722C17",
"c  c #782F1A",
"v  c #7E341D",
"b  c #743518",
"n  c #4A3F2D",
"m  c #503025",
"M  c #563C24",
"N  c #432F25",
"B  c #743622",
"V  c #653922",
"C  c #1E443D",
"Z  c #264236",
"A  c #384638",
"S  c #56452A",
"D  c #4B4735",
"F  c #714D35",
"G  c #283F44",
"H  c #154849",
"J  c #155B5C",
"K  c #175655",
"L  c #135354",
"P  c #2A4045",
"I  c #274449",
"U  c #2D464C",
"Y  c #2A5449",
"T  c #3C5D49",
"R  c #385558",
"E  c #2E4F51",
"W  c #3E604B",
"Q  c #336758",
"!  c #3B5D65",
"~  c #196969",
"^  c #167C7C",
"/  c #226A6A",
"(  c #3D646A",
")  c #3F6C74",
"_  c #3E747B",
"`  c #397973",
"'  c #217A75",
"]  c #424744",
"[  c #41575A",
"{  c #745D49",
"}  c #4B765B",
"|  c #4A755A",
" . c #5A7A5B",
".. c #6E674D",
"X. c #405D63",
"o. c #40656D",
"O. c #406870",
"+. c #527F63",
"@. c #696B6B",
"#. c #852C0F",
"$. c #84361F",
"%. c #8D371E",
"&. c #953314",
"*. c #93371D",
"=. c #94391D",
"-. c #9A391D",
";. c #9C3715",
":. c #882E10",
">. c #A13B1E",
",. c #AD3D1B",
"<. c #AA3916",
"1. c #B53D18",
"2. c #8D3B23",
"3. c #853923",
"4. c #923D24",
"5. c #9B3D22",
"6. c #A33D21",
"7. c #934119",
"8. c #B8421D",
"9. c #8E462D",
"0. c #964729",
"q. c #874734",
"w. c #8F503D",
"e. c #A74325",
"r. c #BA4624",
"t. c #BA4725",
"y. c #A4522D",
"u. c #AD542D",
"i. c #BD572D",
"p. c #B14E30",
"a. c #C8451D",
"s. c #D1471E",
"d. c #D64A1F",
"f. c #D84A1F",
"g. c #C44925",
"h. c #CB4B25",
"j. c #C94D28",
"k. c #D44B23",
"l. c #D94C22",
"z. c #E24E22",
"x. c #E95024",
"c. c #F25324",
"v. c #FB5525",
"b. c #FB5D2A",
"n. c #DD7233",
"m. c #C66E37",
"M. c #E57435",
"N. c #F86F32",
"B. c #865546",
"V. c #816259",
"C. c #1E817E",
"Z. c #558668",
"A. c #55896B",
"S. c #619976",
"D. c #688A66",
"F. c #6AA57D",
"G. c #66A37C",
"H. c #E8833D",
"J. c #FB833C",
"K. c #E99343",
"L. c #F89243",
"P. c #1E7E80",
"I. c #3C7C83",
"U. c #1B8485",
"Y. c #26888A",
"T. c #3B868C",
"R. c #3A8D93",
"E. c #378D93",
"W. c #38959A",
"Q. c #34989A",
"!. c #2F999C",
"~. c #379DA2",
"^. c #1FB0AF",
"/. c #1FB2B1",
"(. c #1DA9A8",
"). c #28A6A6",
"_. c #36A7AB",
"`. c #34ADB1",
"'. c #34B2B6",
"]. c #32BBBD",
"[. c #2CBBBC",
"{. c #6CAC84",
"}. c #6FB288",
"|. c #71B287",
" X c #71B58B",
".X c #E6E6E6",
"XX c #70AE84",
"oX c #25CECD",
"OX c #2DC7C8",
"+X c #31C7C9",
"@X c #31C4C6",
"#X c #25D0CF",
"$X c #2BCDD0",
"%X c #24D1D1",
"&X c #2FD4D5",
"*X c #2CD7D8",
"=X c #2DDBDB",
"-X c #26D8D8",
";X c #2DDFE1",
":X c #2CE2E3",
/* pixels */
".X.X.X.X.X.X.X.X.X.X.X.X.X.X.X.X.X.X.X.X.X.X.X.X.X.X.X.X.X.X.X.X.X.X.X.X.X.X.X.X.X.X.X.X.X.X.X.X.X.X.X.X.X.X.X.X.X.X.X.X",
".X.X.X.X.X.X.X.X.X.X.X.X.X.X.X.X.X.X.X.X.X.X.X.X.X.X.X X.X.X.X.X.X.X.X.X.X.X.X.X.X.X.X.X.X.X.X.X.X.X.X.X.X.X.X.X.X.X.X.X",
".X.X.X.X.X.X.X.X.X.X.X.X.X.X.X.X.X.X.X.X.X.X.X}.}. X4 * * * * = a a a a S .X.X.X.X.X.X.X.X.X.X.X.X.X.X.X.X.X.X.X.X.X.X.X",
".X.X.X.X.X.X.X.X.X.X.X.X.X.X.X.X.X.X.X.X.X}.{.Z.- - %X-X*X-XOXl c.M.b s.9.S }..X.X.X.X.X.X.X.X.X.X.X.X.X.X.X.X.X.X.X.X.X",
".X.X.X.X.X.X.X.X.X.X.X.X.X.X.X.X.X.X X XS.A.H ~ $X$X+XT.o.[ z c.N.m.u l.2.w F {..X.X.X.X.X.X.X.X.X.X.X.X.X.X.X.X.X.X.X.X",
".X.X.X.X.X.X.X.X.X.X.X.X.X.X.X.X.X.XG.T / ^ :XW.o.( ) =X[ v z.b.J.g.u l.-.g 6.{ }..X.X.X.X.X.X.X.X.X.X.X.X.X.X.X.X.X.X.X",
".X.X.X.X.X.X.X.X.X.X.X.X.X.X.X.X.X}.Y (.Q.R.W._.o.o.: 1 % 1.v.H.=.g.u d.>.j t.t Z .X.X.X.X.X.X.X.X.X.X.X.X.X.X.X.X.X.X.X",
".X.X.X.X.X.X.X.X.X.X.X.X.X.X X X X> -X[.) ( ( E.~   O O $ 1.v.K.g g.u l.6.h g.t ).Z .X.X.X.X.X.X.X.X.X.X.X.X.X.X.X.X.X.X",
".X.X.X.X.X.X.X.X.X.X.X.X.X.X.XG.Z [.o.W.).R U . X @ + % #.v.v.K.f k.k l.6.h g.r & /.Y |..X.X.X.X.X.X.X.X.X.X.X.X.X.X.X.X",
".X.X.X.X.X.X.X.X.X.X.X.X.X.X{.Q ).O.o.o.Y.o   + + + + @ #.v.N.m.f l.d l.6.h h.t q A.Y.Q F..X.X.X.X.X.X.X.X.X.X.X.X.X.X.X",
".X.X.X.X.X.X.X.X.X.X.X.X.X.X} U.+X) o.U + O + + + + + q a.v.L.4.f l.y k.2.h k.y *.] $XL S..X.X.X.X.X.X.X.X.X.X.X.X.X.X.X",
".X.X.X.X.X.X.X.X.X.X.X.X.XG.K !.T.@XR O O + + + + + @ d v.v.J.9.h l.y l.$.h k.t l.N T.).C .X.X.X.X.X.X.X.X.X.X.X.X.X.X.X",
".X.X.X.X.X.X.X.X.X.X.X.X.XS.L ~.( ( X + + + + + + + + d v.v.L.0.f l.d l.3.h k.y f.s o.].1 F..X.X.X.X.X.X.X.X.X.X.X.X.X.X",
".X.X.X.X.X.X.X.X.X.X.X.X}.- @X( o.U . + + + + + + + % #.v.b.H.0.f l.d l.2.h k.t f.p [ o.&X* .X.X.X.X.X.X.X.X.X.X.X.X.X.X",
".X.X.X.X.X.X.X.X.X.X.X.X} ~ `._._ . + + + + + + + + 9 v.v.J.y.-.g k.y l.6.h k.d z.B A _._.~ A..X.X.X.X.X.X.X.X.X.X.X.X.X",
".X.X.X.X.X.X.X.X.X.X.X.X* *XI.W.< O + + + + + + + + 8 v.v.J.y.>.y j.t l.5.h k.y z.2.n W.` oXZ .X.X.X.X.X.X.X.X.X.X.X.X.X",
".X.X.X.X.X.X.X.X.X.X.X X+ *Xo.o.o + + + + + + + + + 9 v.v.N.y.e.y h.y k.>.h k.d z.*.$ G o.#X5 .X.X.X.X.X.X.X.X.X.X.X.X.X",
".X.X.X.X.X.X.X.X.X.X.X{.> +Xo.( o + + + + + + + + + 9 v.c.M.0.3.g g.u l.$.h h.e z.4.# G ( @XZ F..X.X.X.X.X.X.X.X.X.X.X.X",
".X.X.X.X.X.X.X.X.X.X.X4 oXE.R.< O + + + + + + + + + 9 x.>.g g g y <.r l.%.h r.t z.3.# E R.Q.^.W .X.X.X.X.X.X.X.X.X.X.X.X",
".X.X.X.X.X.X.X.X.X.X.X4 %X`.`.H O + + + + + + + + + 9 h.#.k.g.t.&.&.e :.k h g.t z.B # / `.'.^.W .X.X.X.X.X.X.X.X.X.X.X.X",
".X.X.X.X.X.X.X.X.X.X.X4 oXo.( ; X + + + + + + + + + 9 s.#.r.4.V.6.6.g.a.1.w d 0 l.$.# G o.O.^.W .X.X.X.X.X.X.X.X.X.X.X.X",
".X.X.X.X.X.X.X.X.X.X.X4 oXo.O., + + + + + + + + + + 9 c.<.w 8 9.2.B.w.5.6.l.l.f e 0 # G O._ ^.W .X.X.X.X.X.X.X.X.X.X.X.X",
".X.X.X.X.X.X.X.X.X.X.X4 oXI.I.< X + + + + + + + + + 9 v.v.-.r 7 7 y $.$.@.5.4.j.z.a.e R T.T./.[ .X.X.X.X.X.X.X.X.X.X.X.X",
".X.X.X.X.X.X.X.X.X.X.X4 %X].].L O + + + + + + + + + 9 v.v.J.y.f e y 7 7 x x F q.4.B.&.` ].@X/.[ .X.X.X.X.X.X.X.X.X.X.X.X",
".X.X.X.X.X.X.X.X.X.X.X4 oXo.o.; X + + + + + + + + + 9 v.v.J.y.e.f 1.r &.7 7 r d l w.x ] O.O./.W .X.X.X.X.X.X.X.X.X.X.X.X",
".X.X.X.X.X.X.X.X.X.X.X4 oXo.o.; O + + + + + + + + + 9 v.v.J.i.%.g g.t l.c g #.7 7 r & G O.I./.W .X.X.X.X.X.X.X.X.X.X.X.X",
".X.X.X.X.X.X.X.X.X.X.X4 oX_ _ , O + + + + + + + + + 9 v.v.J.i.2.f g.t l.3.h r.r a.9 # I O.T./.W .X.X.X.X.X.X.X.X.X.X.X.X",
".X.X.X.X.X.X.X.X.X.X.X4 %X&X&XK O + + + + + + + + + 9 v.v.J.u.B g h.t k.%.h g.t z.$.# Y.&X=X/.W .X.X.X.X.X.X.X.X.X.X.X.X",
".X.X.X.X.X.X.X.X.X.X.X4 oXo.o.; O + + + + + + + + + 9 v.v.J.F D l j.u l.6.h t.t z.$.# G o.O./.W .X.X.X.X.X.X.X.X.X.X.X.X",
".X.X.X.X.X.X.X.X.X.X.X4 oXo.o.; O + + + + + + + + + 9 v.v.J.n @.m g.u k.6.h g.t z.%.# G O.I./.W .X.X.X.X.X.X.X.X.X.X.X.X",
".X.X.X.X.X.X.X.X.X.X X4 oX) ) ; O + + + + + + + + + 9 v.v.J.n @.m h.e l.6.h g.t z.-.# G O.O./.W .X.X.X.X.X.X.X.X.X.X.X.X",
".X.X.X.X.X.X.X.X.X.X X4 %X;X;XJ O + + + + + + + + + 9 v.v.J.y.2 f l.y k.6.h k.y z.*.# U.=X:X/.W .X.X.X.X.X.X.X.X.X.X.X.X",
".X.X.X.X.X.X.X.X.X.X.X4 oXO.o., O O + + + + + + + + 9 v.v.J.u.2 f l.d l.5.h h.y z.5.# G ( _ /.T .X.X.X.X.X.X.X.X.X.X.X.X",
".X.X.X.X.X.X.X.X.X.X.X4 oXo.o.; O + + + + + + + + + 9 v.v.J.i.2 f l.d f.%.j k.y z.%.# G ( I.^.[ .X.X.X.X.X.X.X.X.X.X.X.X",
".X.X.X.X.X.X.X.X.X.X.X4 oX) o.; O + + + + + + + + + 9 v.v.J.i.3 g l.f k.3.j g.t z.$.# G o._ /.W .X.X.X.X.X.X.X.X.X.X.X.X",
".X.X.X.X.X.X.X.X.X.X.X4 %X=X;XJ O + + + + + + + + + 9 v.v.J.y.3 f l.d f.5.h g.t z.*.# P.=X:X^.W .X.X.X.X.X.X.X.X.X.X.X.X",
".X.X.X.X.X.X.X.X.X.X.X4 oXo.o., O + + + + + + + + + 9 c.v.J.0.6 k l.d l.>.j g.t z.-.# P o._ /.W .X.X.X.X.X.X.X.X.X.X.X.X",
".X.X.X.X.X.X.X.X.X.X.X4 oXo.o., O + + + + + + + + + 9 v.v.J.D @.m k.d d.6.j h.t z.-.# P o._ /.W .X.X.X.X.X.X.X.X.X.X.X.X",
".X.X.X.X.X.X.X.X.X.X.X4 oXo.o.; O + + + + + + + + + 9 v.v.J.D @.m g.u l.6.h k.y z.-.# P o._ /.W .X.X.X.X.X.X.X.X.X.X.X.X",
".X.X.X.X.X.X.X.X.X.X.X4 %X*X*XJ O + + + + + + + + + 9 v.v.J.9.6 l j.u l.%.h k.t z.$.# U.*X=X/.W .X.X.X.X.X.X.X.X.X.X.X.X",
".X.X.X.X.X.X.X.X.X.X.X4 oXO.O.< O + + + + + + + + + 9 v.v.J.y.5.f h.t l.$.h g.t l.$.# I O.T./.[ .X.X.X.X.X.X.X.X.X.X.X.X",
".X.X.X.X.X.X.X.X.X.X.X4 oXo.o.; O + + + + + + + + + 9 v.v.J.u.>.f l.y l.3.h g.u l.x # P o.O./.W .X.X.X.X.X.X.X.X.X.X.X.X",
".X.X.X.X.X.X.X.X.X.X.X4 oXo.o.; O + + + + + + + + + 9 v.v.J.i.5.f l.d l.$.h ,.w &.:.g N o.` /.W .X.X.X.X.X.X.X.X.X.X.X.X",
".X.X.X.X.X.X.X.X.X.X.X4 %X+X+XK O + + + + + + + + + 9 v.v.J.i.2.f h.y l.u w 5.1.8.r.-.t Q.+X/.W .X.X.X.X.X.X.X.X.X.X.X.X",
".X.X.X.X.X.X.X.X.X.X.X4 oXI._ < O O + + + + + + + + 9 v.v.J.i.2.f >.8 y k.l.t.5.0.{ 2.u | T./.T .X.X.X.X.X.X.X.X.X.X.X.X",
".X.X.X.X.X.X.X.X.X.X.X4 oXo.o.; O + + + + + + + + + 9 v.c.n.0.d y &.z.z.4.4.B.q.2.c 9 ] ( _ /.W .X.X.X.X.X.X.X.X.X.X.X.X",
".X.X.X.X.X.X.X.X.X.X.X4 oXo.o.; O + + + + + + + + + 9 x.;.j j h.l.p.2.4.{ c c w 9 7 # G o._ /.W .X.X.X.X.X.X.X.X.X.X.X.X",
".X.X.X.X.X.X.X.X.X.X.X4 %X'.'.H O + + + + + + + + + 9 s.:.k.g.B.2.B.B l k 7 7 7 &.k # / '.]./.W .X.X.X.X.X.X.X.X.X.X.X.X",
".X.X.X.X.X.X.X.X.X.X.X4 oXR.R.< O + + + + + + + + + 9 s.:.r.2.q.t t 8 7 7 f >.w z.=.# K R.W./.W .X.X.X.X.X.X.X.X.X.X.X.X",
".X.X.X.X.X.X.X.X.X.X.X4 oXo.( ; O + + + + + + + + + 9 c.,.w 0 8 7 8 7 a.*.h h.y z.=.# P O.O./.W .X.X.X.X.X.X.X.X.X.X.X.X",
".X.X.X.X.X.X.X.X.X.X.X5 oXo.o.; O + + + + + + + + + 7 v.v.;.u w f h.u l.6.#.k.y z.v # P O._ /.T .X.X.X.X.X.X.X.X.X.X.X.X",
".X.X.X.X.X.X.X.X.X.X.X| C.G G +   X X X X X X X X X 7 c.v.J.i.5.f l.d l.*.h h.d z.$.# : P U ' A..X.X.X.X.X.X.X.X.X.X.X.X",
".X.X.X.X.X.X.X.X.X.X.X.XZ.} } } } } } } } } } } } } p v.v.J.u.,.f l.y l.$.h h.u f.V  .} } } A..X.X.X.X.X.X.X.X.X.X.X.X.X",
".X.X.X.X.X.X.X.X.X.X.X.X.X.X.X.X.X.X.X.X.X.X.X.X.X.Xi v.v.J.y.e.f l.f l.$.h r.u l F..X.X.X.X.X.X.X.X.X.X.X.X.X.X.X.X.X.X",
".X.X.X.X.X.X.X.X.X.X.X.X.X.X.X.X.X.X.X.X.X.X.X.X.X.Xi v.v.J.y.>.f k.y l.3.h *.D. X.X.X.X.X.X.X.X.X.X.X.X.X.X.X.X.X.X.X.X",
".X.X.X.X.X.X.X.X.X.X.X.X.X.X.X.X.X.X.X.X.X.X.X.X.X.Xi v.v.J.y.5.f j.t l.B M D..X.X.X.X.X.X.X.X.X.X.X.X.X.X.X.X.X.X.X.X.X",
".X.X.X.X.X.X.X.X.X.X.X.X.X.X.X.X.X.X.X.X.X.X.X.X.X.Xi v.v.J.u.3.f j.u &....X.X.X.X.X.X.X.X.X.X.X.X.X.X.X.X.X.X.X.X.X.X.X",
".X.X.X.X.X.X.X.X.X.X.X.X.X.X.X.X.X.X.X.X.X.X.X.X.X.Xi v.v.J.y.2.f ,...D..X.X.X.X.X.X.X.X.X.X.X.X.X.X.X.X.X.X.X.X.X.X.X.X",
".X.X.X.X.X.X.X.X.X.X.X.X.X.X.X.X.X.X.X.X.X.X.X.X.X.Xi v.v.J.y.3.9 { {. X.X.X.X.X.X.X.X.X.X.X.X.X.X.X.X.X.X.X.X.X.X.X.X.X",
".X.X.X.X.X.X.X.X.X.X.X.X.X.X.X.X.X.X.X.X.X.X.X.X.X XS l.f.n.0.M  X.X.X.X.X.X.X.X.X.X.X.X.X.X.X.X.X.X.X.X.X.X.X.X.X.X.X.X"
};