/* XPM */
static char *_c9d16bdb7ac4429c662ae3309b5c04bnNUrHX4Q1rJyiq9H[] = {
/* columns rows colors chars-per-pixel */
"60 60 199 2 ",
"   c #EEBC30",
".  c #E6B93D",
"X  c #EDBE39",
"o  c #E7B937",
"O  c #EEC03D",
"+  c #E4BA45",
"@  c #EABE43",
"#  c #E5BD4C",
"$  c #E8BF4A",
"%  c #E4BE55",
"&  c #E3BF5A",
"*  c #EEC143",
"=  c #ECC24B",
"-  c #F0C344",
";  c #F0C54B",
":  c #E6C055",
">  c #EDC453",
",  c #EEC759",
"<  c #EEC95D",
"1  c #E4C15D",
"2  c #F1C752",
"3  c #F1C856",
"4  c #F1CA5B",
"5  c #DEC375",
"6  c #DCC37C",
"7  c #E3C162",
"8  c #EAC662",
"9  c #EDCA64",
"0  c #E1C16A",
"q  c #EBCA6C",
"w  c #F1CB62",
"e  c #F2CE6B",
"r  c #F3D06E",
"t  c #EBCE7C",
"y  c #E6C977",
"u  c #EED07D",
"i  c #F3D272",
"p  c #F3D47B",
"a  c #274185",
"s  c #294386",
"d  c #2E4788",
"f  c #2F488A",
"g  c #324A8B",
"h  c #384F8E",
"j  c #3D5491",
"k  c #455C96",
"l  c #405793",
"z  c #4C629A",
"x  c #566A9E",
"c  c #52679D",
"v  c #5C6FA1",
"b  c #6375A5",
"n  c #697BA9",
"m  c #6F80AD",
"M  c #7383AF",
"N  c #7B8AB3",
"B  c #818FB6",
"V  c #8492B7",
"C  c #8694BA",
"Z  c #939FBD",
"A  c #B3B6BE",
"S  c #DEC683",
"D  c #DDC789",
"F  c #DCC995",
"G  c #DBCB9D",
"H  c #D7C89D",
"J  c #E5CC83",
"K  c #ECD081",
"L  c #ECD48E",
"P  c #F2D584",
"I  c #F4D98D",
"U  c #E6D197",
"Y  c #EBD593",
"T  c #EAD59A",
"R  c #E9D59B",
"E  c #F6DC94",
"W  c #F6DE9C",
"Q  c #F7E09E",
"!  c #DDCDA2",
"~  c #D7CBA9",
"^  c #D9CEAE",
"/  c #DFD0A6",
"(  c #DED2AE",
")  c #D8CFB5",
"_  c #D6CFBA",
"`  c #DDD2B4",
"'  c #DAD2BC",
"]  c #D7D0BB",
"[  c #E0CFA1",
"{  c #E1D0A3",
"}  c #EAD7A1",
"|  c #ECD9A5",
" . c #E5D6AD",
".. c #ECDCAC",
"X. c #F0DCA5",
"o. c #E3D7B5",
"O. c #E7DAB3",
"+. c #EBDDB2",
"@. c #E4D9BB",
"#. c #EBDEBB",
"$. c #E1D7BB",
"%. c #F7E2A5",
"&. c #F8E4AC",
"*. c #F7E4AD",
"=. c #EEE1BA",
"-. c #F9E7B5",
";. c #F7E6BA",
":. c #F9E9BA",
">. c #F8E8BB",
",. c #929FC0",
"<. c #9BA7C5",
"1. c #A3AECA",
"2. c #AAB4CE",
"3. c #B5BED4",
"4. c #B7C0D6",
"5. c #BCC5D8",
"6. c #CECECE",
"7. c #CCCAC4",
"8. c #D2CEC3",
"9. c #D6D2C4",
"0. c #DAD4C4",
"q. c #D4D2CE",
"w. c #DAD5CA",
"e. c #DED9CB",
"r. c #DFD8C3",
"t. c #C2C9DB",
"y. c #C7CCDA",
"u. c #CDD1DA",
"i. c #D4D4D4",
"p. c #D9D7D4",
"a. c #DCDAD5",
"s. c #DBDBDB",
"d. c #D2D5D9",
"f. c #E3DAC2",
"g. c #E2DDCD",
"h. c #E8DEC3",
"j. c #E2DFD6",
"k. c #ECE4CB",
"l. c #EAE1C6",
"z. c #FAEBC2",
"x. c #F6EBCB",
"c. c #FBEECD",
"v. c #F1E5C2",
"b. c #E5E1D4",
"n. c #E9E4D5",
"m. c #E4E2DD",
"M. c #EAE6DB",
"N. c #EFEADA",
"B. c #F4ECD6",
"V. c #F1ECDC",
"C. c #FBF1D4",
"Z. c #F9F1DB",
"A. c #F7F0DD",
"S. c #CDD3E1",
"D. c #DADEE9",
"F. c #D7DBE7",
"G. c #E6E5E2",
"H. c #E4E4E4",
"J. c gray90",
"K. c #E5E5E4",
"L. c #E6E6E6",
"P. c #E7E7E7",
"I. c #E7E6E6",
"U. c #E6E6E4",
"Y. c #E2E2E2",
"T. c #EBEAE4",
"R. c #E2E5EC",
"E. c #E6E8EF",
"W. c gray91",
"Q. c #E9E9E9",
"!. c #EAEAEA",
"~. c gray92",
"^. c #EBEBEA",
"/. c #ECECEC",
"(. c gray93",
"). c #EDEDEC",
"_. c #EEEEEE",
"`. c #EFEFEF",
"'. c #ECECEB",
"]. c #F0EDE4",
"[. c #F5F1E6",
"{. c #FDF7E6",
"}. c #FDF7E6",
"|. c #FCF7EB",
" X c #FDF9EC",
".X c #F6F2EB",
"XX c #E7EAF0",
"oX c #EDEFF5",
"OX c gray94",
"+X c #F1F1F1",
"@X c #F2F2F2",
"#X c #F3F3F4",
"$X c #F8F7F7",
"%X c #FEFCF7",
"&X c #FDFBF4",
"*X c #FFFFFF",
"=X c #FDFDFD",
"-X c #FEFEFE",
";X c #F7F8FA",
/* pixels */
"P.W.P.P.P.P.P.P.J.H.H.H.H.H.H.Y.H.J.J.W.^./.(.(.`.(.`.^.^.W.J.H.Y.Y.Y.H.H.H.P.Y.L.L.W.).).W.W.W.).).`.`.`.'.L.'._.+X+X+X",
"P.P.P.Y.Y.Y.P.P.H.H.H.Y.H.H.Y.H.J.J.W.W.!.).^./.).).^.T.M.M.H.j.m.m.Y.H.H.H.Y.Y.L.L.W.'.W.L.H.H.E.).`.`._.'.'.'._.+X+X_.",
"Y.P.Y.Y.Y.Y.Y.P.H.H.Y.Y.Y.H.H.H.H.W.W.J.W.^.T.M.l.#.+.X.W T T T } ..#.k.m.U.P.Y.W.W.W.W.W.H.Y.H.'.'.`.`.`.).'.'._.+X+X`.",
"s.Y.Y.Y.P.P.H.Y.H.j.D.Y.Y.H.W.W.W.W.H.n.#.Y u < ; - X X X X X X O * = = q Y ..b.Y.L.W.W.W.Y.Y.H.W.`._.`.).).'.L.W.+X+X_.",
"Y.s.Y.Y.Y.Y.P.Y.H.H.Y.Y.H.H.U.U.m.g.X.t < - X X                       X X * > r R l.m.L.W.Y.Y.H.W._.`._.).).E.L.P.`.+X`.",
"Y.Y.Y.s.Y.Y.Y.P.J.J.H.Y.Y.H.H.n.| e ; X X                                       = 9 | b.P.Y.Y.Y.'._.`._.~.W.'.'.P._.+X+X",
"Y.s.Y.Y.Y.Y.Y.Y.Y.H.H.H.j.g.} , @                                                   O 3 L b.Y.Y.W.`.OXW.L.'.W.L.P._.+X+X",
"Y.Y.Y.Y.Y.m.m.D.j.H.H.H.#.K 2 X                                                       O * K $.m.W._.OX).W.L.P.P.P.)._.+X",
"H.Y.D.j.Y.Y.s.Y.Y.m.m.#.w -                                                               O q ..P._.`._.W.).P.P.H.W._._.",
"Y.Y.H.j.Y.j.s.Y.D.j.T >                                                                     X = | G.`._._._.W.P.Y.P.W._.",
"Y.Y.D.j.Y.D.s.s.j.T > X                                                                         , | T.+X_.OXW.P.Y.Y.~._.",
"Y.Y.m.D.Y.j.s.s.$.> X                                                                           X , +.)._.+XW.P.D.P.).+X",
"Y.Y.Y.Y.m.D.s.@.8 X                                                                               X = k.)._.W.W.G.^._.+X",
"Y.Y.D.H.m.m.g.J @                                                                                   X u B.+X_._.).W._.+X",
"H.Y.Y.H.Y.H.} =                                                                                       = | $X+X_.).W.).).",
"P.P.Y.j.s.g.>                                                                                           > v.+XOXW.W.W.W.",
"!.W.W.j.j.U X                                                                                           X K @X`.!.I.I.I.",
"!.!.!.Y.r.8                               O * ; ; * O O                               O - = ; - X X       @ N.`.!.I.I.E.",
"/.!.U.Y.U @                           - p *.z.c.c.-.Q 4 O                       O O r Q -.c.c.z.W i ;     X T ].!.I.H.H.",
"~.J.H.j.y                         O w %.Z. X%X%X&X X}.-.p O                     ; P c.}.&X%X-X%X Xc.W 2 X   w j.!.J.Y.Y.",
"!.H.Y.f.2                         2 -.}.*X*X=X*X*X=X=X$Xz.p O O               ; I c.-X-X-X*X*X*X=X$X{.E 2   $ #.I.Y.Y.s.",
"!.H.Y.U X                       ; %.&X*X*X*X*X=XE.S.5.u.W.B.4 O             X I C.-X*X*X*X-X#XF.t.t.F.V.E - X Y I.Y.s.s.",
"oXJ.H.y X                     O i C.-X*X*X*X=XXX,.b c b Z d.I -             ; ;.|.=X*X*X*XoX4.N x x n y.#.w X t G.Y.s.d.",
"OX/.W.8                       O E }.*X*X*X*X#X3.k f s s z Z *.2             4 Z.@X-X*X*X-Xu.m h s s g B 8.p X q j.s.i.i.",
"@X(.T.$                       ; %.&X*X*X*X=XR.V f a a a f v $.w           O e [.$X=X*X*X=X<.k a s a s z A L X > f.s.i.i.",
"OX/.M.$                       ; %. X*X*X*X=XE.C d a a a f b $.w           O e [.$X=X*X*X=X1.k a a a s x A L X $ $.s.i.i.",
"(.^.M.@                       O W }.*X*X*X*XoX2.j d a s l V +.3             4 Z.+X$X=X*X=X5.b f s s g n 8.P   $ o.j.s.s.",
"(./.M.@                         i c.*X*X*X*X=XoX<.n x n <.s.I ;             ; -.T._.$X*X*X#Xt.B x x N u.=.w   @ ` Y.s.s.",
"~.~.n.@                         ; W &X-X*X*X*X-XE.S.t.d.P.x.4 X             O P x._.`.$X=X=X#XD.t.y.D.B.I -   $  .Y.Y.Y.",
"~.W.n.@                         O 4 z..X$X-X*X*X*X=X;X$XC.E O                 3 | N.'.#X=X*X*X=X;X$X X%.3     @  .Y.Y.H.",
"W.!.n.X                           X 9 ..N.).&X-X%X X}.-.i -                     = P k.V. X%X%X&X Xc.W ;       @  .I.I.I.",
"J.H.j.@                             X 4 Y l.>.z.:.&.I 4 O                       X * r I &.z.z.-.E e ;         @  .H.I.I.",
"Y.Y.g.@                                   $ 2 4 3 ; @                                 O ; 3 3 2 - X           @ ..Y.I.I.",
"D.m.g.@                                                                                                       @ } Y.Y.Y.",
"D.j.g.@                                                                                                       @ [ F.j.F.",
"j.s.g..                                                                                                       @ [ a.i.a.",
"s.s.e.@                                                                                                       @ [ i.i.s.",
"d.s.e.@                                                                                                       @ [ i.i.d.",
"p.a.g.@                                                                                                       @ G i.a.s.",
"d.a.w.@                                                                                                       $ G 6.i.j.",
"i.d.w.X                                                                                                       @ ! 6.i.s.",
"i.i.9.@                                                                                                       @ ! i.i.s.",
"i.i.9..                                                                                                       @ [ i.i.s.",
"d.i._                                                                                                         X [ i.i.s.",
"p.p.w.@                                                                                                       @ [ s.a.s.",
"s.s.e.@                                                                                                       @ [ s.s.s.",
"s.s.e.X                                                                                                       @ [ a.F.a.",
"s.d.0.@                                                                                                       $ [ F.j.s.",
"p.i.0.*                                                                                                       @ { s.s.s.",
"i.d.9.X                                                                                                       @ [ s.s.s.",
"6.6.] .                                                                                                       @ [ s.a.F.",
"6.6.8.@               o $ % +                         o . + . o                         o % 7 & o             $  .F.s.j.",
"6.6.8.@             $ 5 ` f.` 0 .                   . 6 G ) ~ S #                     X 0 _ 9.9.J %           $ ` a.s.s.",
"7.6.8.$           $ F w.s.s.s.e.y o               + 5 i.a.s.s.p.H +                 o 5 8.q.i.i.q.F $         $ ` s.s.s.",
"6.6.8.: o     o # ] i.s.s.s.s.s.w.S o           . J p.a.d.a.s.d.i.~ %             X J q.q.i.i.6.q.i.^ $       $ ' i.s.s.",
"i.6.q.8 o   X : G p.i.i.p.d.s.s.s.w.7 o         0 0.s.d.a.s.s.a.i.q.U @         . 7 8.i.q.i.i.6.6.i.d.J $ X   , 0.i.i.s.",
"d.q.q.S @ o % F w.p.s.i.s.s.s.s.s.s.` 7 X   o # ' s.s.s.s.s.s.i.i.i.6.~ # o   X 7 ~ i.q.6.i.6.6.6.i.i.w.J + o 0 9.i.i.a.",
"d.i.i.8.H D ' p.d.s.s.d.s.s.s.s.s.s.s.a.^ J G ' s.p.i.s.s.s.a.d.i.i.i.i._ ! H ~ 8.6.6.i.i.i.6.6.6.i.i.i.p.) H ' i.i.i.i.",
"i.i.d.i.q.q.s.s.s.s.s.i.s.s.s.s.s.i.s.s.s.p.p.s.i.i.i.i.a.d.d.a.s.i.i.i.6.i.i.i.6.6.i.i.i.i.i.i.i.i.s.i.i.6.6.i.i.i.i.i.",
"i.i.i.i.i.i.s.s.s.s.s.p.s.s.s.s.i.i.s.p.s.s.s.s.a.i.i.i.p.d.a.d.i.i.i.i.i.i.6.i.i.6.6.i.i.i.6.6.i.i.s.i.i.6.6.i.6.6.i.i."
};
