/* XPM */
static char *cGFjLW1hbislMjgxJTI5[] = {
/* columns rows colors chars-per-pixel */
"60 60 183 2 ",
"   c #D5AE3E",
".  c #D9AE39",
"X  c #DBAF34",
"o  c #DEB134",
"O  c #D9B03C",
"+  c #E5B52F",
"@  c #E8B72E",
"#  c #EDBB2E",
"$  c #E2B431",
"%  c #E7B835",
"&  c #EEBC30",
"*  c #EEBE39",
"=  c #E0B438",
"-  c #EFC03E",
";  c #CFAD4E",
":  c #D3AE48",
">  c #D5B047",
",  c #D5B048",
"<  c #D8B44E",
"1  c #CEAF57",
"2  c #D0AF52",
"3  c #CEB05A",
"4  c #D2B152",
"5  c #D0B25C",
"6  c #E5BA41",
"7  c #EABF44",
"8  c #E6BD49",
"9  c #E3BE56",
"0  c #CCB36D",
"q  c #CDB161",
"w  c #DCBF6E",
"e  c #CEB87B",
"r  c #CDB675",
"t  c #EFC345",
"y  c #EEC44A",
"u  c #F0C54B",
"i  c #EEC654",
"p  c #E9C45D",
"a  c #EEC85A",
"s  c #F0C752",
"d  c #F1C857",
"f  c #F1C95A",
"g  c #DCC174",
"h  c #DDC37C",
"j  c #EECA64",
"k  c #E7C86D",
"l  c #EECC6B",
"z  c #E3C368",
"x  c #F1CC61",
"c  c #F2CF6B",
"v  c #F3D16E",
"b  c #E6C770",
"n  c #EDCE73",
"m  c #EBCE7B",
"M  c #E6C975",
"N  c #F3D273",
"B  c #243E83",
"V  c #274185",
"C  c #2B4487",
"Z  c #344D8C",
"A  c #3F5691",
"S  c #495F97",
"D  c #455B94",
"F  c #51659C",
"G  c #54689D",
"H  c #5B6EA0",
"J  c #6174A4",
"K  c #6678A7",
"L  c #8896BA",
"P  c #CDBA83",
"I  c #D3BE83",
"U  c #CCBD92",
"Y  c #DCC78A",
"T  c #CFC095",
"R  c #CEC19D",
"E  c #D7C697",
"W  c #DCCA96",
"Q  c #D1C39B",
"!  c #DECC99",
"~  c #E9CF86",
"^  c #E3CB88",
"/  c #EDD282",
"(  c #E7D08C",
")  c #ECD38C",
"_  c #F4D683",
"`  c #F5D989",
"'  c #F8DB8A",
"]  c #F4D887",
"[  c #E1CD94",
"{  c #EBD594",
"}  c #EED897",
"|  c #EFD999",
" . c #E8D295",
".. c #F5DC94",
"X. c #F6DE99",
"o. c #CFC4A3",
"O. c #D2C6A3",
"+. c #D1C7A9",
"@. c #D5CBAE",
"#. c #D8CBA5",
"$. c #DFD2AC",
"%. c #D9CFB3",
"&. c #D6CEB7",
"*. c #D8D0B7",
"=. c #D6D0BE",
"-. c #DDD4BE",
";. c #E8D7A7",
":. c #F1DEA8",
">. c #E3D7B2",
",. c #E7DBB8",
"<. c #F7E2A7",
"1. c #F8E1A1",
"2. c #F8E4AE",
"3. c #F8E6B2",
"4. c #F9E8B9",
"5. c #F1E3BA",
"6. c #919FC1",
"7. c #99A4C3",
"8. c #AAB4CD",
"9. c #AEB7D0",
"0. c #BEC6DA",
"q. c #DCD6C3",
"w. c #DDD8C7",
"e. c #C7CDDE",
"r. c #DFDCD1",
"t. c #E1DCCD",
"y. c #E3DFD4",
"u. c #ECE3CB",
"i. c #ECE2C5",
"p. c #FAECC5",
"a. c #FAEECC",
"s. c #F2E7C7",
"d. c #EBE6D4",
"f. c #EDE8D7",
"g. c #E5E3DD",
"h. c #EEE9DD",
"j. c #E9E6DC",
"k. c #F2ECDC",
"l. c #F2EAD2",
"z. c #FBF1D5",
"x. c #FCF3DA",
"c. c #D1D6E4",
"v. c #D6DAE6",
"b. c #D8DCE7",
"n. c #EBE9E4",
"m. c #E1E4EC",
"M. c #E5E8EF",
"N. c #EEEEEE",
"B. c #E6E5E2",
"V. c #F1EEE7",
"C. c #EFF0EF",
"Z. c #FDF7E5",
"A. c #F1F0EE",
"S. c #FDFAEE",
"D. c #EFEFF0",
"F. c #EFF0F1",
"G. c #F1F1F0",
"H. c #F2F2F1",
"J. c #F0F1F2",
"K. c gray95",
"L. c #F3F3F2",
"P. c #F3F3F3",
"I. c #F2F3F3",
"U. c #F1F2F2",
"Y. c #F4F4F3",
"T. c #F3F3F4",
"R. c #F2F3F6",
"E. c #F3F4F5",
"W. c #F4F4F4",
"Q. c #F5F5F4",
"!. c gray96",
"~. c #F4F4F5",
"^. c #F5F5F6",
"/. c #F6F6F6",
"(. c #F3F3F3",
"). c #FEFBF4",
"_. c #F6F6F8",
"`. c #F5F6F8",
"'. c #F7F8FA",
"]. c white",
"[. c #FFFFFE",
"{. c #FDFEFF",
"}. c #FFFFFF",
/* pixels */
"'.N./.N./.N./.N./.N./.N./.N./.N./.N./.N./.N./.N./.N./.A.'.D._.D./.A./.C./.C./.N./.N./.N./.N./.N./.N./.N./.N./.N./.N./.N.",
"N.Q.N./.G./.N./.N./.G./.N./.A./.G./.N.Q.A./.G./.A.A.n.k.d.z.d.k.h.A.C.Q.G.Q.F.E.A./.C./.G./.G./.N.Q.N./.G./.N./.N./.G./.",
"/.A./.N./.N./.N./.A./.G./.N./.D./.A./.G.Q.h.s.;.} / n n l l l l m m ` :.s.f.A.D./.N.Q.A./.N.Q.G./.N./.N./.N./.A./.N./.N.",
"A.Q.A./.A./.A./.G.L.A./.A./.A.W.G./.n.5.{ n f y - - & & # & & & & * - t i l ) 3.f./.G.E.N./.A.T.A./.A./.A./.G.W.G.W.A./.",
"/.A./.A.T.G./.A.W.G./.G.E.G./.A.k.;.v i - & & # # # # # - # - # & & # # & & - u l { l.N./.G./.G./.A./.G.W.G./.G.Q.A.W.D.",
"A.Q.G.Q.G.Q.G.G.G.Q.G.G.G./.h.:.j t * & & & & & # # # # # # # # & & & & & & & # & t j | f.T.G.Q.G.L.G.Q.G.L.G.L.G./.G./.",
"G.G.Q.G./.G./.G./.G.E.G.G.5.n u * & & & & & & & - # - # # - # - & & & & & & & & & & & t j ;.A.T.G.G.Q.G./.G.W.G.W.G.L.L.",
"G./.G.Q.G.L.Q.G.T.G.T.N. .i - & # & & & & & & & # # # # # # # # & & & & & & & & & & & & & i ~ k.G./.G.Q.G.L.L.L.L.L.L.G.",
"G.Q.G.Q.G.P.G.G.Q.G.h.m t & & & & & & & & & & & # # & & & & & & # & & & & & & # & & & & & & t k l.T.G./.G.W.G.L.G.L.G./.",
"/.G.Q.G.Q.G./.G./.f.k t & & & & & & & & & & & & & # & & & & & & & & & & & & & & & & & & & & & * p i./.G.L.G.Q.G./.G.Q.G.",
"G./.G./.A.P.A.Q.h.k * & & & & & & & & & & & & & & & & & & & & & & & & & & & & & & & & & & & & & * p u.T.G./.G.W.N./.A./.",
"/.G.G.A./.A./.n.M * & & & # & & & & & & & & & & & & # & & & & & & & & & & & & & & & & & & & & & & & p d./.G.L.A./.A.Q.N.",
"N./.N./.D./.V.( * & & & & & & & & & & & & # & & & & & & & & & & & & & & & & & & & & & & & & & & & & & b n./.G./.N./.A./.",
"/.N./.N./.G.,.t & # & & & & & & & & & & & & & & & & & & & & & & & & & & & & & & & & & & & & & & & & & *  .D./.A./.D.Q.N.",
"N./.N./.F.n.p & & & & & & & & & & & & & & & & & & & & & & & & & & & & & & & & & & & & & & & & & & & & & 8 u.G./.N./.A./.",
"/.G./.G.Q.^ & # & & & & & & & & & & & & & & & & & & & & & & & & & & & & & # & & & & & & & & & & & & & & & b A.A./.N./.N.",
"N./.N./.u.7 & & & # & & & & & & & & & & & & # # # & & & & & & & & & & & & & & & & & & & & & & & & & & & & % >./.A./.D./.",
"/.N./.N.( & & & & & & & & & & & & & & & # # - - - & # # & & & & & & & & & & & & & & # # & * t & & & & & & # b N./.D./.N.",
"A./.G.V.9 # & & & & & & & & & & & & # - c <.a.x.z.4._ t # & & & & & & & & & & & & # u ' p.z.x.p.X.f & # & & 7 u.L.L.H.W.",
"/.N./.>.% & & & & & & & & & & & & - - 1.).[.[.[.[.[.[.z.v & & & & & & & & & & # & ` Z.[.[.[.[.[.[.S.X.- # & @ ^ W.D.W.D.",
"A.L.G.^ # # & & & & & & & & & & # - a.[.[.[.[.[.[.[.[.[.S.N # & & & & & & & & & X.[.[.[.[.[.[.[.[.[.[.2.* & # z V.T.D.W.",
"L.L.n.9 & & & & & & & & & & & & - <.[.[.[.[.[.[.[.M.c.m.[.Z.s & & & & & & & # N ).[.[.[.[.[.[.T.v.b./.[.` & & 6 d.T.W.G.",
"D.T.d.6 & & & & & & & & & & & # f ).[.[.[.[.[._.7.D Z A L E.1.& & & & & & & * p.[.[.[.[.[.[.e.H Z Z J c.x.t & % >.T.L.L.",
"T.T.,.% & & & & # & & & & & & # ' [.[.[.[.[.[.8.C B V V V 6.z.- & & & & & # d S.[.[.[.[.[.m.S B V B B G N.v # % [ /.G.W.",
"T.T.;.+ # & & & & & & & & & & & 3.[.[.[.[.[.'.K B V V V B F h.y # & & & & # c [.[.[.[.[.[.9.V V V V V C 0.' & @ ^ D.L.H.",
"D.R.! % & & & # & & & & & & & & 3.[.[.[.[.[.'.K B V V V V F n.u # & & & & & c [.[.[.[.[.[.9.V B V V V V 0.' # # g H.D.Q.",
"/.D.! @ & & & & & & & & & & & # X.[.[.[.[.[.[.8.C B V B B 7.z.- # & & & & # s S.[.[.[.[.[.m.S B V V B H N.v # # g N.Q.H.",
"D._.! @ & & & & & & & & & & & # x ).[.[.[.[.[._.7.D Z A L `.1.# & & & & & & - p.[.[.[.[.[.[.e.H Z Z J c.x.t # # w D.H.Q.",
"_.D.[ @ & & & & & & & & & & & & & 3.[.[.[.[.[.[.[.M.c.m.{.Z.i # & & & & & & # N ).[.[.[.[.[.[.T.v.v./.[.` & & # w N.L.D.",
"N./.W # & & & & & & & & & & & & & u a.[.[.[.[.[.[.[.[.[.S.N # & & & & & & & & & X.[.[.[.[.[.[.[.[.[.[.2.* # & # w D.N.Q.",
"/.F.! % & & & & & & & & & & # & & # u 3.).[.[.[.[.[.[.z.v & & & & & & & & & & & & ] Z.[.[.[.[.[.[.S.X.- & & & # w N.Q.D.",
"N._.W @ & & # & & & & & & & & & & & # * c <.a.x.z.4._ t # & & & & & & & & & & & & # i ..p.z.x.p.X.f & & & & # # w H.H.Q.",
"/.F.! @ & & & & & & & & & & & & & & & # # & - - - & & & & & & & & & & & # # - # - # # # - - - - # # & & & & & # z N.Q.N.",
"F./.! @ & & & & & & & & & & & & & & & & & & # # & & & & & & & & & & & & # - # # # # # # # # # # & & & & & & # # w V.H.Q.",
"/.T.! @ & & & & & & & & & & & & & & & & & & & & & & & & & # & & & & & & & # & & # # # # & & # # & & & & & & & # w N.Q.D.",
"C.E.W @ & & & & & & & & & & & & & & & & & & & & & & & & & & & & & # & & & & & & # # - # & & # # & & & & & & & # w N.L.Q.",
"G.T.! @ # & & & & & & & & & & & & & & & & # & & & & & & & # & & & & & & & & & & & & & & & & & & & & & & & & # # w N.L.H.",
"G.E.W @ & & & & & & & & & & & & & & & & & & & & & & & & & & & & & & & & & # & & & & & & & & & & & & & & & & # # w N.L.L.",
"P.E.! @ & & & & & & & & & & & & & & & & & & & & & & & & & & & & & & & & & & & & # & & & & & & & & & & & & & & # w N.H.L.",
"/.G.! % & & & # & & & & & & & & & & & & & & & & & & & & & & & & & & & & & & & & & & & & & & & & & & & & & & & # w N.W.H.",
"F.`.! @ & # & & & & & & & & & & & & & & & & & & & & & & & & # & & & & & & & & & & & & & & & & & & & & & & & # # w N.G./.",
"/.G.[ @ & & & & & & & & & & & & & & & & & & & & # & & & & & & & & # & & & & & & & & & & & & & & & & & & & & # # w N./.N.",
"N._.W @ & & & & & & & & & & & # & & & & & & & & & & & & & & & & & & & & & & & # & & & & & & & & & & & & & & & # w G.A./.",
"/.F.[ # & & & & & & & & & & & & & & & & & & & & & & & & & & & & & & & & & & & & & & & & & & & & & & & & & & & # w N./.N.",
"N._.! + & & & & & & & & & & & & & & & & & & & & & & & & & & & & & & & & & & & & & & & & & & & & & & & & & # # # w N.N./.",
"/.F.! @ & & & & & & & & & & & & & & & & & & # & & & & & & & & & & & & & & & & & & & & & & & & & & & & & & & # # w N./.N.",
"N.`.W @ & & & & & & & & & & & & & & & & & & & & & & & & & & & & # & & & & & & & & # & & & & & & & & & & & & & # w G.N./.",
"/.T.[ @ & # & & & & & & # & & & & & & & & & & & & & & & & & & # & & & & & & & & & & & & & & & & & & & & & & & # w N./.N.",
"C.E.Y @ & & & & & & & & & & & & & & & & & & & & & & & & & & & & & & & & & # & & & & & & & & & & & & & & & & & # w A.G./.",
"/.F.W @ & & & & & & & & & & & & & & & & & & & & & & & & & & & & & & & & & & & & & & & & & & & & & & & & & & & # w N./.N.",
"G.E.W @ & & & & & & & & & & & & & & & & & & & & & & & # & & & & & & & & & & & & & & & & & & & # & & & & & & & # w F.G./.",
"G.T.! @ & & & & & & & & @ + @ # & & & & & & & & & & & # @ + + # & & & & & & & & & & & & & @ + @ & & & & & & # # g N.Q.P.",
"G.T.! @ & & & & & & # O 0 U e   # & & & & & & & & & @ > e U P ; # # # # & & & & & & & # X 0 U 0 O # & & # & & # g F.G.G.",
"P.E.! + & & & & & @ ; @.n.F.N.%.> # & & & & & & & @ 4 -.N.T.D.r.5 # # # & & & & & & # O U N.F.N.+.> # & & & # # g C.G./.",
"/.T.>.+ & & & & + 1 w.D.T.G.Q.D.%.O # # & & # & & , q.G.T.F.L.T.j.0 # - & & & # & # o U N.G.Q.G.G.%.> # & & & # Y N.G.A.",
"D./.-.% & & & @ 1 r.T./.G.E.G.T.N.E $ & & & & & o #.D.E.G.T.G.W.C.d.< # & & & & & $ P N.G.T.G.E.G.G.@.O # & # @ Y /.G.Q.",
"/.F.j.< # # @ 5 t.G./.A./.A.T.A.Q.B.I $ # # # + I n./.N./.A./.A.Y.F.t.< @ - # # $ r B.F.Q.A./.A./.G.G.Q X # & $ $.G.T.G.",
"N./.N.E . X q t.G./.N./.N./.G./.A./.B.I   + . e g.Q.N./.N./.N./.C.Y.C.q.3 o $   e B.P.E.C.Q.N./.G./.G.G.Q   o 4 y./.D./.",
"/.G./.B.*.O.g.D./.G./.N.Q.C./.G./.F./.n.q.R &.B./.G./.N./.N./.G.Q.F.E.F.g.+.O.=.C.P.E.F.Q.A.Q.C./.G./.G.G.=.+.w./.G./.N.",
"N./.A./.D._.N./.N./.N./.N./.N./.N./.N._.D._.D./.N./.N./.N./.N./.C./.C.E.C./.C.'.C./.C./.C./.C.Q.N./.N./.N./.N./.N./.A./."
};
