/* XPM */
static char *_230d158be4445bd9c584c7082094e0aQqUCO0Yfg4rGHoEp[] = {
/* columns rows colors chars-per-pixel */
"60 60 188 2 ",
"   c #E7B937",
".  c #EEBC30",
"X  c #E6B93D",
"o  c #EDBE39",
"O  c #EEC03D",
"+  c #E4BA45",
"@  c #EABE43",
"#  c #E5BD4C",
"$  c #E8BF4A",
"%  c #E4BE55",
"&  c #E3BF5A",
"*  c #EEC143",
"=  c #ECC24B",
"-  c #F0C344",
";  c #F0C54B",
":  c #E6C055",
">  c #EDC453",
",  c #EEC759",
"<  c #EEC95D",
"1  c #E4C15D",
"2  c #F1C752",
"3  c #F1C856",
"4  c #F1CA5B",
"5  c #DEC375",
"6  c #DCC37C",
"7  c #E3C162",
"8  c #EAC662",
"9  c #EDCA64",
"0  c #E1C16A",
"q  c #EBCA6C",
"w  c #F1CB62",
"e  c #F2CE6B",
"r  c #F3D06E",
"t  c #ECCE77",
"y  c #E7CA79",
"u  c #EBCE7C",
"i  c #E0C475",
"p  c #EED07D",
"a  c #F3D272",
"s  c #F3D47B",
"d  c #274185",
"f  c #294386",
"g  c #2E4788",
"h  c #2F488A",
"j  c #324A8B",
"k  c #384F8E",
"l  c #3D5491",
"z  c #405793",
"x  c #455C96",
"c  c #4C629A",
"v  c #566A9E",
"b  c #52679D",
"n  c #5C6FA1",
"m  c #6375A5",
"M  c #6779A8",
"N  c #6A7CAA",
"B  c #6F80AD",
"V  c #7383AF",
"C  c #7B8AB3",
"Z  c #818FB6",
"A  c #8492B7",
"S  c #8694BA",
"D  c #939FBD",
"F  c #B3B6BE",
"G  c #DEC683",
"H  c #DFC886",
"J  c #DFC98A",
"K  c #D9C58C",
"L  c #DCC995",
"P  c #D6C79C",
"I  c #D7C89D",
"U  c #DBCB9D",
"Y  c #E0C883",
"T  c #EACF82",
"R  c #ECD081",
"E  c #ECD48E",
"W  c #F2D584",
"Q  c #F4D98D",
"!  c #E6D197",
"~  c #EBD593",
"^  c #EAD59A",
"/  c #E9D59B",
"(  c #F6DC94",
")  c #F6DE9C",
"_  c #F7E09E",
"`  c #DDCDA2",
"'  c #D7CBA9",
"]  c #D9CEAE",
"[  c #DFD0A6",
"{  c #DED2AE",
"}  c #D8CFB5",
"|  c #D6CFBA",
" . c #DDD2B4",
".. c #D7D0BB",
"X. c #DAD2BC",
"o. c #E0CFA1",
"O. c #E1D0A3",
"+. c #EAD7A1",
"@. c #ECD9A5",
"#. c #E5D6AD",
"$. c #ECDCAC",
"%. c #F0DCA5",
"&. c #E3D7B5",
"*. c #E7DAB3",
"=. c #EBDDB2",
"-. c #E4D9BB",
";. c #EBDEBB",
":. c #E1D7BB",
">. c #F7E2A5",
",. c #F7E4AD",
"<. c #F8E4AC",
"1. c #EEE1BA",
"2. c #F9E7B5",
"3. c #F9E8B7",
"4. c #F7E6BA",
"5. c #F6E8BF",
"6. c #F9E9BA",
"7. c #929FC0",
"8. c #9DA8C6",
"9. c #9FABC8",
"0. c #98A4C3",
"q. c #A3AECA",
"w. c #AAB4CE",
"e. c #B5BED4",
"r. c #B7C0D6",
"t. c #BCC5D8",
"y. c #CECECE",
"u. c #CCCAC4",
"i. c #D2CEC3",
"p. c #D6D2C4",
"a. c #DAD4C4",
"s. c #DFD8C3",
"d. c #D4D2CE",
"f. c #DAD5CA",
"g. c #DED9CB",
"h. c #C2C9DB",
"j. c #CACFDF",
"k. c #C4C9D5",
"l. c #CDD1DA",
"z. c #D4D4D4",
"x. c #D9D7D4",
"c. c #DCDAD5",
"v. c #DBDBDB",
"b. c #D2D5D9",
"n. c #E3DAC2",
"m. c #E2DDCD",
"M. c #E8DEC3",
"N. c #E3DFD1",
"B. c #E0DFDB",
"V. c #E7E0CB",
"C. c #ECE4CB",
"Z. c #EDE2C1",
"A. c #FAEBC2",
"S. c #F6EBCB",
"D. c #FBEECD",
"F. c #F1E5C2",
"G. c #E5E1D4",
"H. c #E9E4D5",
"J. c #E4E2DD",
"K. c #EAE6DB",
"L. c #EFEADA",
"P. c #F4ECD6",
"I. c #F1ECDC",
"U. c #FBF1D4",
"Y. c #F7F0DD",
"T. c #F9F1DB",
"R. c #CDD3E1",
"E. c #D8DCE7",
"W. c #DADEE9",
"Q. c #D5D9E6",
"!. c #E4E4E3",
"~. c #EBEAE4",
"^. c #E2E5EC",
"/. c #E6E8EF",
"(. c #EBEBEB",
"). c #F0EDE4",
"_. c #F5F1E6",
"`. c #FDF7E6",
"'. c #F6F2EB",
"]. c #FCF7EB",
"[. c #FDF9EC",
"{. c #E7EAF0",
"}. c #EDEFF5",
"|. c #F1F1F2",
" X c #F8F7F7",
".X c #FDFBF4",
"XX c #F7F8FA",
"oX c #FEFEFE",
/* pixels */
"|.|.|.(.(.^.(.(.(.(.|.(.~.^.(.(.(.~.~.!.!.!.!.~.!.!.B.!.!.!.^.(.(.|.(.'.(.(.(.(.!.!.!.!.!.!.!.!.!.!.!.!./.(.!.!.!././.!.",
"(.|.|.'.(.(.(.'.|.}.(.(.!.!.!.~.(.^.(.^.!.!.!.!.!.!.J.J.J.J.K.K.~.(.(.(.(.(.(.(.^.~.^.~.!.!.!.!.!.!.!.!.!.~.!.!.!.!.!.~.",
"'.|.}.(.(.(.(.|.|.(.(.~.!.!.!.^.~.(.~.!.!.!.!.J.V.1.*.+.^ ~ ^ ^ @.$.1.C.K.~.(.(.!.(.~.!.!.!.!.!.J.J.!.!.(.!.!.!.!.!.^.!.",
"}.|.'.^.~.(.(.}.|.'.(.^.!.!.!.~.^.(.!.!.G.$.~ q > = O O O O O O o O * - 9 t ~ 1.H.!.!.(./.!.!.!.!.W.J.!.!.!.!.!.!.!.B.B.",
"(.|.'.^.^.(.(.(.(.|.(.(.!.!.!.~.!.~.Z.+.t > * O . . . . O . . . . . . . o O - 2 p +.C.K.!.^.!.!.!.!.!.!.!.!.!.!.J.!.B.B.",
"|.|.|.~.~.(.(.(.(.|.|.(.!.!.B.!.G.@.< = o . . . . . . . . . . . . . . . . . . . O = q @.H.!.!.!.W.!.!.!.!.!.!.!.B.E.W.B.",
"|.|.'.^.(.^.^.~.(.(.'.^.!.W.N.~ , O . . . . . . . . . . . . . . . . . . . . . . . . o O 3 ^ V.!.J.!.!.!.!.!.!.!.!.!.W.!.",
"|.(.(.!.!.!.~.(.(.|.(.~.J.-.R * o . . . . . . . . . . . . . . . . . . . . . . . . . . . o 2 R *.J.!.!.!.v.!.!.v.!.B.J.!.",
"|.(.(.!.!.~.(.(.(.|.(.!.*.q * . . . . . . . . . . . . . . . . . . . . . . . . . . . . . . . * 4 ;.!.!.!.B.B.!.!.E.B.!.!.",
"(.(.!.!.!./.(.|.(.|.~.@.* o . . . . . . . . . . . . . . . . . . . . . . . . . . . . . . . . . . > / B.B.B.W.B.!.B.B.!.!.",
"(.(.!.!.~.(.|.|.|.~.@., . . . . . . . . . . . . . . . . . . . . . . . . . . . . . . . . . . . . o > ~ v.v.v.B.B.E.!.!.!.",
"|.(.^.B.!.(.(.(.(.=., o . . . . . . . . . . . . . . . . . . . . . . . . . . . . . . . . . . . . . o > -.v.v.B.W.B.B.J.E.",
"|.|.(.~.^.(.|.(.C.= o . . . . . . . . . . . . . . . . . . . . . . . . . . . . . . . . . . . . . . . . 9 &.v.B.!.J.!.!.B.",
"|.(.(.^.(.(.|.L.R O . . . . . . . . . . . . . . . . . . . . . . . . . . . . . . . . . . . . . . . . . - u N.!.B.B.!.!.!.",
"(.(.(.(.'.|.|.%.* . . . . . . . . . . . . . . . . . . . . . . . . . . . . . . . . . . . . . . . . . . . = / !.J.!.!.!.!.",
"(.!.~.(.|.|.F.> . . . . . . . . . . . . . . . . . . . . . . . . . . . . . . . . . . . . . . . . . . . . o > m.W.B.!.!.^.",
"~.~.~.^.(.|.p o . . . . . . . . . . . . . . . . . . . . . . . . . . . . . . . . . . . . . . . . . . . . . X ! v.J.!.!.(.",
"^.^.!.(.|.I.* . . . . O - ; ; O . . . . . . . . . . . . . . . . . o - - ; - O O . . . . . . . . . . . . . . 8 n.!.(.(.~.",
"!.~.!.(.~.^ o . . ; a _ A.D.U.6._ a O . . . . . . . . . . . . O 4 ( 3.D.U.A.,.s ; O . . . . . . . . . . . . o ! B././.(.",
"W.!.!.(.C.q . o 2 >.D.`..XoX.X.X`.D.s O . . . . . . . . . . - s 3.`..X.X.X.X[.U.>.w O . . . . . . . . . . .   q N.!.(.(.",
"B.!.!.~.;.= . > ( `..X XoXoXoXoXoX.XU.Q - . . . . . . . . O s D..X XoXoXoXoXoXoX`.3.2 O . . . . . . . . . . . 2 n.J.!./.",
"x.v.!.!.~ o * ( I.E.h.t.W.}.oXoXoXoXoXT.Q O . . . . . . O 4 U.!.j.t.R./.oXoXoXoXoX.X>.2 . . . . . . . . . . . @ ! !.!.(.",
"z.v.W.J.y o 9 ;.k.V n b C r.}.oXoXoXoX'.3.- . . . . . . - Q b.0.m b m 0.{.oXoXoXoXoXD.a O . . . . . . . . . . X y !./.(.",
"z.x.B.G.q o s p.C k f f k B R.oXoXoXoX|.T.4 o . . . . . 3 =.D x g f h x e.}.oXoXoXoX`.( O . . . . . . . . . . o 8 ~.(.'.",
"z.z.v.n.: o E F c f d d f x 9.XXoXoXoX X`.r O . . . . . 4 -.n h f d d g C {.oXoXoXoX[.<.- . . . . . . . . . . . $ ~.(.|.",
"z.z.v.:.> o E F c d d d d x q.XXoXoX.X X_.w O . . . . O 4 -.m j f f d f S ^.oXoXoXoX.X>.- . . . . . . . . . . . $ K.(.|.",
"v.v.v.&.$ . s u.B h d d j M h.oXoXoX|.|.T.4 o . . . . . 4 =.A z f f f l w.}.oXoXoXoX`.( - . . . . . . . . . . . @ K.(.(.",
"v.B.B.&.$ . < 4.l.C n n Z t.|.oXoX X|.).4.- . . . . . . * Q v.8.M v N 8.}.oXoXoXoXoXD.r o . . . . . . . . . . . @ L.(.(.",
"!.B.!.#.@ . - Q P.E.h.h.W.|.oXoX X|.(.C.W O . . . . . . o 4 S.^.R.h.Q.(.oXoXoXoXoX[.) ; . . . . . . . . . . . . @ H.(.(.",
"!.!.!.#.@ . o 4 >.[. X XoXoXoXoX|.(.I.%.3 . . . . . . . . o ( U. X XXXoXoXoXoX X'.S.4 O . . . . . . . . . . . . @ H./.(.",
"!.!.!.#.@ . . . ; ( D.`..XoX.X[.I.C.W = . . . . . . . . . . - a ,.`..X.XoX.X|.H.%.4 o . . . . . . . . . . . . . @ H./.(.",
"~./.~.#.@ . . . . ; r ( 2.A.A.,.Q e - o . . . . . . . . . . . O 4 Q <.6.5.5.Z.^ < O . . . . . . . . . . . . . . o N.!.!.",
"^.!.!.#.@ . . . . . o - 2 4 4 ; . . . . . . . . . . . . . . . . . . @ 3 3 2 2 @ . . . . . . . . . . . . . . . .   m.J.B.",
"!.J.B.O.@ . . . . . . . . . . . . . . . . . . . . . . . . . . . . . . . . . . . . . . . . . . . . . . . . . . .   m.J.W.",
"W.v.v.O.@ o . . . . . . . . . . . . . . . . . . . . . . . . . . . . . . . . . . . . . . . . . . . . . . . . . . @ m.B.B.",
"c.z.v.o.@ . . . . . . . . . . . . . . . . . . . . . . . . . . . . . . . . . . . . . . . . . . . . . . . . . . . @ m.B.E.",
"x.z.z.o.@ . . . . . . . . . . . . . . . . . . . . . . . . . . . . . . . . . . . . . . . . . . . . . . . . . . . @ f.v.v.",
"x.v.z.` @ . . . . . . . . . . . . . . . . . . . . . . . . . . . . . . . . . . . . . . . . . . . . . . . . . . . @ m.v.v.",
"v.z.z.` @ . . . . . . . . . . . . . . . . . . . . . . . . . . . . . . . . . . . . . . . . . . . . . . . . . . . @ m.v.z.",
"v.z.y.` @ . . . . . . . . . . . . . . . . . . . . . . . . . . . . . . . . . . . . . . . . . . . . . . . . . . . X f.z.z.",
"v.z.y.U @ . . . . . . . . . . . . . . . . . . . . . . . . . . . . . . . . . . . . . . . . . . . . . . . . . . . @ f.z.z.",
"v.z.z.` @ . . . . . . . . . . . . . . . . . . . . . . . . . . . . . . . . . . . . . . . . . . . . . . . . . . . @ p.z.z.",
"v.x.x.o.@ . . . . . . . . . . . . . . . . . . . . . . . . . . . . . . . . . . . . . . . . . . . . . . . . . . . @ p.z.z.",
"v.b.x.+.@ . . . . . . . . . . . . . . . . . . . . . . . . . . . . . . . . . . . . . . . . . . . . . . . . . . . @ p.z.x.",
"v.v.v.o.@ . . . . . . . . . . . . . . . . . . . . . . . . . . . . . . . . . . . . . . . . . . . . . . . . . . . @ a.z.v.",
"v.v.v.o.@ . . . . . . . . . . . . . . . . . . . . . . . . . . . . . . . . . . . . . . . . . . . . . . . . . . . @ m.v.v.",
"v.v.v.o.o . . . . . . . . . . . . . . . . . . . . . . . . . . . . . . . . . . . . . . . . . . . . . . . . . . . + m.v.v.",
"v.B.v.o.o . . . . . . . . . . . . . . . . . . . . . . . . . . . . . . . . . . . . . . . . . . . . . . . . . . . o f.x.v.",
"v.v.v.O.$ . . . . . . . . . . . . . . . . . . . . . . . . . . . . . . . . . . . . . . . . . . . . . . . . . . . @ a.z.z.",
"v.v.v.` @ . . . . . . . . . . . . . . . . . . . . . . . . . . . . . . . . . . . . . . . . . . . . . . . . . . . o a.z.y.",
"z.B.v.o.@ . . . . . . . . . . . . . . . . . . . . . . . . . . . . . . . . . . . . . . . . . . . . . . . . . . . o i.y.y.",
"v.E.v.#.$ . . . . . . o % 0 %   . . . . . . . . . . . .   + + X . . . . . . . . . . . . . + % #   . . . . . . . @ u.y.y.",
"v.v.v.#.@ . . . .   $ Y | i.} 0 X . . . . . . . . . . # 6 ' } I 6 X . . . . . . . . . @ 0 } a.] i +   . . . . . @ i.y.y.",
"v.v.v.} $ . . . . $ L z.z.z.d.i.5 o . . . . . . .   X I x.v.v.v.x.5   . . . . . . .   i f.B.B.v.m.L + . . . . . $ i.y.y.",
"v.v.x.X.# . . o $ ] d.z.d.z.z.z.p.G o . . . . . o % ' z.v.v.v.x.z.B.G o . . . . .   G x.B.v.v.v.z.x.} #   . . . % i.y.y.",
"v.z.z.a.& . o $ H x.z.y.y.z.z.z.z.p.& o . . . . & ' d.x.z.v.v.x.z.x.&.& . . . .   7 f.B.v.v.v.z.x.z.B.L % o .   7 y.y.z.",
"v.z.z.p.0   $ Y a.z.z.y.y.y.z.y.z.z.' 7 X . o $ ' y.z.z.z.v.B.v.v.v.v.X.#   . @ 7 X.B.B.v.v.v.v.b.v.z.z.L %   @ G d.z.z.",
"v.z.z.z.| ` ] z.x.z.z.y.y.y.z.z.z.y.y.u.' L ` | z.z.z.z.z.v.Q.v.v.x.v.x.a.L Y O.f.v.b.v.v.v.v.v.x.v.v.x.x.| K I i.z.z.z.",
"z.z.z.y.z.y.y.z.z.v.z.z.z.z.z.z.z.z.y.y.z.y.z.y.b.z.z.z.z.z.z.x.z.z.z.z.v.v.B.v.v.v.x.v.v.v.v.v.b.v.v.v.v.B.d.y.z.z.z.z.",
"z.z.z.y.y.y.y.z.b.v.z.z.y.z.y.x.z.z.y.y.z.z.y.z.x.z.v.z.v.z.v.b.z.z.z.b.z.x.v.v.z.v.z.z.v.!.v.v.x.x.v.v.v.v.z.z.z.v.x.z."
};
